<svg xmlns="http://www.w3.org/2000/svg" xmlns:xlink="http://www.w3.org/1999/xlink" width="32.307" height="24.029" viewBox="0 0 32.307 24.029"><defs><style>.a{fill:#133c59;}.b{clip-path:url(#a);}</style><clipPath id="a"><rect class="a" width="32.307" height="24.029"/></clipPath></defs><g class="b" transform="translate(0)"><path class="a" d="M106.479,289.55l4.819,2.321v3.864a.846.846,0,0,0,.479.762L121,300.938a.846.846,0,0,0,.367.084h1.549a.847.847,0,0,0,.368-.084l9.193-4.428a.848.848,0,0,0,.4-.412c.012-.025.022-.051.033-.077a.844.844,0,0,0,.068-.333v-3.818l1.314-.633v5.24a1.518,1.518,0,0,0-.61.82l-.748,2.437a1.514,1.514,0,0,0,.008.916l.693,2.137a1.526,1.526,0,0,0,1.4,1.052h.047a1.514,1.514,0,0,0,1.417-.965l.8-2.036a1.531,1.531,0,0,0,.044-.989l-.748-2.539a1.514,1.514,0,0,0-.615-.837v-6.054l1.826-.879a.847.847,0,0,0,.479-.762v-.674a.847.847,0,0,0-.479-.762l-15.3-7.372a.844.844,0,0,0-.734,0l-15.291,7.366a.846.846,0,0,0-.479.762v.687a.846.846,0,0,0,.479.762ZM135.1,301.817l-.532-1.638.567-1.848.572,1.943Zm-3.814-6.614-8.566,4.126h-1.163L112.99,295.2v-2.517l8.78,4.229a.844.844,0,0,0,.734,0l8.78-4.229Zm-9.147-13.529,14.054,6.77-4.316,2.079a.888.888,0,0,0-.112.044l-9.626,4.637-9.626-4.637a.884.884,0,0,0-.112-.044l-4.316-2.079Zm0,0" transform="translate(-106 -279.889)"/></g></svg>