<svg xmlns="http://www.w3.org/2000/svg" xmlns:xlink="http://www.w3.org/1999/xlink" width="665.148" height="368.053" viewBox="0 0 665.148 368.053"><defs><style>.a{fill:#fff;}.b{fill:#afcdfb;}.c{fill:#cde0fb;}.d{fill:#e7edff;}.e{clip-path:url(#a);}.f{fill:#88a0e2;}.g{fill:#ffb27d;}.h{fill:#e2915a;}.i{fill:#233862;}.j{fill:#aec3ff;}.k{fill:#9db0f4;}.l{fill:#a9453d;}.m{fill:#f99746;}.n{fill:#c5d7ff;}.o{fill:#ed975d;}.p{fill:#2a4e96;}.q{fill:#5f9aa8;}.r{fill:#f37168;}.s{fill:#1e3d70;}.t{fill:#e3645d;}.u{fill:#2c3a64;}.v{fill:#ed985f;}.w{fill:#d7e1ff;}</style><clipPath id="a"><rect class="a" width="58.4" height="58.4"/></clipPath></defs><g transform="translate(454.089 18.349)"><path class="b" d="M1984.7,595.743s49.421-49.951,64.043-39.132S1984.7,595.743,1984.7,595.743Z" transform="translate(-1977.014 -554.81)"/><path class="b" d="M1973.169,654.677s93.4-45.267,116.482-23.536-25.386,20.437-43.381,18.475S1973.169,654.677,1973.169,654.677Z" transform="translate(-1968.876 -604.322)"/><path class="b" d="M1958.585,594.271s.373-2.4.874-5.9c.977-6.842,2.443-17.91,2.584-23.655.213-8.691,7-15.063,14.932-6.464s-15.518,33.552-15.518,33.552Z" transform="translate(-1958.585 -554.171)"/></g><path class="c" d="M1121.84,959.263c4.326-14.045,28.1-8.793,28.1-8.793s15.392,25.367,20.1,26.12-8.925-24.258-8.925-24.258c9.186-.572,32.133,11.453,32.133,11.453s-2.47,28.893,2.276,28.465.882-25.7.882-25.7c8.769,2.962,16.683,13.583,16.683,13.583,9.759,17.189-12.818,28.833-12.818,28.833s-.64,10.031,5.167,21.763h0a34.222,34.222,0,0,1,2.626,5.838l-2.416-.083q-.263-.982-.591-1.9a.013.013,0,0,0,0-.011l-.01-.027c-.152-.379-.372-.918-.646-1.576v0s0,0,0,0c-.688-1.47-1.15-2.554-1.439-3.336a.022.022,0,0,1,0-.007c-2.056-4.611-5.038-10.629-7.12-11.941a4.693,4.693,0,0,0,.555-1.09l-.555,1.09c-4.439,8.718-25.164,9.485-36.6,6.727s-6.3-5.835.078-10.895,19.331-3.224,23.241-5.159-1.63-4.2-9.329-3.869-11.8,7.874-24.247,8.63-21.1-22.9-21.1-22.9c8.474,2.952,23.994-1.246,24.686-4.179s-22.06-3.419-25.573-4.426S1117.514,973.308,1121.84,959.263Z" transform="translate(-912.95 -814.805)"/><path class="c" d="M2176.688,1025.693c-4.379-11.326-23.667-5.622-23.667-5.622s-11.219,21.8-15.053,22.692,5.952-20.511,5.952-20.511c-7.6.06-25.822,11.3-25.822,11.3s3.708,23.672-.228,23.593-2.214-21.128-2.214-21.128c-7.056,2.949-12.966,12.161-12.966,12.161-7.049,14.733,12.234,23.024,12.234,23.024a38.957,38.957,0,0,1-3,18.236h0a28.247,28.247,0,0,0-1.827,4.964l1.987-.208q.159-.824.377-1.6a.012.012,0,0,1,0-.01l.007-.022c.1-.321.254-.778.441-1.336v0c.482-1.252.8-2.172.993-2.833a.025.025,0,0,0,0-.006c1.428-3.919,3.538-9.053,5.178-10.255a3.874,3.874,0,0,1-.521-.866l.521.866c4.163,6.929,21.29,6.362,30.557,3.427s4.859-5.174-.695-8.975-16.12-1.539-19.455-2.908,1.1-3.553,7.466-3.728,10.183,5.807,20.485,5.71,16.062-20.1,16.062-20.1c-6.814,2.923-19.849.361-20.589-2.016s17.985-4.094,20.822-5.128S2181.067,1037.019,2176.688,1025.693Z" transform="translate(-1605.094 -863.586)"/><path class="b" d="M1156.557,503.432c11.207-21.785,48.683-6.215,48.683-6.215s17.844,46.132,25.346,48.743-7.554-42.421-7.554-42.421c15.243,1.748,49.387,28.192,49.387,28.192s-12.5,46.7-4.589,47.381,8.961-41.912,8.961-41.912c13.526,7.426,23.41,27.171,23.41,27.171,10.99,31.065-29.467,43.573-29.467,43.573s-3.984,16.277,2.115,37.228h0a57.007,57.007,0,0,1,2.6,10.35l-3.94-.843q-.144-1.688-.416-3.287a.022.022,0,0,0,0-.019c0-.016-.006-.031-.008-.046-.14-.667-.343-1.616-.6-2.775v0s0,0,0-.006c-.7-2.614-1.141-4.528-1.387-5.9a.052.052,0,0,1,0-.013c-2.025-8.168-5.161-18.917-8.194-21.68a7.824,7.824,0,0,0,1.23-1.627l-1.23,1.627c-9.835,13.011-44.072,8.209-62.036.338s-8.641-11.419,3.314-17.857,32.668.362,39.652-1.671-1.449-7.362-14.18-9.077-21.672,9.472-42.318,7.073-27.924-43.753-27.924-43.753c13.044,7.323,39.743,4.971,41.736.359s-35.2-12.061-40.676-14.742S1145.35,525.217,1156.557,503.432Z" transform="translate(-934.451 -491.827)"/><g transform="translate(279.073 43.527)"><rect class="a" width="239.984" height="324.527"/><rect class="d" width="222.926" height="310.099" transform="translate(7.492 6.319)"/><g transform="translate(22.712 27.445)"><rect class="a" width="58.4" height="58.4"/><g class="e"><g transform="translate(-21.679 3.671)"><path class="f" d="M1495.49,945.322h-46.176l33.1-74.225,11.454,25.66,4.184,24.952Z" transform="translate(-1425.218 -834.115)"/><path class="a" d="M1451.431,866.911l7.4-1.919,7.185-2.546a36.785,36.785,0,0,0,7.141,2.546c3.235.6,14.034,18.642,14.034,19.4s-8.445,54.462-8.445,54.462h-40.767Z" transform="translate(-1417.216 -828.009)"/><path class="g" d="M1521.656,844.738a18.775,18.775,0,0,1-12.85-2.93,37.173,37.173,0,0,0,2.978-9.655c.018-.114.032-.225.045-.333a9.916,9.916,0,0,0,.1-2.225l9.417.22s2.547,1.237,2.528,2.051q-.015.652-.018,1.249c-.006,1.083.015,2.03.052,2.843.118,2.647.492,5.852.492,5.852S1525.351,844.1,1521.656,844.738Z" transform="translate(-1467.2 -804.828)"/><path class="h" d="M1530.582,840.03a13.017,13.017,0,0,1-12.123-3.8c-.129-.146-.194-.233-.194-.233.076-.036.156-.068.24-.1,2.681-1.013,8.792-.473,12.129.839C1530.628,837.816,1530.545,839.217,1530.582,840.03Z" transform="translate(-1473.875 -808.9)"/><path class="g" d="M1501.271,782.067c2.427,6.546,11.115,4.814,14.813,3.737,1.041-.3,1.685-.553,1.685-.553,1.141-.526,1.483-2.527,1.366-5.049-.229-4.993-2.248-12.031-3.39-13.723-1.72-2.546-4.576-5.126-12.992-1.453S1498.161,773.681,1501.271,782.067Z" transform="translate(-1459.326 -757.972)"/><path class="i" d="M1500.163,748.15a12.745,12.745,0,0,0-7.58-2.705,20.044,20.044,0,0,0-10.207,2.839c-6.632,4.4-7.557,10.213-2.272,18.11,5.589,8.35,9,6.514,9,6.514s-.652-.209-1.067-3.041c-.023-.161-.04-.3-.053-.413a1.925,1.925,0,0,0-.865-1.439c-1.029-.641-1.88-2.973-1.249-3.772.761-.964,2.2-.2,2.731.484a1.119,1.119,0,0,0,1.635.075c1.99-1.8.05-4.373,1.886-6.47s12.846-1.154,13.567-7.345A19.557,19.557,0,0,1,1500.163,748.15Z" transform="translate(-1444.538 -745.443)"/><path class="j" d="M1561.785,871.1s11.566,23.863,13.074,42.289a183.65,183.65,0,0,1,0,31.936,124.706,124.706,0,0,0,8.234-39.289c.318-9.47-1.2-26.616-4.418-29.65C1577.1,874.9,1572.4,873.489,1561.785,871.1Z" transform="translate(-1504.587 -834.115)"/><path class="j" d="M1411.761,902.654c-.037,2.725-.143,5.574-.337,8.522a146.207,146.207,0,0,1-6.131,33.78h-37.85s4.69-11.4,10.355-23.793c.992-2.171,2.015-4.371,3.046-6.546,4.187-8.823,8.539-17.224,11.721-21.467,8.445-11.26,16.489-22.052,16.489-22.052A146.817,146.817,0,0,1,1411.761,902.654Z" transform="translate(-1367.443 -834.115)"/><path class="k" d="M1426.2,1024.093s-7.773,3.083-23.574,1.414c.993-2.171,2.015-4.371,3.047-6.546Z" transform="translate(-1392.271 -938.46)"/><path class="k" d="M1461.534,977.705c-.037,2.725-.143,5.574-.337,8.522-5.093-.276-23.309-1.279-23.222-1.538.1-.3,1.685-7.239,1.685-7.239s15.313,3.72,21.845,0Z" transform="translate(-1417.216 -909.166)"/><path class="g" d="M1493.793,998.773s5.429-3.223,7.942-3.069,6.535.958,7.138,3.069-.9,1.081-4.273,1.737c-1.986.387-3.2,3.239-5.781,3.49a35.594,35.594,0,0,1-5.027-.7Z" transform="translate(-1456.606 -922.044)"/><path class="j" d="M1417.105,871.1s-13.9,1.643-17.515,5.061c-6.121,5.781-22.219,27.641-20.628,37.228,1.056,6.362,30.461,6.362,30.461,6.362s3.63-2.353,4.967-4.48c2.715-4.323,1.776-7.493,1.776-7.493l-18.188-6.18s8.871-8.6,15.708-9.048C1418.687,892.218,1417.105,871.1,1417.105,871.1Z" transform="translate(-1375.494 -834.115)"/></g></g></g><g transform="translate(96.564 23.078)"><g transform="translate(0 40.236)"><rect class="j" width="73.18" height="1.469"/><rect class="j" width="73.18" height="1.469" transform="translate(0 6.853)"/><rect class="j" width="73.18" height="1.469" transform="translate(0 13.788)"/></g><rect class="a" width="22.391" height="22.391"/><rect class="j" width="28.379" height="2.583" transform="translate(44.801 17.492)"/><rect class="j" width="34.56" height="2.583" transform="translate(38.62 23.541)"/></g><g transform="translate(22.712 193.354)"><rect class="a" width="58.4" height="58.4"/><g class="e"><g transform="translate(-19.086 3.671)"><path class="j" d="M1448.83,1430.618l7.4-1.919,7.184-2.546a36.789,36.789,0,0,0,7.141,2.546c3.235.6,14.034,18.642,14.034,19.4s.3,54.829.3,54.829l-49.513-.366Z" transform="translate(-1417.973 -1391.717)"/><path class="g" d="M1519.055,1408.446a18.777,18.777,0,0,1-12.85-2.93,37.162,37.162,0,0,0,2.978-9.655c.018-.115.032-.225.046-.333a9.919,9.919,0,0,0,.1-2.225l9.417.219s2.547,1.237,2.528,2.051q-.015.653-.018,1.249c-.006,1.083.015,2.03.052,2.843.117,2.647.492,5.852.492,5.852S1522.75,1407.811,1519.055,1408.446Z" transform="translate(-1467.957 -1368.536)"/><path class="h" d="M1527.981,1403.738a13.018,13.018,0,0,1-12.123-3.8c-.128-.146-.194-.232-.194-.232.076-.036.156-.068.24-.1,2.681-1.014,8.792-.473,12.129.839C1528.026,1401.524,1527.943,1402.925,1527.981,1403.738Z" transform="translate(-1474.632 -1372.608)"/><path class="g" d="M1498.67,1345.775c2.426,6.546,11.115,4.814,14.812,3.737,1.041-.3,1.685-.552,1.685-.552,1.142-.527,1.483-2.527,1.366-5.05-.229-4.993-2.248-12.031-3.39-13.722-1.72-2.546-4.576-5.126-12.992-1.453S1495.559,1337.388,1498.67,1345.775Z" transform="translate(-1460.082 -1321.68)"/><path class="l" d="M1497.562,1311.856a12.747,12.747,0,0,0-7.58-2.705,20.049,20.049,0,0,0-10.207,2.839c-6.632,4.4-7.557,10.213-2.272,18.11,5.589,8.351,9,6.514,9,6.514s-.653-.209-1.067-3.041c-.024-.161-.04-.3-.053-.413a1.924,1.924,0,0,0-.865-1.439c-1.029-.642-1.88-2.973-1.249-3.772.761-.964,2.2-.2,2.731.484a1.119,1.119,0,0,0,1.635.075c1.99-1.8.05-4.373,1.886-6.47s12.846-1.154,13.567-7.345A19.562,19.562,0,0,1,1497.562,1311.856Z" transform="translate(-1445.295 -1309.15)"/><path class="j" d="M1559.185,1434.8s11.566,23.863,13.074,42.289a183.634,183.634,0,0,1,0,31.936,124.713,124.713,0,0,0,8.234-39.289c.318-9.47-1.2-26.616-4.418-29.65C1574.5,1438.61,1569.795,1437.2,1559.185,1434.8Z" transform="translate(-1505.345 -1397.823)"/><path class="j" d="M1414.505,1434.8h0s-13.9,1.643-17.515,5.061c-6.12,5.78-22.219,27.641-20.628,37.228.353,2.126,8.594,8.621,13.125,9.563,1.148,9.023-1.695,22.373-1.695,22.373l22.952-.367a146.193,146.193,0,0,0,6.131-33.78c.194-2.947.3-5.8.337-8.522A146.817,146.817,0,0,0,1414.505,1434.8Z" transform="translate(-1376.251 -1397.823)"/><path class="m" d="M1502.823,1426.44s5.815,4.754,9.26,5.583c0,0-3.2,1.692-13.247-2.82A6.09,6.09,0,0,1,1502.823,1426.44Z" transform="translate(-1462.757 -1391.919)"/><path class="m" d="M1548.065,1424.777a12.639,12.639,0,0,0,1.678,3.265s-.9,3.167-5.9,2.808C1543.844,1430.85,1548.262,1427.678,1548.065,1424.777Z" transform="translate(-1494.519 -1390.746)"/><path class="m" d="M1530.42,1437.087l6.9-.841s-.215,4.047-2.293,5.66C1534.27,1442.493,1530.332,1437.805,1530.42,1437.087Z" transform="translate(-1485.045 -1398.839)"/><path class="m" d="M1539.78,1445.808s1.586,28.872.837,41.64c-.414,7.056-1.439,17.225-1.274,18.209s4.85,5.578,4.85,5.578,4.61-4.293,4.719-6.152a208.643,208.643,0,0,0-6.758-59.575C1541.873,1444.457,1539.78,1445.808,1539.78,1445.808Z" transform="translate(-1491.33 -1405.093)"/></g><path class="n" d="M1498.568,1424.777s-1.771.122-4.888,3.731c0,0,5.031,4.32,9.624,5.413,0,0-.189-3.349,1.19-4.928Z" transform="translate(-1478.205 -1387.074)"/><path class="n" d="M1552.391,1424.777l-2.417,3.581a10.974,10.974,0,0,1,3.281,4.06s1.69-2.757,1.542-4.208C1554.8,1428.209,1553.659,1425.216,1552.391,1424.777Z" transform="translate(-1517.932 -1387.074)"/></g><g transform="translate(73.852 1.454)"><g transform="translate(0 40.236)"><rect class="j" width="77.369" height="1.468"/><rect class="j" width="77.369" height="1.468" transform="translate(0 6.853)"/><rect class="j" width="77.369" height="1.469" transform="translate(0 13.787)"/></g><rect class="a" width="22.391" height="22.391"/><rect class="j" width="30.004" height="2.583" transform="translate(47.365 17.492)"/><rect class="j" width="36.539" height="2.583" transform="translate(40.83 23.541)"/></g></g><g transform="translate(22.712 109.011)"><rect class="a" width="58.4" height="58.4"/><g transform="translate(1.599 4.505)"><path class="i" d="M1480.2,1025.9c-3.579-.994-8.521-.164-9.338-.1-9.783.777-12.516,15.833-11.949,20.092,1.05,7.848-2.779,9.909-7.478,15.985-5.125,6.624-5.745,12.759-4.081,17.431h24.84c5.328-4.685,12.605-11.109,17.172-15.085a7.7,7.7,0,0,0,1.726-.892C1501.08,1056.444,1488.875,1028.3,1480.2,1025.9Z" transform="translate(-1446.532 -1025.41)"/><path class="g" d="M1531.34,1119.265c.045.017-4.063,2.491-7.313,1.819-3.057-.629-6.163-4.762-6.122-4.774,1.257-.333,2.41-1.744,1.909-9.257l.582.077,9.794,1.3s-.028,3.058.147,5.926C1530.482,1116.768,1530.772,1119.043,1531.34,1119.265Z" transform="translate(-1496.898 -1083.024)"/><path class="o" d="M1536.162,1108.619s-.028,3.058.147,5.926c-5.423.189-8.6-4.568-9.941-7.23Z" transform="translate(-1502.871 -1083.209)"/><path class="g" d="M1533.051,1069.372s-12.793,1.02-13.306-6.957-2.509-13.217,5.637-14.206,9.931,1.953,10.749,4.573S1536.366,1068.9,1533.051,1069.372Z" transform="translate(-1497.781 -1041.361)"/><path class="i" d="M1525.458,1045.924s-6.475,8.58-11.769,10.3-7.719.43-7.719.43a21.629,21.629,0,0,0,3.613-8.03,3.894,3.894,0,0,1,2.653-2.923C1516.029,1044.535,1523.324,1042.8,1525.458,1045.924Z" transform="translate(-1488.476 -1038.639)"/><path class="i" d="M1554.83,1046.522a20.043,20.043,0,0,1,4.471,3.727c1.208,1.667,2.4,6.022,2.138,7.911,0,0,2.4-8.963-.793-12.374C1557.256,1042.169,1554.83,1046.522,1554.83,1046.522Z" transform="translate(-1522.956 -1038.775)"/><path class="j" d="M1494.986,1143.442a4.824,4.824,0,0,0-1.457-2.228c-3.359-3.133-10.909-4.413-10.909-4.413v0a.774.774,0,0,1-.016.082v.006c-.109.4-.683,2.021-3.229,2.021-1.719,0-4.337-.741-8.317-3.091-.02-.013-.04-.023-.059-.036,0,0-.007,0-.007,0v0s-10.459.643-14.078,5.693c-1.965,2.74-4.672,8.921-6.929,15.719h48.751C1497.066,1151.07,1495.511,1145.365,1494.986,1143.442Z" transform="translate(-1448.969 -1103.297)"/></g><g transform="translate(73.852 0.864)"><g transform="translate(0 40.236)"><rect class="j" width="75.937" height="1.468"/><rect class="j" width="75.937" height="1.469" transform="translate(0 6.853)"/><rect class="j" width="75.937" height="1.468" transform="translate(0 13.788)"/></g><rect class="a" width="22.391" height="22.391"/><rect class="j" width="31.657" height="2.583" transform="translate(41.523 17.493)"/><rect class="j" width="38.552" height="2.583" transform="translate(34.628 23.541)"/></g><path class="i" d="M1706.412,1030.763l6.962,9.6,8.294-15.339-9.624,8.749Z" transform="translate(-1628.327 -1020.631)"/></g><g transform="translate(62.376 282.29)"><rect class="j" width="76.842" height="1.289" transform="translate(0 0)"/><rect class="j" width="76.842" height="1.289" transform="translate(0 6.159)"/><rect class="j" width="76.842" height="1.289" transform="translate(0 13.606)"/></g><g transform="translate(23.642 278.262)"><path class="j" d="M1451.023,1591.947c1.034-1.455,2.116-4.01,1.3-5.81-.751-1.652-2.236-.887-3.246.07a12.634,12.634,0,0,0-3,5.324,34.571,34.571,0,0,0-1.678,7.3c-.205,1.995-.34,5.07.944,6.773,1.091,1.446,2.846.259,4.056-.419,3.82-2.142,7-5.565,7.887-9.949.114-.564-.584-1.082-1.028-.6a5.287,5.287,0,0,0-1.5,3.436c-.02.723.046,1.87.917,2.079,1.025.245,1.821-1.178,2.262-1.857a11.712,11.712,0,0,0,1.7-4.5l-1.186-.327c-.17,1.164.038,3.238,1.765,2.879,1.634-.339,1.771-3.148,1.822-4.408a.618.618,0,0,0-1.208-.163,6.566,6.566,0,0,0,.144,3.365,10.732,10.732,0,0,0,.722,1.576,8.561,8.561,0,0,1,.663,1.311q.577,1.413-1,1.2l-.368.9c2.9-1.141,6.049-2.707,6.209-6.225.036-.791-1.194-.79-1.23,0-.131,2.887-2.985,4.125-5.306,5.039a.627.627,0,0,0-.368.9,1.749,1.749,0,0,0,3.153-.125,3.125,3.125,0,0,0-.172-2.675c-.783-1.7-1.657-2.978-1.267-4.948l-1.208-.163a8.281,8.281,0,0,1-.272,1.962,3.453,3.453,0,0,1-.227.673q-.292,1.15-.672-.778c.113-.769-1.055-1.113-1.186-.327a10.813,10.813,0,0,1-1.571,4.2c-.381.583-.943,1.749-.887.4a3.958,3.958,0,0,1,1.141-2.566l-1.028-.6a12.753,12.753,0,0,1-4.413,7.2,13.062,13.062,0,0,1-3.777,2.477,1.9,1.9,0,0,1-1.817-.224c-.181-.176-.248-.867-.3-1.113a12.885,12.885,0,0,1-.253-2.972,28.971,28.971,0,0,1,2.055-9.356,10.141,10.141,0,0,1,2.358-3.844c1.4-1.321,1.406.779,1.2,1.736a6.812,6.812,0,0,1-1.185,2.514c-.459.646.607,1.262,1.062.621Z" transform="translate(-1444.26 -1585.169)"/></g></g><g transform="translate(419.31 95.777)"><g transform="translate(0 247.232)"><path class="g" d="M1869.438,1678.022c-.221,3.014-4.473,3.046-9.3,2.486s-3.542.662-10.3.755-9.084-2.139-9.411-3.1c-.292-.856,2.962-1.577,6.443-2.425.438-.1.877-.216,1.317-.327,3.925-1,6.523-3.935,9.881-6.5,3.181-2.43,7.282-11.223,7.282-11.223l9.229-.416s-3.886,7.882-5.346,11.28c-.858,2-.493,4.454-.12,6.339A11.816,11.816,0,0,1,1869.438,1678.022Z" transform="translate(-1840.414 -1657.269)"/><path class="i" d="M1860.141,1722.753c-4.825-.559-3.542.661-10.3.756s-9.084-2.139-9.411-3.1c-.292-.856,2.962-1.577,6.443-2.425l.042.064a18.933,18.933,0,0,0,9.913,1.776c4.534-.454,9.161-2.347,12.289-2.686a11.815,11.815,0,0,1,.32,3.134C1869.217,1723.281,1864.965,1723.313,1860.141,1722.753Z" transform="translate(-1840.414 -1699.514)"/></g><g transform="translate(63.735 241.684)"><path class="g" d="M2085.99,1665.345c-.218,3.014-4.47,3.05-9.295,2.5s-3.542.665-10.3.766-9.086-2.13-9.414-3.094c-.292-.856,2.961-1.58,6.441-2.432.438-.105.877-.217,1.316-.328,3.924-1,6.52-3.942,9.875-6.51,3.178-2.433,0-16.836,0-16.836l10.15-.988s-.487,12.127-.48,17.64c0,2.175,1,4.267,1.378,6.152A11.816,11.816,0,0,1,2085.99,1665.345Z" transform="translate(-2056.966 -1638.419)"/><path class="i" d="M2076.695,1724.887c-4.825-.555-3.542.665-10.3.766s-9.086-2.13-9.414-3.094c-.292-.856,2.961-1.581,6.441-2.432l.042.064a18.929,18.929,0,0,0,9.914,1.765c4.534-.459,9.158-2.356,12.286-2.7a11.817,11.817,0,0,1,.323,3.134C2085.772,1725.405,2081.52,1725.442,2076.695,1724.887Z" transform="translate(-2056.966 -1695.465)"/></g><path class="l" d="M2053.532,836.929c-1.747-7.187.786-10.534,3.071-12.316,1.085-2.645,2.322-4.552,3.586-5.271a12.944,12.944,0,0,1,7-1.34,3.278,3.278,0,0,0-1.478-.7c1.2-.178,3.876,1.011,3.876,1.011,16.678-6.427,19.3,18.131,18.949,23.837s-.3,12.424,8.376,16.919c16.556,8.577-5.5,40.9-5.5,40.9.421-4.611-20.852-28.941-31.951-36.228-2.7-3.978-3.662-11-3.734-11.557.466,5.571,1.42,8.7,2.271,10.456C2052.943,857.983,2052.193,846.8,2053.532,836.929Z" transform="translate(-1990.395 -817.249)"/><path class="g" d="M2077.319,937.044c-.056.025,5.359,2.836,9.431,1.722,3.831-1.044,6.334-6.012,6.281-6.023-1.623-.322-2.09-2.552-2.056-12.132l-.733.145-12.332,2.442s.281,3.881.289,7.537C2078.208,933.8,2078.022,936.716,2077.319,937.044Z" transform="translate(-2007.594 -890.19)"/><path class="o" d="M2079.331,923.545s.281,3.881.289,7.537c6.9-.194,10.548-6.49,12.042-9.979Z" transform="translate(-2009.014 -890.537)"/><path class="p" d="M1908.51,1345.666a3.026,3.026,0,0,0,2.742,3.941l4.817.225,5.1.156a4.094,4.094,0,0,0,3.3-1.506,143.316,143.316,0,0,0,24.19-45.8q.32-1.017.678-2.059c5.017-14.629,15.418-32.992,20.9-49.612.872-2.647,1.656-5.139,2.359-7.5.225-.755.445-1.5.653-2.228a176.326,176.326,0,0,0,6.287-33.094l-39.578.317A871.809,871.809,0,0,1,1908.51,1345.666Z" transform="translate(-1888.365 -1093.131)"/><path class="a" d="M2020.758,1009.016c.1,18.834-2.763,26.914-2.763,26.914a53.185,53.185,0,0,0,37.087,2.272c.237-.075,14.409-4.088,14.409-4.088-.337-.762-3.137-13.364-3.466-14.063-4.252-9.131-5.411-12.965-5.916-15.773a59.712,59.712,0,0,1-.49-15.779,126.589,126.589,0,0,1,4.884-24.779c-5.488-1.249-10.627-3.442-16.339-5.585-1.314,1.636-5.33,3.348-8.814,3.269-4.012-.088-5.313-1.806-5.1-3.681-4.275,2.379-7.687,4.626-7.687,4.626-3.634,6.312-11,12.441-11.537,22.123C2014.892,986.853,2020.755,1008.488,2020.758,1009.016Z" transform="translate(-1963.631 -916.38)"/><path class="q" d="M2135.907,1060.654c1.73,2.449,5.047,17.332,13.3,19.2-4.252-10.607-7.481-15.258-7.986-18.519a80.488,80.488,0,0,1-.49-18.328c-2.762-4.842-4.824-8.162-4.824-8.162-.217-.783-4.39-13.686-5.728-2.153S2133.975,1057.915,2135.907,1060.654Z" transform="translate(-2044.742 -965.918)"/><path class="g" d="M2058.463,875.107s16.327.269,16.338-9.9,2.125-16.985-8.3-17.587-12.453,3.276-13.282,6.67S2054.216,874.775,2058.463,875.107Z" transform="translate(-1990.45 -838.637)"/><path class="l" d="M2073.554,841.966s4.47,11.931,11.331,13.7,9.836-.074,9.836-.074a19.427,19.427,0,0,1-6.354-11.477S2076.926,836.287,2073.554,841.966Z" transform="translate(-2004.937 -833.233)"/><path class="l" d="M2057.5,845.548s-3.338,2.664-4.152,5.254-1.18,7.921-2.734,7.74c0,0-3.367-8.11.417-12.7C2055.042,840.979,2057.5,845.548,2057.5,845.548Z" transform="translate(-1987.772 -835.846)"/><path class="g" d="M1965.726,1176.414l-7.711,23.51,4.4,1.764,12.75-20.771Z" transform="translate(-1923.403 -1070.706)"/><path class="r" d="M2000.411,968.738s-9.092,3.608-11.724,9.233-6.616,43.358-8.2,47.234-2.78,6.943-2.78,6.943,4.584,3.863,9.2,4.147S2000.411,968.738,2000.411,968.738Z" transform="translate(-1937.297 -924.152)"/><path class="r" d="M2021.06,957.724s-9.446,23.336-9.724,28.059-1.111,77.228-1.111,77.228.556,3.334-5.834,1.945-8.056-2.778-8.056-2.778,6.112-44.726,4.445-60.283,12.779-40.929,12.779-40.929Z" transform="translate(-1950.444 -916.38)"/><path class="s" d="M1934.542,1418.578l5.534.17a3.2,3.2,0,0,0,2.566-1.159,142.839,142.839,0,0,0,24.485-46.159q.321-1.017.678-2.058c5.017-14.629,15.418-32.992,20.9-49.613.873-2.647,1.656-5.139,2.359-7.5q.338-1.133.653-2.228l-5.828-4.423s-17.5,28.336-22.916,55C1958.266,1383.776,1939.42,1411.647,1934.542,1418.578Z" transform="translate(-1906.838 -1161.878)"/><path class="p" d="M2097.608,1345.066c-.1,12.267.487,39.612,1.979,52.978a2.415,2.415,0,0,0,2.4,2.146h4.13c1.74,0,3.042-.013,3.908-.025a1.589,1.589,0,0,0,1.532-1.283c4.106-20.9,7.046-38.259,9.2-53.26,1.8-12.557,3.4-23.321,4.631-32.589,1.239-9.326,2.1-17.135,2.409-23.733.047-1.039.083-2.05.1-3.031s.025-1.945.017-2.875l-34.2-3.334C2094.149,1302.781,2097.663,1337.529,2097.608,1345.066Z" transform="translate(-2019.167 -1143.847)"/><path class="s" d="M2135.854,1422.344c1.563,0,2.773-.01,3.63-.022a1.928,1.928,0,0,0,1.863-1.556c4.079-20.777,7-38.055,9.144-52.991,1.8-12.557,3.4-23.321,4.631-32.589,1.239-9.326,2.1-17.135,2.409-23.732l-12.549,7.381s8.01,2.825,4.953,24.216S2140.107,1419.315,2135.854,1422.344Z" transform="translate(-2048.901 -1166.001)"/><path class="r" d="M2102.347,1062.762s2.408,8.7,10.742,7.592,20.185-6.111,20.185-6.111-3.561-11.254-7.99-26.039c-5.362-17.9-12-40.973-15.126-55.527a90.1,90.1,0,0,1-1.7-9.923l-6.914-13.415s-10.31,23.138-10.865,28.972S2102.347,1062.762,2102.347,1062.762Z" transform="translate(-2017.009 -917.52)"/><path class="g" d="M2081.4,987.442l-9.125-28.1c.025.011,11.525,3.422,17.311,6.345,0,0,3.616,4.661,5.854,15.417,0,0,2.364,25.822-2.915,35.267,0,0-16.668,3.334-43.337-5.834v-6.112s29.17,1.528,35.142,2.223Z" transform="translate(-1987.745 -917.52)"/><path class="t" d="M2131.6,1056.493c.372,9.445,2.595,27.78,22.411,37.594.052.025.105.053.158.075-5.362-17.9-12-40.973-15.126-55.527C2135.407,1044.075,2131.4,1051.292,2131.6,1056.493Z" transform="translate(-2045.897 -973.478)"/><path class="r" d="M2125.291,959.34s16.917,1.192,20.991,10.267,5.372,39.262.186,48.152c0,0-7.139,2.034-19.767-.328l-.467-.089s-4.028-9.862-.416-11.807c0,0,10.649.555,9.538-2.963S2125.291,959.34,2125.291,959.34Z" transform="translate(-2040.757 -917.52)"/><g transform="translate(40.114 82.045)"><path class="l" d="M1983.529,1104.649l.5,1.6,27.758-8.635a1.066,1.066,0,0,0,.188-.982.785.785,0,0,0-.686-.62Z" transform="translate(-1981.522 -1096.014)"/><path class="l" d="M1976.708,1126.866l2.008-1.513.5,1.6Z" transform="translate(-1976.708 -1116.718)"/></g><path class="g" d="M1941.564,1254.111s-7.041,3.891-7.968,6.856-.29,9.172.828,9.08,2.785-6.671,3.712-7.134,2.224-1.852,2.224-.834-.927,2.872-.464,3.15,1.946-2.593,2.965-3.15,1.448-5.138,2.438-6.368S1941.564,1254.111,1941.564,1254.111Z" transform="translate(-1905.857 -1125.535)"/><path class="g" d="M2010.979,1104.5s-6.3-3.878-8.939-3.281-9.374,5.473-6.136,6.529,5.861-.052,7.106.715,2.165,2.169,7.969,2.15S2010.979,1104.5,2010.979,1104.5Z" transform="translate(-1949.532 -1017.601)"/></g><g transform="translate(150.127 157.831)"><rect class="a" width="38.235" height="50.329" transform="matrix(-0.997, 0.082, -0.082, -0.997, 42.24, 50.159)"/><rect class="d" width="34.739" height="46.901" transform="matrix(-0.997, 0.082, -0.082, -0.997, 40.376, 48.539)"/><g transform="translate(6.573 25.005)"><rect class="j" width="18.109" height="0.297" transform="matrix(-0.997, 0.082, -0.082, -0.997, 18.073, 0.296)"/><rect class="j" width="18.109" height="0.297" transform="matrix(-0.997, 0.082, -0.082, -0.997, 18.186, 1.678)"/><rect class="j" width="18.109" height="0.297" transform="translate(18.302 3.077) rotate(175.289)"/></g><rect class="j" width="9.75" height="0.653" transform="matrix(-0.997, 0.082, -0.082, -0.997, 16.363, 21.422)"/><rect class="j" width="11.873" height="0.653" transform="matrix(-0.997, 0.082, -0.082, -0.997, 18.48, 22.947)"/><g transform="translate(27.679 18.835)"><rect class="a" width="8.331" height="8.331" transform="translate(8.987 8.303) rotate(175.288)"/><path class="i" d="M1031.081,1100.1l-1.982,3.266-3.069-4.706,3.322,2.555Z" transform="translate(-1024.213 -1096.728)"/></g><g transform="translate(7.921 41.487)"><rect class="j" width="18.109" height="0.297" transform="translate(18.073 0.296) rotate(175.289)"/><rect class="j" width="18.109" height="0.297" transform="translate(18.186 1.678) rotate(175.289)"/><rect class="j" width="18.109" height="0.297" transform="translate(18.302 3.076) rotate(175.289)"/></g><rect class="j" width="9.75" height="0.653" transform="translate(17.711 37.904) rotate(175.287)"/><rect class="j" width="11.873" height="0.653" transform="matrix(-0.997, 0.082, -0.082, -0.997, 19.827, 39.429)"/><g transform="translate(29.026 35.317)"><rect class="a" width="8.331" height="8.331" transform="translate(8.987 8.303) rotate(175.288)"/><path class="i" d="M1035.658,1156.1l-1.982,3.266-3.069-4.706,3.322,2.555Z" transform="translate(-1028.791 -1152.729)"/></g><g transform="translate(4.896 11.62)"><rect class="j" width="18.109" height="0.297" transform="translate(18.073 0.296) rotate(175.289)"/><rect class="j" width="18.109" height="0.297" transform="matrix(-0.997, 0.082, -0.082, -0.997, 18.186, 1.678)"/><rect class="j" width="18.109" height="0.297" transform="matrix(-0.997, 0.082, -0.082, -0.997, 18.302, 3.076)"/></g><rect class="j" width="9.75" height="0.653" transform="translate(14.686 8.037) rotate(175.289)"/><rect class="j" width="11.873" height="0.653" transform="translate(16.803 9.562) rotate(175.289)"/><g transform="translate(26.002 5.45)"><rect class="a" width="8.331" height="8.331" transform="translate(8.987 8.303) rotate(175.288)"/><path class="i" d="M1025.383,1054.625l-1.982,3.266-3.069-4.706,3.322,2.555Z" transform="translate(-1018.515 -1051.25)"/></g></g><g transform="translate(0 73.701)"><path class="g" d="M906.334,1054.169a15.88,15.88,0,0,0,1.851-2.278,7.079,7.079,0,0,1,1.46-1.13s.1,1.348.2,2.438a17.359,17.359,0,0,1,9.817-.513,3.6,3.6,0,0,1,2.364,1.556,1.589,1.589,0,0,1-.553,2.479c-2.453,1.525-1.742.611-5.15,2.832s-7.581,2.787-10.074,1.229l-3.345-.558-.415-5.5S904.4,1054.492,906.334,1054.169Z" transform="translate(-759.227 -959.957)"/><path class="g" d="M617.659,863.287s7.887,9.357,17.932,5.443c0,0,2.161-5.226,2.191-9.078,0-.474.009-.934.017-1.371.054-4.338.2-6.773.2-6.773l-.01,0c-.457-.191-15.355-6.307-15.343-5.8C622.9,857.441,617.659,863.287,617.659,863.287Z" transform="translate(-558.227 -815.234)"/><path class="o" d="M639.664,855.022c1.437,2.663,6.366,7.873,13.657,9.776.054-4.338.2-6.772.2-6.772l-.01,0C653.1,857.912,639.236,854.237,639.664,855.022Z" transform="translate(-573.748 -821.75)"/><path class="g" d="M645.612,797.749s-16.755,3.939-19.047-6.533-6-17.016,4.6-19.973,13.561.582,15.176,3.891S649.911,796.454,645.612,797.749Z" transform="translate(-562.72 -761.925)"/><path class="l" d="M606.665,774.383c-.229.147-3.834,1.254-10.661-12.347a11.846,11.846,0,0,1,.7-10.835c2.5-4.081,11.357-7.29,18.717-8.686s9.127,2.745,10.86,6.907c1.819,4.369,7.074,7.966,7.074,7.966-6.347,3.545-13.991-1.525-16.639-.692s-3.584,5.008-3.782,6.346-.5,2.45-3.834,1.255-1.506,4.719-.973,5.85C608.123,770.147,608.575,773.16,606.665,774.383Z" transform="translate(-542.246 -742.239)"/><g transform="translate(0 128.632)"><path class="u" d="M436.985,1678.648H426.84c-2.127,0-4.49-2.129-5.081-6.028s-4.963-6.028-5.91-9.219,3.9-7.684,3.9-7.684l.81-1.041.843-1.085,8.036,1.89s.2,1.914.322,4.351a55.666,55.666,0,0,1,.032,5.579c-.237,4.256,1.192,8.838,4.972,9.666S436.985,1678.648,436.985,1678.648Z" transform="translate(-415.726 -1513.996)"/><path class="u" d="M659.022,1703.625H632.13a2.416,2.416,0,0,1-.571-.165c-1.8-.9-1.233-7.773-1.017-9.9.041-.393.071-.624.071-.624s9.456-7.563,10.757-1.772c.042.18.089.358.139.532v0c1.641,5.419,8.98,7.88,13.218,8.566C657.966,1700.795,658.806,1702.682,659.022,1703.625Z" transform="translate(-567.138 -1538.974)"/><path class="r" d="M613.3,1205.871s-1.436,17.918-3.124,39.456c-2.294,29.258-5.053,65.2-5.326,72-.471,11.822-2.365,30.733-2.365,30.733s-4.489,4.493-13.474,2.6c0,0-8.007-27-10.294-55.558-.036-.468-.071-.94-.106-1.412-2.128-29.077-5.436-90.3-5.436-90.3Z" transform="translate(-526.832 -1196.297)"/><path class="t" d="M613.3,1205.871s-1.436,17.918-3.124,39.456l-31.46,49.779c-.036-.468-.071-.94-.106-1.412-2.128-29.077-5.436-90.3-5.436-90.3Z" transform="translate(-526.832 -1196.297)"/><path class="r" d="M505.277,1190.995s-25.885,64.891-42.906,95.386-22.34,39.005-22.34,39.005-9.751-3.9-10.638-6.56c0,0,6.509-58.873,17.907-73.224,6.441-8.109,14.007-32.446,14.361-40.956s2.305-25.354,2.305-25.354Z" transform="translate(-425.371 -1179.293)"/></g><g transform="translate(12.178 49.09)"><path class="g" d="M465.8,1175.332l-.274,4.174a8.992,8.992,0,0,1-4.96,11.217s-3.3,1.332-3.435-1.238.289-1.6.021-5.222,1.154-7.039,3.548-8.191l1.964-2.266Z" transform="translate(-457.105 -1095.878)"/><path class="s" d="M467.868,991.525c2.865.92,3.324.712,3.324.712s13.945-25.389,15.358-27.714,29.608-28.471,29.608-28.471l-7.246-27.02s-32.069,41.528-35.533,47.487c-5.723,9.847-9.076,32.717-9.076,32.717A8.388,8.388,0,0,0,467.868,991.525Z" transform="translate(-462.185 -909.033)"/></g><path class="p" d="M595.19,932.175c-.1,5.548-.423,11.787-.858,18.122q-.04.563-.08,1.127c-.278,3.925-1.47,17.614-1.532,18.167-1.414,14.369-2.9,25.721-3.171,25.9a1.613,1.613,0,0,1-1.1.281c-3.768-.473-15.011.381-24.215-1.621-7.767-1.639-14.455-4.744-21.542-8.932-.94-.556-3.085-2.029-2.91-3.129.172-1.209.488-2.958.89-5.155a278.983,278.983,0,0,0,4.629-36.177q.24-4.3.695-8.48a128.761,128.761,0,0,1,3.753-20.252c3.156-11.364,7.794-20.065,13.612-23.47.76-.426,4.851,2.177,8.607,4.588a16.586,16.586,0,0,0,10.675,2.529l3.126,3.458c3.786,4.4,7.817,10.26,8.918,18.59q.124.923.213,1.964A122.1,122.1,0,0,1,595.19,932.175Z" transform="translate(-503.261 -845.456)"/><path class="s" d="M666.268,991.624c-.1,5.548-.423,11.787-.858,18.122q-.04.563-.08,1.127c-21.524-13.473-24.839-38.126-24.839-38.126,10.589.464,19,2.9,25.484,6.38A122.158,122.158,0,0,1,666.268,991.624Z" transform="translate(-574.339 -904.905)"/><path class="p" d="M698.355,967.083c.222-3.192-1.431-3.723-1.431-3.723s-32.453-5.881-35.211-6.749S635.364,931.2,635.364,931.2s-9.042-10.2-16.446-7.945c-6.434,1.957-8.949,6.975-9.8,11.756a14.083,14.083,0,0,0,6.539,14.456c11.075,6.793,33.247,20.177,38.468,21.708,11.622,3.407,42.847.273,42.847.273A10.078,10.078,0,0,0,698.355,967.083Z" transform="translate(-552.042 -869.751)"/></g><g transform="translate(123.346 98.075)"><path class="b" d="M863.637,853.873H834.82V825.055h28.817Zm-27.62-1.2H862.44V826.252H836.018Z" transform="translate(-834.82 -825.055)"/><path class="b" d="M851.227,843.851l9.373,12.921,11.166-20.65L858.81,847.9Z" transform="translate(-846.398 -832.864)"/></g><g transform="translate(165.87 63.236)"><g transform="translate(0 0)"><path class="b" d="M1008.121,735.5H979.3V706.683h28.818Zm-27.62-1.2h26.423V707.88H980.5Z" transform="translate(-979.304 -706.683)"/></g><path class="b" d="M995.711,725.479l9.373,12.921,11.166-20.65-12.956,11.778Z" transform="translate(-990.882 -714.492)"/></g><g transform="translate(555.555 140.735)"><path class="g" d="M2583.865,1104.142s-.662-6.572,2.776-6.347,4.347,1.8,3.964,3.065-3.727,5.442-3.727,5.442Z" transform="translate(-2501.264 -1060.179)"/><path class="r" d="M2450.2,1151.819c-6,.24-18.015-3.281-22.549-5.144a90.513,90.513,0,0,1-11.211-5.516q-1.281-.744-2.441-1.478c-8.181-5.161-11.989-9.632-11.989-9.632s15.334-13.257,21.519-9.786c7.256,4.074,19.768,17.236,21.88,15.885,2.38-1.522,9.02-20.176,9.02-20.176,4.372-.833,5.318,2.474,5.318,2.474S2458.709,1151.478,2450.2,1151.819Z" transform="translate(-2372.966 -1072.916)"/><path class="i" d="M2479.387,1704.641s-.628,7.271.908,8.027l19.669-.04s0-2.27-3.159-2.774-8.709-2.354-9.648-6.474S2479.387,1704.641,2479.387,1704.641Z" transform="translate(-2427.482 -1486.438)"/><path class="p" d="M2468.795,1357.781c-.1,4.754-.326,9.658-.773,14.066-2.125,20.913-2.871,46.182-3.176,51.054-.529,8.457-2.2,21.968-2.2,21.968s-3.314,3.146-9.773,1.644a219.929,219.929,0,0,1-6.547-39.948q-.027-.5-.054-1.012c-.138-2.709-.284-5.806-.432-9.146-.984-22.371-2.053-55.605-2.053-55.605l24.683-5.8S2469.037,1345.928,2468.795,1357.781Z" transform="translate(-2402.449 -1227.578)"/><path class="i" d="M2468.795,1357.781c-6.255,10.792-18.179,30.675-22.955,38.625-.984-22.371-2.053-55.605-2.053-55.605l24.683-5.8S2469.037,1345.928,2468.795,1357.781Z" transform="translate(-2402.449 -1227.578)"/><path class="g" d="M2350.695,1399.562s-1.532,6.008-1.281,7.343,1.747,5.856,2.679,6.978.971-4.876,1.591-5.818.284,2.239.781,2.5,1.326-2.41,1.695-3.356-1.326-4.242-1.482-6.6S2350.695,1399.562,2350.695,1399.562Z" transform="translate(-2335.833 -1272.876)"/><path class="i" d="M2306.242,1679.683s-3.5,3.2-2.818,5.465,3.842,3.783,4.27,6.558,2.135,4.288,3.671,4.288h7.328s1.131-1.952-1.6-2.541-3.763-3.849-3.592-6.876a53.31,53.31,0,0,0-.256-7.062l-5.806-1.345Z" transform="translate(-2303.336 -1469.744)"/><path class="p" d="M2372.434,1338.407s-23.105,49.437-35.4,71.129-16.138,27.745-16.138,27.745-7.044-2.774-7.685-4.666c0,0,4.7-41.877,12.937-52.085,4.653-5.768,10.118-23.079,10.374-29.132s5.654-20.5,5.654-20.5Z" transform="translate(-2310.303 -1224.678)"/><path class="r" d="M2417.007,1185.85a40.041,40.041,0,0,1-20.309,10.543c-5.611,1.074-17,2.112-19.825-1.883-.663-.938-.669-2.327-.522-4.495.38-5.635,1.8-16.529-4.6-38.423a37.371,37.371,0,0,1-1.231-5.851c-1.4-11.2,3.327-19.15,8.874-22.7,13.526-8.652,20.136-2.676,20.136-2.676s7.744,3.619,11.282,14.164C2417.886,1155.627,2417.007,1185.85,2417.007,1185.85Z" transform="translate(-2350.571 -1074.694)"/><path class="g" d="M2414.947,1089.156s7.743,2.511,14.807-.393c0,0,1.364-.713.246-2.248a22.388,22.388,0,0,0,.113-2.427,35.3,35.3,0,0,0-.039-3.907l-5.2-3.39-4.937-3.248C2421.215,1083.8,2414.947,1089.156,2414.947,1089.156Z" transform="translate(-2382.098 -1043.069)"/><path class="v" d="M2432.8,1085.274s3.7,5.521,9.913,6.6c.086-2.5-.079-5.063-.079-5.063l-5.164-2.234Z" transform="translate(-2394.694 -1050.857)"/><path class="g" d="M2437.558,1042.925s-12.534,4.678-15.323-3.045-6.285-12.32,1.6-15.634,10.513-.922,12.081,1.428S2440.747,1041.509,2437.558,1042.925Z" transform="translate(-2384.959 -1007.132)"/><path class="u" d="M2400.947,1012.913c-.145-.112-.436-.167-1.047-.081a2.49,2.49,0,0,1,1.065-.54,3.094,3.094,0,0,1,1.487-3.084,1.845,1.845,0,0,0-.62,1.479c1.333-2.049,4.671-4.007,14.753-5.185,13.286-1.552,10.629,7.676,9.133,9.009s-6.3-.562-9.406.312-2.805,5.552-3.752,6.39-.744-.353-2.322-.721-1.242,2.059-.515,3.537-.857,3.929-.857,3.929l-2.439-1.769c-2.439-1.769-6.147-10.568-5.619-12.7C2400.854,1013.3,2400.9,1013.1,2400.947,1012.913Z" transform="translate(-2371.479 -994.93)"/><path class="t" d="M2376.945,1254.7c.38-5.635,1.8-16.529-4.6-38.423a37.375,37.375,0,0,1-1.231-5.852h0c4.755-1.569,13.418,1.919,13.418,1.919S2386.569,1241.283,2376.945,1254.7Z" transform="translate(-2351.165 -1139.377)"/><path class="r" d="M2353.507,1133.069a31.115,31.115,0,0,0-13.172,17.962c-2.751,10.162-7,25.278-7.517,30.005s5.189,32.4,5.189,32.4a3.713,3.713,0,0,0,2.774.192,4.579,4.579,0,0,0,2.763-1.652s1.364-18.446,1.011-27.156c-.146-3.619,16.752-26.5,25.872-29.45C2374.009,1154.216,2353.507,1133.069,2353.507,1133.069Z" transform="translate(-2324.118 -1085.076)"/><path class="t" d="M2414.739,1110.7s-1.638.8-4.817,5.029c0,0,5.918,7.423,14.461,6.454a28.536,28.536,0,0,1-1-6.29S2416.242,1115.094,2414.739,1110.7Z" transform="translate(-2378.552 -1069.288)"/><path class="t" d="M2455.662,1120.776s4.563,1.191,5.658,4.472c0,0,.967-2.822.115-4.415a14.227,14.227,0,0,0-2.7-3.212S2459.355,1119.636,2455.662,1120.776Z" transform="translate(-2410.83 -1074.174)"/><g transform="translate(64.152 0)"><path class="a" d="M2571.458,999.374a194.612,194.612,0,0,0-36.425,3.112L2533,997.349l-2.235-5.628s19.59-8.434,31.367-20.178Z" transform="translate(-2527.977 -971.089)"/><path class="t" d="M2636.423,970.182l9.708,28.659h0a2.583,2.583,0,0,0,1.7-3.34l-8.545-24.08a2.131,2.131,0,0,0-2.865-1.239Z" transform="translate(-2602.541 -970.001)"/><path class="w" d="M2576.818,1058.222a194.62,194.62,0,0,0-36.424,3.112l-2.039-5.137C2556.69,1052.452,2576.818,1058.222,2576.818,1058.222Z" transform="translate(-2533.336 -1029.936)"/><path class="t" d="M2533.756,1042.835l-5.283.929c.08,0-4.908.971-6.544-3.451a3.594,3.594,0,0,1-.314-.954c-1.271-5.512,1.756-6.527,1.756-6.527l6.8-2.65,2.16,7.646v.027Z" transform="translate(-2521.303 -1012.47)"/><path class="r" d="M2535.255,1061.168l-5.284.929c.081,0-4.908.971-6.543-3.451,2.99-2.174,10.4-2.485,10.4-2.485v.027Z" transform="translate(-2522.803 -1030.803)"/><path class="w" d="M2586.882,1081.86h0a3.511,3.511,0,0,1-4.119-2.746l-3.343-16.726a3.511,3.511,0,0,1,2.746-4.118h0a3.511,3.511,0,0,1,4.118,2.747l3.343,16.726A3.51,3.51,0,0,1,2586.882,1081.86Z" transform="translate(-2562.268 -1032.243)"/></g><path class="g" d="M2598.2,1083.2s-2.585,1.03-2.111,2.168,3.76,2.7,4.28,1.805S2599.826,1082.242,2598.2,1083.2Z" transform="translate(-2509.886 -1049.782)"/><path class="g" d="M2582.078,1101.4a36.288,36.288,0,0,1-.518-3.859c-.031-1.215-.382-2.133-.1-2.167s.444.177.561.568l.823,2.751-.226,2.339Z" transform="translate(-2499.528 -1058.47)"/></g></svg>