<svg xmlns="http://www.w3.org/2000/svg" width="215.768" height="234.2" viewBox="0 0 215.768 234.2"><defs><style>.a{fill:#afcdfb;}.b{fill:#bed1f9;}.c{fill:#fb9390;}.d{fill:#0b0754;}.e{fill:#e8605d;}.f{fill:#fa7167;}.g{fill:#ef7f7f;}.h{fill:#e3f0ff;}.i{fill:#95b3ef;}</style></defs><g transform="translate(113.057 73.363)"><path class="a" d="M1332.889,1023.933l12.419,12.419s23.65,9.248,26.292,14.929-2.378,5.417-7.927,4.624-21.271-10.569-21.271-10.569l-14.4-16.647Z" transform="translate(-1328.001 -1023.933)"/><path class="b" d="M1452.777,1122.135l-3.072-1.09-5.946,2.775s-3.072,2.081-4.558,7.233,0,35.97,2.477,40.924S1452.777,1122.135,1452.777,1122.135Z" transform="translate(-1411.538 -1097.278)"/><path class="c" d="M1576.187,1612.237s2.184,1.406,2.363,2.054,1.781,7.65,1.181,8.461-2.794.419-1.941,1.01c.644.447,4.8.788,7.449.072.775-.209.421-6.755.534-7.752.166-1.448,1.169-4.735.56-5.592a12.8,12.8,0,0,0-3.533-1.749,12.679,12.679,0,0,1-3.4-2.406Z" transform="translate(-1515.446 -1463.796)"/><path class="d" d="M1585.616,1615.941s-1.29,12.422-2.8,13.34c-.4.244-2.524.425-2.719,1.44-.005.025-.049,1.041.595,1.065l8.051-.025s.084-6.108.033-8.5c0,0,1.112-6.108.749-6.565S1585.616,1615.941,1585.616,1615.941Z" transform="translate(-1518.397 -1471.052)"/><path class="c" d="M1704.936,1612.237s2.184,1.406,2.363,2.054,1.781,7.65,1.182,8.461-2.794.419-1.942,1.01c.644.447,4.8.788,7.449.072.774-.209.421-6.755.535-7.752.165-1.448,1.168-4.735.56-5.592a12.794,12.794,0,0,0-3.533-1.749,12.684,12.684,0,0,1-3.4-2.406Z" transform="translate(-1612.684 -1463.796)"/><path class="e" d="M1494.154,1300.577s7.362,14.619,8.871,18.544l11.219,28.464,24.743,29.106s-1.811,4.676-4.55,5.93c0,0-29.832-24.088-32.285-27.882-3.74-5.783-20.772-41.215-20.772-41.215l-3.166-6.815Z" transform="translate(-1441.449 -1232.87)"/><path class="f" d="M1457.349,1286.35l.118,12.466s-5.326,40.718-4.294,43.137c2.517,5.9,30.189,25.9,30.189,25.9l3.766-6.474-19.884-22.2,7.53-21.6c2.108-5.018,6.589-14.714,6.476-20.155-.1-4.663-9.341-15.476-9.341-15.476Z" transform="translate(-1422.438 -1218.798)"/><path class="a" d="M1461.823,1182.453c7.332-1.665,13.265-4.256,13.873-6.3.275-.925-3.813-10.225-6.822-22.644-.982-4.054-.806-7.863-2.378-22.064-.334-3.012-1.582-9.326-6.246-10.954a7,7,0,0,0-2.553-.5c-.039.007-5.935.046-8.632,1.544-.665.9-3.147,5.847-3.807,19.323-.288,5.884-1.463,24.775-1.222,27.844q.054.683.137,1.323C1445.228,1178.179,1453.8,1184.274,1461.823,1182.453Z" transform="translate(-1415.612 -1096.479)"/><path class="c" d="M1463.861,1109.782c.005,0,.012,0,.021,0,2.988-.33,10.506-10.179,10.506-10.179l-.016-.027-4.639-7.346s-6.833,1.244-5.5,3.325,2.086,7.07,2.086,7.07c-.023.057-.052.126-.094.208A24.8,24.8,0,0,0,1463.861,1109.782Z" transform="translate(-1430.61 -1075.513)"/><path class="g" d="M1464.869,1095.553c-1.337-2.079,5.5-3.323,5.5-3.323l.386.612a3.982,3.982,0,0,1-.192,1.394,8.929,8.929,0,0,1-4.355,4.8A13.237,13.237,0,0,0,1464.869,1095.553Z" transform="translate(-1431.241 -1075.515)"/><g transform="translate(25.53 1.064)"><path class="c" d="M1444.3,1042.454c.148-.14,5.329,8.383,4.085,11.892s-5.431,6.308-7.917,5.056c-2.75-1.385-6.908-11.16-4.4-15.306S1444.3,1042.454,1444.3,1042.454Z" transform="translate(-1434.568 -1038.42)"/><path class="d" d="M1434.547,1028.491a17.4,17.4,0,0,1,11.565,2.4,7.98,7.98,0,0,1,2.2,10.44,6.269,6.269,0,0,0-.676,5.345s-5.3-.333-6.374-3.941c-.45-1.514.11-2.539-.908-3.393-.784-.658-1.444-2.57-2.221-4.108,0,0-3.419-1.818-4.721-.321C1432.962,1035.428,1430.635,1029.332,1434.547,1028.491Z" transform="translate(-1432.315 -1028.282)"/><path class="c" d="M1462.131,1068.285c.464,1.113,1.364,1.8,2.012,1.528s.8-1.39.332-2.5-1.364-1.8-2.011-1.528S1461.668,1067.171,1462.131,1068.285Z" transform="translate(-1454.63 -1056.559)"/></g><path class="d" d="M1714.4,1616s-1.324,12.408-2.833,13.326c-.4.243-2.524.425-2.719,1.439-.005.025-.066,1.073.594,1.057l8.043-.016s.093-6.108.041-8.5c0,0,1.112-6.108.749-6.565S1714.4,1616,1714.4,1616Z" transform="translate(-1615.633 -1471.096)"/></g><g transform="translate(0)"><path class="h" d="M848.633,782.37c-5.731-11.99-7.306-29.883-1.059-44.075,10.531-23.955,39.507-33.731,37.373-60.88a21.985,21.985,0,0,0-8.061-15.877c-11.794-9.313-30.769-4.384-44.313,2.119a84.871,84.871,0,0,0-24.1,17.68l-3.768-47.95c16.257-11.536,35.929-17.568,55.563-19.111,40.234-3.162,71.3,11.929,74.465,52.173,2.884,36.7-21.92,52.964-38.559,71.313-9.236,10.185-11.323,18.031-10.609,27.118.369,4.7,2.132,10.5,4.964,14.2Zm28.889,65.57c-39.108,3.073-43.637-49.466-4.131-52.571C912.305,792.312,916.48,844.879,877.522,847.94Z" transform="translate(-804.707 -613.87)"/></g><path class="c" d="M1285.088,1005.386a9.413,9.413,0,0,0-.337-2.968,5.449,5.449,0,0,0-1.067-2.181,5,5,0,0,0-.99-.865.5.5,0,0,0-.79.463c.1.275.615,1.224.715,1.5s.145.949-.083,1.173-3.84-3.919-4.064-4.281a14.338,14.338,0,0,1-.619-1.656s-.315-.981-.7-.731c-.251.163-.528.971.2,2.562.633,1.39,1.509,2.5,1.409,2.582-.26.214-1.828-1.664-1.828-1.664a8.261,8.261,0,0,0-.918-1.419c-.234-.7-.659-1.56-1.1-1.222a9.03,9.03,0,0,0,.213,1.545s.548.98.781,1.463c.411.851,1.348,1.884,1.669,2.438.268.461.008.354-.013.409a12.132,12.132,0,0,1-1.038-1.23,10.21,10.21,0,0,1-1.034-1.241,12.3,12.3,0,0,0-1.025-1.383c-.813-.97-1.245-.311-.626.712.236.389.5.812.76,1.238,1.03,1.659,2.3,2.956,2.176,3.113-.16.2-2.343-2.3-2.343-2.3s-1.539-1.026-.623.484a15.48,15.48,0,0,0,2.265,2.918,14.651,14.651,0,0,0,2.747,2.7c1.419.9,3.72,2.267,3.72,2.267.264.319.938,1.357,1.87,2.823l3.44-4.14A26.912,26.912,0,0,1,1285.088,1005.386Z" transform="translate(-1173.792 -929.32)"/><path class="i" d="M1309.718,1045.987l4.756-4.162,16.333,16.118s25.285,2.217,25.351,2.235l1.013.317c9.172,3.168,5.4,10.653,3.629,11.811-4.117,2.7-26.979,1.081-34.3-3.463C1320.467,1065.1,1309.718,1045.987,1309.718,1045.987Z" transform="translate(-1201.136 -964.083)"/></svg>