<svg xmlns="http://www.w3.org/2000/svg" width="296.686" height="198.343" viewBox="0 0 296.686 198.343"><defs><style>.a,.c{fill:#fff;}.a{stroke:#afcdfb;}.b{fill:#f37168;}.d{fill:#ffb27d;}.e{fill:#95b3ef;}.f{fill:#1c4b8e;}.g{fill:#d34a42;}.h{fill:#afcdfb;}.i{fill:#fca56b;}.j{fill:#163560;}.k{fill:#3b6ba5;}.l{fill:#739af0;}.m{opacity:0.5;}.n{fill:#b3cff9;}</style></defs><g transform="translate(-834.065 -799.94)"><path class="a" d="M1130.252,849.671a18.218,18.218,0,0,1-5.182,12.756,17.372,17.372,0,0,1-12.456,5.3h-205.5c-10.489,0-19.07-8.128-19.07-18.061a17.529,17.529,0,0,1,5.6-12.754,19.546,19.546,0,0,1,13.468-5.3h205.5A17.9,17.9,0,0,1,1130.252,849.671Z" transform="translate(0)"/><path class="b" d="M1880.687,849.671a18.218,18.218,0,0,1-5.182,12.756,17.372,17.372,0,0,1-12.456,5.3h-37.187v-36.12h37.187A17.9,17.9,0,0,1,1880.687,849.671Z" transform="translate(-750.435)"/><g transform="translate(1086.038 837.829)"><g transform="translate(11.458)"><path class="c" d="M1945.536,881.134a9.323,9.323,0,0,1-1.378-.1,9.2,9.2,0,0,1-4.118-16.5h0a9.2,9.2,0,1,1,5.5,16.6Zm-4.594-15.385a7.688,7.688,0,1,0,10.754,1.6,7.7,7.7,0,0,0-10.754-1.6Z" transform="translate(-1936.316 -862.727)"/></g><rect class="c" width="1.516" height="12.561" transform="translate(13.42 13.617) rotate(53.492)"/><path class="c" d="M1879.236,958.058h0a1.353,1.353,0,0,1,.283-1.893l5.946-4.4a1.354,1.354,0,0,1,1.893.282h0a1.354,1.354,0,0,1-.283,1.893l-5.946,4.4A1.353,1.353,0,0,1,1879.236,958.058Z" transform="translate(-1878.97 -933.761)"/></g></g><g transform="translate(-517.676 -1035.065)"><path class="d" d="M790.093,1204.958s.683-1.536,1.126-2.264,2.333-2.859,2.655-2.377,1.609,3.731.925,4.641.044,2.492-3.357,3.451Z" transform="translate(-203.523 -123.407)"/><path class="e" d="M640.662,1180.512s17.408,14.531,24.2,13.186a133.882,133.882,0,0,0,13.454-3.845l1.629,4.167s-7.305,9.91-14.922,9.975a43.387,43.387,0,0,1-20.7-5.154Z" transform="translate(-91.883 -108.663)"/><path class="f" d="M519.942,1778.826s.505,8.152,2.083,8.269c.21.016,8,.016,8,.016l9.944-.057a3.227,3.227,0,0,0-2.972-2.9c-2.907-.507-7.772-2.549-9.532-6.391C525.611,1773.718,519.942,1778.826,519.942,1778.826Z" transform="translate(-1.693 -553.703)"/><path class="b" d="M517.676,1491.5a20.729,20.729,0,0,0,5.383,1.011,19.767,19.767,0,0,0,5.025-.717s.569-5.5,3.7-17.63c1.642-6.356,3.987-14.528,7.323-24.683,9.224-28.065,12.028-44.483,12.284-46.038.014-.082.019-.122.019-.122l-.03-.014-28.357-12.45s3.5,38.68-.967,53.527a62.544,62.544,0,0,0-1.623,7.113C517.61,1467.624,517.676,1491.5,517.676,1491.5Z" transform="translate(0 -265.812)"/><path class="g" d="M544.647,1474.165c1.642-6.356,3.987-14.528,7.323-24.683,9.224-28.065,12.028-44.483,12.284-46.038,0-.047-.006-.09-.011-.136l-28.357-12.45s3.505,38.68-.967,53.527C534.294,1446.459,544.647,1474.165,544.647,1474.165Z" transform="translate(-12.863 -265.812)"/><path class="f" d="M607.517,1778.826s.505,8.152,2.082,8.269c.21.016,8,.016,8,.016l9.944-.057a3.227,3.227,0,0,0-2.972-2.9c-2.907-.507-7.771-2.549-9.532-6.391C613.186,1773.718,607.517,1778.826,607.517,1778.826Z" transform="translate(-67.12 -553.703)"/><path class="b" d="M582.023,1394.461a403.706,403.706,0,0,1-3.969,55.841c-4.337,30.775-2.867,43.839-2.867,43.839a29.542,29.542,0,0,1-4.182,1.064,18.974,18.974,0,0,1-6.2-.718s-6.207-30.787-4.428-46.191-8.5-52.857-8.5-52.857Z" transform="translate(-25.55 -268.504)"/><path class="d" d="M591.582,1125.927l5.535,3.63,5.042-1.426c.922-1.315,1.166-3.849,1.179-6.045a37.583,37.583,0,0,0-.2-4.026l-7.468-3.3-2.787-1.228c.008.043.217,2.288.247,2.616A19.064,19.064,0,0,1,591.582,1125.927Z" transform="translate(-55.215 -58.626)"/><path class="h" d="M568.354,1221.943c-6.89,6.652-32.964,5.533-34.571-1.8s1.752-62.39,13.521-65.848c2.442-.718,15.5,3.5,15.5,3.5a82.786,82.786,0,0,1,3.392,12.183c.26,1.329,1.022,15.4,1.592,28.563.266,6.156.491,12.116.605,16.479A47.592,47.592,0,0,1,568.354,1221.943Z" transform="translate(-11.754 -89.018)"/><path class="i" d="M599.293,1119.881c1.515,2.562,6.831,4.8,9.647,5.831a37.537,37.537,0,0,0-.2-4.026l-7.468-3.3C599.624,1118.369,598.618,1118.737,599.293,1119.881Z" transform="translate(-60.817 -62.252)"/><path class="d" d="M598.852,1071.124s-12.033,3.754-14.255-3.776-5.272-12.116,2.317-14.83,9.936-.285,11.289,2.048S601.924,1069.954,598.852,1071.124Z" transform="translate(-48.11 -12.144)"/><path class="j" d="M582.266,1041.7s-.767,8.762-2.579,8.381-3.807-1.194-3.541,1.447-1.762,7.169-4.375,7.158c-5.6-.023-11.692-14.4-10.158-17.129C566.039,1033.687,588.663,1032.1,582.266,1041.7Z" transform="translate(-32.645)"/><path class="e" d="M600.655,1144.378c-.155-.065-8.958-4.014-9.987-3.674s-2.313,3.484-2.313,3.484l15.5,3.5A7.7,7.7,0,0,0,600.655,1144.378Z" transform="translate(-52.804 -78.907)"/><g transform="translate(548.692 1040.613)"><path class="k" d="M694.277,1309.965l-49.343,46.457c-.967.91-2.187,1.2-2.71.645l-1.666-1.769c-.523-.556-.16-1.756.807-2.667l49.342-46.456c.967-.91,2.187-1.2,2.71-.645l1.666,1.769C695.608,1307.855,695.245,1309.055,694.277,1309.965Z" transform="translate(-640.319 -1242.466)"/><path class="l" d="M666.587,1415.79l-21.653,20.387c-.967.91-2.187,1.2-2.71.645l-1.666-1.769c-.523-.556-.16-1.756.807-2.667L663.018,1412Z" transform="translate(-640.319 -1322.22)"/><path class="k" d="M803.876,1106.964a38.675,38.675,0,1,0,64.1-38.866c-.2-.2-.4-.393-.607-.585a38.677,38.677,0,0,0-63.495,39.451Zm11.054-35.694a35.623,35.623,0,1,1,1.534,50.354A35.579,35.579,0,0,1,814.93,1071.27Z" transform="translate(-761.259 -1057.005)"/><g class="m" transform="translate(43.992 3.054)"><path class="n" d="M875.833,1129.107a35.623,35.623,0,1,1-1.535-50.351A35.476,35.476,0,0,1,875.833,1129.107Z" transform="translate(-814.268 -1069.079)"/></g></g><path class="e" d="M597.968,1261.059c-27.188-19.374-24.927-45.226-24.927-45.226,9.937,5.6,19.8,18,24.322,28.747C597.628,1250.736,597.853,1256.7,597.968,1261.059Z" transform="translate(-41.329 -135.052)"/><g transform="translate(531.145 1068.785)"><path class="d" d="M768.228,1353.438a7.424,7.424,0,0,0,3.472-2.145s.818.056-.134,1.8c-.08.146-.256.521-.39.786a.169.169,0,0,0,.142.243c1.106.084,2.219-.354,4.35.091.294.061.38.766.368,1.066a2.722,2.722,0,0,1-.573,1.857c-.343.453-1.3.94-3.435,1.8-.813.327-3.137.081-5.316-.668l-1.74-.806.54-3.235.437.092C766.643,1354.464,767.5,1353.616,768.228,1353.438Z" transform="translate(-715.9 -1305.038)"/><path class="h" d="M579.939,1168.4s-24.429,4.651,7.187,40.028c5.057,5.658,32.376,13.025,32.376,13.025s2.771-2.357,1.374-4.266c0,0-18.81-13.659-22.949-15.831-1.862-.977-7.226-21.8-10.261-26.816A13.681,13.681,0,0,0,579.939,1168.4Z" transform="translate(-570.934 -1168.397)"/></g><path class="d" d="M792.711,1202.983a12.429,12.429,0,0,0,.955-2.332,12.884,12.884,0,0,1,1.577-3.569c.166-.166.713.049.777.76a4.133,4.133,0,0,1-.392,1.545,17.407,17.407,0,0,0-.517,3.07C794.733,1203.689,792.711,1202.983,792.711,1202.983Z" transform="translate(-205.479 -121.003)"/></g></svg>