<svg xmlns="http://www.w3.org/2000/svg" width="287.015" height="208.891" viewBox="0 0 287.015 208.891"><defs><style>.a{fill:#2c3a64;}.b{fill:#2b478b;}.c{fill:#233862;}.d{fill:#ffb27d;}.e{fill:#ed985f;}.f{fill:#f37168;}.g{fill:#ed7d2b;}.h{fill:#fff;}.i{fill:#e3f0ff;}.j{fill:#b64c41;}.k{fill:#2f5196;}.l{fill:#ee9849;}.m{fill:#e58638;}.n{fill:#ff9843;}.o{fill:#b56f40;}.p{fill:#99592e;}.q{fill:#74acbe;}</style></defs><g transform="translate(0 23.279)"><path class="a" d="M472.938,602.617c-.08-.44-1.114-5.155-8.408-4.351,0,0,3.631-.092,4.475,1.387,0,0-2.712-1.586-4.6-.675s-2.548,4.546-2.394,5.689,1.787,4.659,3.089,4.789a3.87,3.87,0,0,0,1.521-.219,17.307,17.307,0,0,0-.722,1.881c-2.033,6.365,1.8,11.742,4.156,10.745,1.513-.64,2.347,1.979,2.347,1.979l13.482-14.586S478.586,598.461,472.938,602.617Z" transform="translate(-448.698 -598.174)"/><path class="b" d="M494.355,972.509l-3.279,1.221s-14.242-19.753-16-37.133a26.383,26.383,0,0,1,.469-8.885s-.14-.795-.383-2.2c-.113-.656-.252-1.446-.41-2.35-.463-2.653-1.1-6.283-1.828-10.416-1.676-9.512-3.847-21.671-5.534-30.609l.884-.284,9.559-3.084,1.976-6.275,7.118-1.874s1.59,3.111,3.012,17.8c.263,1.927.5,4.053.68,6.358a125.864,125.864,0,0,1-.678,25.74q-.49,3.831-1.25,7.9a35.253,35.253,0,0,0-.273,7.8C489.14,950.43,494.355,972.509,494.355,972.509Z" transform="translate(-452.551 -792.402)"/><path class="c" d="M490.623,894.782l-15.457,30.73c-.113-.656-.252-1.446-.41-2.35-.463-2.653-1.1-6.283-1.828-10.416-1.676-9.512-3.847-21.671-5.534-30.609l.884-.284,9.559-3.084,1.976-6.275,7.118-1.874s1.59,3.111,3.012,17.8C490.205,890.352,490.443,892.478,490.623,894.782Z" transform="translate(-452.551 -792.402)"/><path class="b" d="M448.348,865.687l-.358-3.068c-5.995,1.592-22.012-4.449-22.012-4.449s-5.807,5.105-5.045,17.342c.372,5.973,1.052,31.353,1.762,38.863.257,2.722.481,4.659.573,5.433a.013.013,0,0,1,0,.008,1.075,1.075,0,0,1-.175.665,35.282,35.282,0,0,0-2.621,5.511c-6.969,18.571,1.073,41.442,1.073,41.442l2.087-.841s4.576-25.452,8.3-36.7a22.262,22.262,0,0,1,1.791-4.3c1.617-2.609,3.117-6.873,4.479-11.944a293.742,293.742,0,0,0,6.025-31.688C444.416,881.97,448.348,865.687,448.348,865.687Z" transform="translate(-417.076 -783.526)"/><path class="d" d="M527.388,750.49a4.12,4.12,0,0,0,.165.483c2.341,6.6,6.514,13.53,9.359,16.059,1.868,1.672,7,3.406,11.368,4.647,2.9.849,5.484,1.466,6.545,1.733.338.086.533.121.533.121l.972-2.874s-2.267-1.417-5.032-3.277c-3.841-2.61-8.643-6.046-9.563-7.523-2.129-3.434-3.54-13.927-5.365-21.013-.09-.382-.184-.752-.278-1.116-.069-.267-.14-.53-.211-.788a.669.669,0,0,0-.066-.188c-.1-.3-.176-.562-.258-.8,0-.023-.018-.052-.036-.082a21.594,21.594,0,0,0-1.231-2.819c-.533-.826-1.114-1.234-1.745-1.095a7.891,7.891,0,0,0-1.956,1.017c-.232.157-.473.337-.721.542a1.866,1.866,0,0,0-.416.355,10.361,10.361,0,0,0-2.458,3.289,12.808,12.808,0,0,0-1.137,3.929C525.5,743.619,526.178,746.994,527.388,750.49Z" transform="translate(-494.161 -693.527)"/><path class="d" d="M489.074,703.185a18.67,18.67,0,0,1-6.6,2.592c-10.119,2.039-13.732-6.566-15.014-12.439a8.646,8.646,0,0,1,3.436-.951c.729-.065,1.495-.1,2.129-.114,1.153-.833,2.935-4.324,3.461-9.808l.469.14L484.816,685s-.434,2.508-.679,4.884c-.19,1.859-.262,3.638.078,4.084.615.151.983.249.983.249a.027.027,0,0,0,0,.008A51.061,51.061,0,0,1,489.074,703.185Z" transform="translate(-452.597 -658.266)"/><path class="e" d="M508.4,685.351s-.435,2.506-.679,4.884c-4.476-.576-6.439-4.908-7.184-7.275Z" transform="translate(-476.176 -658.618)"/><path class="d" d="M507.493,653.924s-10.637-.888-9.983-7.5-.277-11.187,6.543-10.9,7.887,2.942,8.206,5.2S510.278,653.985,507.493,653.924Z" transform="translate(-474.001 -624.789)"/><path class="f" d="M468.389,727.107c-.069-.267-.14-.53-.211-.788a.669.669,0,0,0-.066-.188c-.1-.3-.176-.562-.258-.8,0-.023-.017-.052-.036-.082a21.593,21.593,0,0,0-1.231-2.819,3.518,3.518,0,0,0-1.2-1.317,21.97,21.97,0,0,0-6.327-2.255.026.026,0,0,0,0,.008c.106.244,2.939,6.7,2.469,8.236-.477,1.559-14.2-1.262-15.067-2.234-.7-.781-1.373-5.343-1.616-7.123-.062-.443-.1-.714-.1-.714s-4.962.047-7.539,1.552a21.291,21.291,0,0,1,2.195,4.721c.073.241.14.483.2.726a10.013,10.013,0,0,1,.265,1.547,3,3,0,0,1-.672,1.988,14.6,14.6,0,0,1-1.725,1.911c-.453.439-.941.9-1.442,1.4h0a132.85,132.85,0,0,1,1.549,13.465,9.153,9.153,0,0,1-.751,3.994,9.3,9.3,0,0,1-.776,1.438c-2.407,3.641-6.571,10.808-4.87,14.646.63,3.761,33.169,4.1,31.888.054,0,0,1.437-23.74,3.212-29.678.063-.217.119-.428.167-.643a12.958,12.958,0,0,0-.488-6.382A11.236,11.236,0,0,1,468.389,727.107Z" transform="translate(-426.459 -682.904)"/><path class="a" d="M504.29,633.671c-1.443-2.155-2.727-1.842-3.482-1.313a7.46,7.46,0,0,0-9.7.571,12.7,12.7,0,0,1-4.881,7.052s1.816,1.39,6.394.689a7.619,7.619,0,0,0,3.864-2.133,24.9,24.9,0,0,1-4.785,4.782c5.577-1.93,8.46-9.13,8.751-9.893a8.366,8.366,0,0,1,2.007,3.319c.361,1.738.252,5.229,1.274,5.213C503.734,641.958,506.453,636.9,504.29,633.671Z" transform="translate(-465.979 -621.446)"/><path class="g" d="M466.411,784.122c-6.285.844-12.546-4.9-16.55-9.638a9.152,9.152,0,0,0,.751-3.994,132.848,132.848,0,0,0-1.549-13.465h0c.5-.5.989-.96,1.442-1.4a14.6,14.6,0,0,0,1.725-1.911C458.631,761.655,474.934,782.977,466.411,784.122Z" transform="translate(-439.483 -709.059)"/><path class="d" d="M632.363,868.218c-1.412.408-3.536,2.16-6.42.605a47.314,47.314,0,0,0-5.367-2.36c-.432-.136-.676-.229-.676-.229l1.61-3.347a.642.642,0,0,0,.142.059c.758.26,4.609,1.567,6.507,1.365,2.137-.238,5.33,2.675,5.33,2.675S633.773,867.83,632.363,868.218Z" transform="translate(-561.273 -786.89)"/><path class="c" d="M432.3,1221.578H415.784a9.067,9.067,0,0,1,.467-4.426c.827-1.832,2.121-2.665,1.811-4.882a5.948,5.948,0,0,0,5.147,1.969,18.13,18.13,0,0,0,2.866,3.714C427.154,1218.728,431.966,1218.452,432.3,1221.578Z" transform="translate(-415.693 -1035.966)"/><path class="c" d="M555.6,1223.417H539.085a6.865,6.865,0,0,1,.467-4.426c.96-1.586.592-2.489-.119-3.8a6.414,6.414,0,0,0,2.782.524,5.817,5.817,0,0,0,2.456-.864,59.513,59.513,0,0,0,4.705,4.943C550.456,1220.568,555.268,1220.291,555.6,1223.417Z" transform="translate(-503.535 -1037.805)"/><path class="h" d="M523.519,685.333s.148.876,2.3.878c0,0,1.81,0,1.814-.95A5.81,5.81,0,0,0,523.519,685.333Z" transform="translate(-492.563 -660.025)"/><path class="d" d="M585.4,865.251a6.577,6.577,0,0,0,2.441-.6c1.024-.547,4.371.332,4.047.777s-2.2-.1-2.374.15a3.036,3.036,0,0,1-.86.573Z" transform="translate(-536.677 -788.023)"/><g transform="translate(51.491 29.329)"><path class="i" d="M49.661,0h0a49.66,49.66,0,0,1,49.66,49.66v0a49.66,49.66,0,0,1-49.66,49.66h0A49.66,49.66,0,0,1,0,49.661v0A49.661,49.661,0,0,1,49.661,0Z"/><g transform="translate(13.493 19.928)"><path class="d" d="M723.649,848.2s-.245,7.592-1.217,10.993l-7.691,5.365,28.951,4.332-6.9-9.54s-2.085-10.18-.991-13.945S723.649,848.2,723.649,848.2Z" transform="translate(-693.87 -822.852)"/><path class="e" d="M745.623,861.685s2.289,5.511,6.6,5.389,5.294-5,5.294-5Z" transform="translate(-715.886 -835.289)"/><path class="j" d="M729.476,791.678s-1.393-6.952-2.364-9.058-1.782-11.5,8.989-11.985c0,0,4.13.486,6.4-.891,0,0,0,1.377-.567,1.862a7.159,7.159,0,0,1,6.64,2.348c2.915,3.239-1.943,14.577-1.7,17.249Z" transform="translate(-702.314 -769.744)"/><path class="d" d="M744.856,821.318c-3.125-.055-8.876-4.215-8.876-9.368v-8.04a3.208,3.208,0,0,1,2.915-3.421h11.921a3.208,3.208,0,0,1,2.915,3.421v7.585C753.731,816.9,748.439,821.381,744.856,821.318Z" transform="translate(-709.012 -791.662)"/><path class="j" d="M734.993,803.681s.017-4.831,3.843-5.574,12.39,2.355,13.6-1.168-16.553-3.462-17.447-1.214S734.993,803.681,734.993,803.681Z" transform="translate(-708.024 -787.14)"/><path class="k" d="M696.049,898.622a.021.021,0,0,0-.011,0,5.25,5.25,0,0,0-1.233-.334v.013a76.39,76.39,0,0,0-8.9-1.7c-.316-.041-.629-.078-.938-.115a13.8,13.8,0,0,1-5.017,4.478c-.355.177-.712.338-1.079.493-.318.134-.643.265-.977.4a6.012,6.012,0,0,1-1.23-.309c-.231-.083-.457-.177-.68-.283a15.023,15.023,0,0,1-5.374-4.934c-.428.044-.846.092-1.246.143a42.157,42.157,0,0,0-7.139,1.454h0c-.224.027-8.107,1.113-20.171,19.343a12.6,12.6,0,0,0,11.863,8.339h48.5a12.6,12.6,0,0,0,11.916-8.487C705.183,903.251,698.648,899.583,696.049,898.622Z" transform="translate(-642.045 -859.984)"/><path class="l" d="M738.836,889.877a3.074,3.074,0,0,0-1.651,1.993s5.156,5.3,8.53,5.385Z" transform="translate(-709.871 -855.388)"/><path class="l" d="M766.9,896.588l6.655-7.646a3.123,3.123,0,0,1,1.354,2.392S769.76,896.791,766.9,896.588Z" transform="translate(-731.054 -854.721)"/><path class="f" d="M760.755,937.838H754.1c.784-8.93,1.74-17.762,2.2-21.894.094-.839.166-1.484.214-1.9q.01-.1.02-.187c0-.03.007-.06.009-.085.021-.166.03-.253.03-.253l.666-.011,1.048-.018h0l.445-.007s.007.069.016.2c.007.071.014.164.026.276.007.085.014.184.023.293.041.488.1,1.2.175,2.085C759.34,920.656,760.056,929.247,760.755,937.838Z" transform="translate(-721.932 -872.218)"/><path class="m" d="M757.063,905.681a32.018,32.018,0,0,1,4.939-.118.518.518,0,0,1,.4.769c-.524.943-1.593,2.578-2.711,2.578C758.118,908.91,755.67,905.789,757.063,905.681Z" transform="translate(-723.748 -866.526)"/></g></g><g transform="translate(7.826 35.468)"><path class="d" d="M588.582,869.479a4.948,4.948,0,0,1-6.149,1.608,47.15,47.15,0,0,0-5.5-2.033c-.439-.11-.689-.188-.689-.188l1.406-3.437a.665.665,0,0,0,.145.051c.772.214,4.589.227,6.688,1.35C586.914,868.128,589.608,868.088,588.582,869.479Z" transform="translate(-537.977 -824.169)"/><path class="d" d="M484.058,775.869l-.59,3.239s-1.1-.1-2.863-.275c-.528-.053-.831-.1-.831-.1-1.409-.152-3.1-.379-4.935-.618h-.025c-3.155-.473-6.693-1.063-9.7-1.8a26.054,26.054,0,0,1-5.238-1.811,2.926,2.926,0,0,1-.367-.218c-3.075-1.849-7.048-7.732-10.293-14.125-.45-.882-.876-1.767-1.3-2.627a67.776,67.776,0,0,1-3.633-9.15,26.553,26.553,0,0,1-1.057-4.416,11.048,11.048,0,0,1-.133-1.259c-.018-.228-.032-.452-.042-.669a11.436,11.436,0,0,1,8.018-2.909c.082.139.162.28.244.424,1.686,3.067,3.527,7.066,5.268,11.05.963,2.183,1.9,4.368,2.82,6.381.531,1.224,1.054,2.374,1.544,3.428a34.206,34.206,0,0,0,2.495,4.64,12.012,12.012,0,0,0,3.279,2.481,111.179,111.179,0,0,0,10.317,5.231c1.453.671,2.826,1.275,3.966,1.773C482.843,775.351,484.058,775.869,484.058,775.869Z" transform="translate(-443.025 -734.121)"/><path class="n" d="M451.235,727.162c-4.873-.9-8.222,3.135-8.222,3.135-.562-7.163,2.916-8.452,2.916-8.452C447.312,721.128,449.188,723.466,451.235,727.162Z" transform="translate(-442.952 -721.716)"/></g></g><g transform="translate(255.764 -468.975)"><g transform="translate(-81.254 468.975)"><path class="i" d="M39.637,0h0A39.637,39.637,0,0,1,79.274,39.637v0A39.638,39.638,0,0,1,39.637,79.274h0A39.637,39.637,0,0,1,0,39.638v0A39.637,39.637,0,0,1,39.637,0Z" transform="translate(0)"/><g transform="translate(11.454 16.429)"><path class="d" d="M857.765,418.357a45.269,45.269,0,0,1-.845,7.63l-5.339,3.724,20.095,3.007-4.792-6.621s-1.447-7.066-.688-9.679S857.765,418.357,857.765,418.357Z" transform="translate(-832.917 -400.763)"/><path class="e" d="M878.721,430.939s1.589,3.825,4.582,3.741,3.674-3.469,3.674-3.469Z" transform="translate(-853.902 -412.617)"/><path class="a" d="M864,365.367a48.085,48.085,0,0,0-1.641-6.287c-.675-1.462-1.237-7.982,6.239-8.319,0,0,2.867.337,4.441-.618,0,0,0,.956-.393,1.293a4.969,4.969,0,0,1,4.609,1.63c2.024,2.248-1.349,10.118-1.18,11.973Z" transform="translate(-840.965 -350.143)"/><path class="d" d="M882.567,379.537V384.8a6.22,6.22,0,0,1-.544,2.5h0a7.994,7.994,0,0,1-2.7,3.253,5.187,5.187,0,0,1-2.919,1.062,5.654,5.654,0,0,1-2.774-1.046,7.834,7.834,0,0,1-3.116-3.838l-.008-.024-.02-.066a5.069,5.069,0,0,1-.243-1.527v-5.582a2.227,2.227,0,0,1,2.024-2.374h8.273A2.226,2.226,0,0,1,882.567,379.537Z" transform="translate(-847.349 -371.036)"/><path class="f" d="M810.073,462.75s-4.719-1.016-6.832-1.262a9.786,9.786,0,0,1-4.908,3.818c-2.745-.379-5.056-3.849-5.056-3.927a28.3,28.3,0,0,0-5.821,1.2h0c-.191.024-7.5,1.041-18.178,20.362a10.058,10.058,0,0,0,7.283,5.044c1.376-1.189,4.332-3.755,6.649-5.768-.025.65-.031,1.237-.016,1.751.04,1.383.083,2.756.115,4.13h29.135c-.056-.7-.1-1.371-.135-2.013-.1-2-.193-3.831-.279-5.5,0-.014,0-.029,0-.044l0-.053.006.006,1.473,1.278.333.289.295.257q.205.175.414.359l.757.657.351.306.188.162c.071.062.143.124.215.187.053.046.107.091.16.138.126.108.249.217.373.324l.3.264.253.218c.306.268.606.528.9.781l.346.3c.118.1.237.206.351.3.08.071.16.14.24.209l.106.091c.122.106.238.21.353.306l.342.3.135.117c.047.042.095.082.14.12q.172-.057.344-.126a10.078,10.078,0,0,0,6.11-6.847C816.5,463.265,810.073,462.75,810.073,462.75Z" transform="translate(-769.274 -436.154)"/><path class="a" d="M869.305,378.206s.012-3.353,2.667-3.869,8.6,1.634,9.443-.811-11.49-2.4-12.111-.843S869.305,378.206,869.305,378.206Z" transform="translate(-846.408 -366.725)"/><path class="g" d="M834.18,557.238h-3.453c-.031-1.374-.075-2.747-.115-4.13-.015-.513-.009-1.1.016-1.751.005-.146.011-.293.018-.444.033.054.093.148.173.278C831.335,552.033,832.744,554.379,834.18,557.238Z" transform="translate(-816.697 -505.385)"/><path class="a" d="M890.873,417.967v2.32a5.187,5.187,0,0,1-2.919,1.062,5.654,5.654,0,0,1-2.774-1.046v-2.336a2.363,2.363,0,0,1,2.356-2.356h.982A2.363,2.363,0,0,1,890.873,417.967Z" transform="translate(-858.897 -400.765)"/><path class="g" d="M966.075,550.092q-.171.068-.344.126c-.046-.038-.093-.078-.14-.12l-.135-.117-.342-.3c-.115-.1-.231-.2-.353-.306l-.106-.091c-.08-.069-.16-.138-.24-.209-.115-.1-.233-.2-.351-.3l-.346-.3c-.291-.253-.592-.513-.9-.781l-.253-.218-.3-.264c-.124-.107-.247-.216-.373-.324-.053-.047-.108-.093-.16-.138-.071-.063-.144-.125-.215-.187l-.188-.162-.351-.306-.757-.657c-.139-.122-.277-.242-.414-.359l-.295-.257-.333-.289-1.473-1.278c-.011-.009-.02-.016-.029-.025a.307.307,0,0,1,.025-.018,2.856,2.856,0,0,1,4.387.954A66.482,66.482,0,0,0,966.075,550.092Z" transform="translate(-914.954 -498.915)"/><path class="a" d="M882.85,419.64c-1.113,2.534-3.711,4.348-5.615,4.315-1.83-.034-4.957-2.095-5.89-4.885l-.008-.024-.02-.066s1.965,1.676,3.265.846h5.46A2.7,2.7,0,0,0,882.85,419.64Z" transform="translate(-848.178 -403.37)"/><path class="d" d="M894.222,421.4h-1.178c-.27,0-.614-.442-.614-.712a1.3,1.3,0,0,1,.614-.27h1.178a.985.985,0,0,1,.728.384A.81.81,0,0,1,894.222,421.4Z" transform="translate(-864.503 -404.486)"/></g></g><path class="i" d="M42.248,0h0A42.248,42.248,0,0,1,84.5,42.248v0A42.248,42.248,0,0,1,42.249,84.5h0A42.248,42.248,0,0,1,0,42.248v0A42.248,42.248,0,0,1,42.248,0Z" transform="translate(-53.246 585.824)"/><g transform="translate(-39.678 603.616)"><path class="a" d="M1146.318,1317.726s-5.988-10.862-.5-15.658,15.162-1.934,16.942,0,4.148,7.435-.765,15.256Z" transform="translate(-1125.763 -1294.383)"/><path class="o" d="M1140.031,1387.865s-.217,6.707-1.075,9.711l-6.794,4.74,25.574,3.827-6.1-8.427s-1.841-8.992-.875-12.319S1140.031,1387.865,1140.031,1387.865Z" transform="translate(-1116.994 -1360.052)"/><path class="p" d="M1166.7,1403.877s2.022,4.868,5.832,4.761,4.676-4.415,4.676-4.415Z" transform="translate(-1143.699 -1375.138)"/><path class="o" d="M1163.756,1353.837c-2.76-.048-7.841-3.724-7.841-8.275v-7.1a2.834,2.834,0,0,1,2.576-3.022h10.531a2.834,2.834,0,0,1,2.575,3.022v6.7C1171.6,1349.933,1166.921,1353.893,1163.756,1353.837Z" transform="translate(-1135.361 -1322.218)"/><path class="q" d="M1122.38,1456.375a10.688,10.688,0,0,1-7.843,3.415h-41.26a10.693,10.693,0,0,1-8-3.589c8.843-11.751,14.448-12.491,14.594-12.508a37.561,37.561,0,0,1,7.392-1.453c0,.1,2.963,4.439,6.456,4.922a12.284,12.284,0,0,0,6.17-4.851,70.036,70.036,0,0,1,8.772,1.713l0-.015S1113.9,1445.323,1122.38,1456.375Z" transform="translate(-1065.274 -1404.801)"/><path class="a" d="M1155.862,1330.729s1.916-5.848,8.193-4.936,6.821,2.253,7.488,3.809,1.955-5.687,1.955-5.687l-7.4-2.2s-8.96,1.019-9.6,2.521l-.644,1.5Z" transform="translate(-1135.308 -1311.607)"/><path class="a" d="M1172.893,1286.172s-6.634-6.029-3.788-7.316S1172.893,1286.172,1172.893,1286.172Z" transform="translate(-1145.011 -1278.366)"/><path class="a" d="M1164.626,1292.427s-8.388-3.161-6.216-5.406S1164.626,1292.427,1164.626,1292.427Z" transform="translate(-1137.012 -1284.461)"/><path class="a" d="M1188.51,1286.72s-1.373-7.776,1.943-7.719S1188.51,1286.72,1188.51,1286.72Z" transform="translate(-1160.346 -1278.579)"/><path class="a" d="M1191.523,1284.774s3.593-8.365,6.938-7.582S1191.523,1284.774,1191.523,1284.774Z" transform="translate(-1162.894 -1277.141)"/><path class="a" d="M1190.709,1293.683s5.719-7.083,8.728-5.426S1190.709,1293.683,1190.709,1293.683Z" transform="translate(-1162.265 -1285.542)"/></g></g></svg>