<svg xmlns="http://www.w3.org/2000/svg" width="281.061" height="209.411" viewBox="0 0 281.061 209.411"><defs><style>.a{fill:#c8dbf4;}.b{fill:#d4e4f8;}.c{fill:#9fc1f4;}.d{fill:#8cb4f4;}.e{fill:#9abfe2;}.f{fill:#bad4f4;}.g{fill:#dfebfd;}.h{fill:#b7d3f3;}.i{fill:#c0d8fb;}.j{fill:#233862;}.k{fill:#ffb27d;}.l{fill:#0f2549;}.m{fill:#2b478b;}.n{fill:#ed975d;}.o{fill:#fff;}.p{fill:#ebf3ff;}.q{fill:#f37168;}.r{fill:#f8f8f8;}.s{fill:#182d4f;}</style></defs><g transform="translate(0 68.43)"><g transform="translate(38.776 28.961)"><path class="a" d="M653.317,1062.714s-5.075-5.92-.313-9.681c0,0,3.478-2.106,6.315-1.935,0,0-4.019,6.739-2.719,7.409s3.937-7.832,3.937-7.832,7.915-.767,10.462.457c0,0-6.767,5.537-5.341,5.867s8.734-5.105,8.734-5.105,7.367,1.254,6.974,5.748-2.931,5.882-4.047,5.762-7.642-2.611-7.784-1.7,3.786,3.9,6.537,4.041c0,0-5.194,5.728-8.646,4.075s-3.747-4.273-5.9-5.256-3.988-.98-3.1.022,4.783,1.976,6.013,4.153,2.335,3.645-1.237,3.107-9.377-3.151-9.631-6.143Z" transform="translate(-644.74 -1050.438)"/><g transform="translate(0 7.29)"><path class="a" d="M665.8,1099.2s-20.009-.771-24.428,4.951a14.47,14.47,0,0,1-3.984,5.592l-.469,1.278s3.467-3.656,4.708-3.877C641.624,1107.143,639.684,1100.054,665.8,1099.2Z" transform="translate(-632.792 -1099.165)"/><path class="a" d="M613.942,1167.005a12.565,12.565,0,0,0-4.593,8.851l.779.07s1.372-5.868,3.851-8.163S613.942,1167.005,613.942,1167.005Z" transform="translate(-609.349 -1156.427)"/></g></g><g transform="translate(0 12.886)"><path class="a" d="M379.78,963.9s8.073-4.521,4.305-10.656c0,0-3.014-3.767-6.243-4.736,0,0,1.722,9.149,0,9.364s-1.184-10.333-1.184-10.333-8.5-4.09-11.84-3.767c0,0,5.274,8.934,3.552,8.718s-7.642-9.257-7.642-9.257-8.719-1.615-10.118,3.552.861,7.75,2.153,8.073,9.58.215,9.364,1.292-5.812,2.8-8.934,1.83c0,0,3.444,8.5,7.965,8.073s5.92-3.229,8.718-3.444,4.844.538,3.444,1.292-6.135.247-8.4,2.169-4.09,3.106.108,3.967,11.732.323,13.239-2.906Z" transform="translate(-350.169 -942.997)"/><g transform="translate(4.424 5.405)"><path class="a" d="M379.739,979.127s22.6,7.319,25.187,15.5a17.172,17.172,0,0,0,2.153,7.857v1.615s-2.368-5.489-3.66-6.243C403.419,997.855,408.478,990.751,379.739,979.127Z" transform="translate(-379.739 -979.127)"/><path class="a" d="M556.336,1129.532a14.908,14.908,0,0,1,1.5,11.737l-.9-.241s.87-7.1-.953-10.667S556.336,1129.532,556.336,1129.532Z" transform="translate(-528.997 -1106.175)"/></g></g><g transform="translate(35.458)"><path class="b" d="M594.164,884.422s-10.641-5.959-5.675-14.046c0,0,3.973-4.966,8.229-6.243,0,0-2.27,12.06,0,12.344s1.561-13.621,1.561-13.621,11.209-5.392,15.607-4.966c0,0-6.952,11.776-4.682,11.493s10.074-12.2,10.074-12.2,11.493-2.128,13.337,4.682-1.135,10.216-2.838,10.641-12.628.284-12.344,1.7,7.662,3.689,11.776,2.412c0,0-4.54,11.209-10.5,10.641s-7.8-4.257-11.492-4.54-6.385.709-4.54,1.7,8.087.325,11.067,2.858,5.392,4.094-.142,5.229-15.465.426-17.452-3.831Z" transform="translate(-587.169 -856.866)"/><g transform="translate(1.376 7.125)"><path class="b" d="M651,904.491s-29.8,9.648-33.2,20.431a22.635,22.635,0,0,1-2.838,10.357v2.128s3.122-7.236,4.824-8.229C619.785,929.179,613.117,919.814,651,904.491Z" transform="translate(-612.178 -904.491)"/><path class="b" d="M599.145,1102.753a19.652,19.652,0,0,0-1.975,15.472l1.182-.318s-1.148-9.355,1.257-14.06S599.145,1102.753,599.145,1102.753Z" transform="translate(-596.363 -1071.965)"/></g></g><path class="b" d="M513.052,1218.326a20.845,20.845,0,0,0,20.844-20.845H492.207A20.845,20.845,0,0,0,513.052,1218.326Z" transform="translate(-470.957 -1146.521)"/><path class="b" d="M2.572,0H39.693a2.572,2.572,0,0,1,2.572,2.572v0a0,0,0,0,1,0,0H0a0,0,0,0,1,0,0v0A2.572,2.572,0,0,1,2.572,0Z" transform="translate(20.963 70.294)"/><rect class="c" width="42.848" height="0.639" transform="translate(20.565 50.96)"/></g><g transform="translate(87.065 81.358)"><g transform="translate(53.584 70.021)"><path class="d" d="M1299.265,1468.907l.1,0a1.4,1.4,0,0,0,1.413-1.5l-5.619-56.115-4.9.437,8.068,56.417A.913.913,0,0,0,1299.265,1468.907Z" transform="translate(-1290.26 -1411.295)"/></g><g transform="translate(6.962 70.021)"><path class="d" d="M980.168,1468.907l-.1,0a1.4,1.4,0,0,1-1.414-1.5l5.619-56.115,4.9.437-8.068,56.417A.913.913,0,0,1,980.168,1468.907Z" transform="translate(-978.645 -1411.295)"/></g><g transform="translate(93.223 70.021)"><path class="d" d="M1564.216,1468.907l.1,0a1.4,1.4,0,0,0,1.413-1.5l-5.619-56.115-4.9.437,8.068,56.417A.913.913,0,0,0,1564.216,1468.907Z" transform="translate(-1555.211 -1411.295)"/></g><path class="d" d="M942.268,1005.135l-9.974-49.253c-1.28-6.669,4.246-12.766,11.42-12.6l19.235.439A15.2,15.2,0,0,1,977.2,954.687l14.592,50.447Z" transform="translate(-932.109 -943.276)"/><path class="d" d="M982.6,1005.135l-9.974-49.253c-1.28-6.669,4.246-12.766,11.42-12.6l19.235.439a15.2,15.2,0,0,1,14.249,10.968l14.592,50.447Z" transform="translate(-966.406 -943.276)"/><path class="d" d="M4.491,0H77.169a4.492,4.492,0,0,1,4.492,4.492V8.983a0,0,0,0,1,0,0H4.492A4.492,4.492,0,0,1,0,4.491v0A4.491,4.491,0,0,1,4.491,0Z" transform="translate(91.82 70.841) rotate(180)"/><rect class="d" width="52.991" height="8.983" rx="4.491" transform="translate(99.403 70.841) rotate(180)"/></g><g transform="translate(12.352 141.506)"><path class="e" d="M494.894,1346.375v1.68c0,.588-.19,1.069-.423,1.069H433.152c-.232,0-.423-.48-.423-1.069v-1.68c0-.587.19-1.069.423-1.069h61.319C494.7,1345.306,494.894,1345.787,494.894,1346.375Z" transform="translate(-432.729 -1345.306)"/><path class="f" d="M567.125,1346.375v1.68c0,.588-.175,1.069-.388,1.069H518.056c-.213,0-.388-.48-.388-1.069v-1.68c0-.587.175-1.069.388-1.069h48.681C566.95,1345.306,567.125,1345.787,567.125,1346.375Z" transform="translate(-504.96 -1345.306)"/><rect class="a" width="43.533" height="63.451" transform="translate(3.112 3.818)"/><rect class="g" width="43.533" height="63.451" transform="translate(15.312 3.818)"/><g transform="translate(17.652 5.611)"><path class="h" d="M589.566,1440.963H550.712v-58.156h38.854Zm-38.435-.42h38.015v-57.316H551.131Z" transform="translate(-550.712 -1382.807)"/><g transform="translate(0.21 19.238)"><rect class="h" width="38.435" height="0.419"/></g><g transform="translate(0.21 38.851)"><rect class="h" width="38.435" height="0.42"/></g><path class="h" d="M662.771,1400.722h-7.132a.631.631,0,0,1-.629-.629h0a.631.631,0,0,1,.629-.629h7.132a.631.631,0,0,1,.629.629h0A.631.631,0,0,1,662.771,1400.722Z" transform="translate(-639.406 -1396.971)"/><path class="h" d="M662.771,1528.918h-7.132a.631.631,0,0,1-.629-.629h0a.631.631,0,0,1,.629-.63h7.132a.631.631,0,0,1,.629.63h0A.631.631,0,0,1,662.771,1528.918Z" transform="translate(-639.406 -1505.988)"/><path class="h" d="M662.771,1662.555h-7.132a.631.631,0,0,1-.629-.629h0a.631.631,0,0,1,.629-.629h7.132a.631.631,0,0,1,.629.629h0A.631.631,0,0,1,662.771,1662.555Z" transform="translate(-639.406 -1619.631)"/></g></g><g transform="translate(215.518)"><path class="i" d="M15.394,0h1.412A15.394,15.394,0,0,1,32.2,15.394v.451A15.394,15.394,0,0,1,16.806,31.239H15.395A15.395,15.395,0,0,1,0,15.844v-.45A15.394,15.394,0,0,1,15.394,0Z"/><path class="g" d="M14.06,0h1.289A14.061,14.061,0,0,1,29.41,14.061v.411A14.061,14.061,0,0,1,15.349,28.532H14.061A14.061,14.061,0,0,1,0,14.472V14.06A14.06,14.06,0,0,1,14.06,0Z" transform="translate(1.395 1.353)"/><g transform="translate(3.802 3.537)"><g transform="translate(11.631)"><circle class="h" cx="0.667" cy="0.667" r="0.667"/><path class="h" d="M1929.332,431.932a.667.667,0,1,1,.259.907A.667.667,0,0,1,1929.332,431.932Z" transform="translate(-1923.95 -430.323)"/><path class="h" d="M1958.894,457.763a.667.667,0,1,1-.2.922A.667.667,0,0,1,1958.894,457.763Z" transform="translate(-1948.901 -452.49)"/><path class="h" d="M1972.105,496.267a.667.667,0,1,1-.667.667A.667.667,0,0,1,1972.105,496.267Z" transform="translate(-1959.828 -485.324)"/><path class="h" d="M1961.63,539.138a.667.667,0,1,1-.943,0A.667.667,0,0,1,1961.63,539.138Z" transform="translate(-1950.519 -521.614)"/><path class="h" d="M1933.634,567.207a.667.667,0,1,1-.943,0A.667.667,0,0,1,1933.634,567.207Z" transform="translate(-1926.712 -545.484)"/><path class="h" d="M1893.837,578.993a.667.667,0,1,1,.667.667A.667.667,0,0,1,1893.837,578.993Z" transform="translate(-1893.837 -555.106)"/></g><g transform="translate(0 1.267)"><path class="h" d="M1859.531,431.932a.667.667,0,1,0-.259.907A.667.667,0,0,0,1859.531,431.932Z" transform="translate(-1851.969 -431.589)"/><path class="h" d="M1829.97,457.763a.667.667,0,1,0,.2.922A.667.667,0,0,0,1829.97,457.763Z" transform="translate(-1827.019 -453.756)"/><path class="h" d="M1816.76,496.267a.667.667,0,1,0,.667.667A.667.667,0,0,0,1816.76,496.267Z" transform="translate(-1816.093 -486.59)"/><path class="h" d="M1827.235,539.138a.667.667,0,1,0,.943,0A.667.667,0,0,0,1827.235,539.138Z" transform="translate(-1825.402 -522.881)"/><circle class="h" cx="0.667" cy="0.667" r="0.667" transform="translate(5.826 20.261)"/></g></g><g transform="translate(15.92 6.815)"><path class="h" d="M1897.093,496.934a.667.667,0,1,1,.667.667A.667.667,0,0,1,1897.093,496.934Z" transform="translate(-1897.093 -488.601)"/><g transform="translate(0.576)"><rect class="h" width="0.182" height="8.333"/></g><g transform="translate(0.414 4.638)"><rect class="h" width="5.616" height="0.546" transform="translate(0 3.468) rotate(-38.132)"/></g></g></g><g transform="translate(91.203 31.824)"><g transform="translate(0)"><path class="j" d="M1267.849,1281.17c-4.117,7.165-9.3,9.931-9.3,9.931h-21.543S1270.99,1275.7,1267.849,1281.17Z" transform="translate(-1195.532 -1180.085)"/><path class="k" d="M1614.6,1672.466c-.233,2.26,2.911,2.844,6.557,3.065s2.536.956,7.525,1.915,7.008-.387,7.376-1.059c.329-.6-1.985-1.558-4.451-2.644-.31-.135-.621-.275-.932-.415-2.775-1.256-4.312-3.773-6.461-6.114-2.035-2.218-3.915-9.269-3.915-9.269l-6.778-1.524s1.84,6.348,2.473,9.056a8.369,8.369,0,0,1-.746,4.71A8.89,8.89,0,0,0,1614.6,1672.466Z" transform="translate(-1515.714 -1500.192)"/><path class="l" d="M1627.213,1753.774c3.646.221,2.536.956,7.525,1.915s7.008-.387,7.377-1.059c.329-.6-1.985-1.558-4.451-2.644l-.039.042a14.239,14.239,0,0,1-7.573.009c-3.3-.934-6.474-2.944-8.746-3.607a8.89,8.89,0,0,0-.649,2.279C1620.423,1752.969,1623.567,1753.553,1627.213,1753.774Z" transform="translate(-1521.769 -1578.436)"/><path class="j" d="M1180.527,1123.624c-3.647-2.561-27.773-7.127-40.086-8.447l-13.608-11.813s-11.583,17.156-11.675,30.282c-.043,6.12,2.776,6.728,2.777,6.729s43.625.324,45.537.521c3.13.323,7.259,8.12,8.291,15.222s19.223,35.988,19.223,35.988,3.794,1.216,5.548,1.112a5.543,5.543,0,0,0,2.76-.743S1188.753,1129.4,1180.527,1123.624Z" transform="translate(-1091.91 -1029.879)"/><path class="k" d="M1539.18,1672.466c-.233,2.26,2.911,2.844,6.557,3.065s2.536.956,7.525,1.915,7.008-.387,7.377-1.059c.329-.6-1.985-1.558-4.451-2.644-.31-.135-.621-.275-.931-.415-2.775-1.256-4.312-3.773-6.461-6.114-2.035-2.218-3.915-9.269-3.915-9.269l-6.778-1.524s1.84,6.348,2.473,9.056a8.371,8.371,0,0,1-.746,4.71A8.885,8.885,0,0,0,1539.18,1672.466Z" transform="translate(-1451.577 -1500.192)"/><path class="j" d="M1551.792,1753.774c3.646.221,2.536.956,7.525,1.915s7.008-.387,7.377-1.059c.329-.6-1.986-1.558-4.451-2.644l-.039.042a14.238,14.238,0,0,1-7.573.009c-3.3-.934-6.474-2.944-8.746-3.607a8.88,8.88,0,0,0-.65,2.279C1545,1752.969,1548.146,1753.553,1551.792,1753.774Z" transform="translate(-1457.632 -1578.436)"/><path class="m" d="M1104.439,1123.624c-3.169-2.225-12.7-3.95-23.218-5.23a7.077,7.077,0,0,1-6.007-5.311h0l-24.469-9.719s-11.583,17.156-11.675,30.282c-.043,6.12,2.776,6.728,2.777,6.729s43.624.324,45.537.521c3.13.323,7.259,8.12,8.291,15.222s19.223,35.988,19.223,35.988,3.793,1.216,5.548,1.112a5.543,5.543,0,0,0,2.76-.743S1112.664,1129.4,1104.439,1123.624Z" transform="translate(-1027.205 -1029.879)"/><path class="j" d="M1004.259,614.393c-3.362-1.766-8.479-2-9.31-2.116-9.946-1.337-15.933,13.116-16.285,17.5-.649,8.072-4.919,9.3-10.93,14.358-12.052,10.136-8.518,21.915-1.928,26.292,3.954,2.626,10.923,0,10.923,0,.1.069,19.06-10.6,28.407-15.746C1019.15,652.684,1012.828,618.893,1004.259,614.393Z" transform="translate(-959.767 -612.19)"/><path class="k" d="M1167.69,784.723c.044.022-4.419,2.052-7.641.988-3.031-1-5.7-5.562-5.658-5.568,1.315-.191,2.653-1.488,3.026-9.178l.583.147,9.795,2.476s-.387,3.1-.547,6.037C1167.112,782.086,1167.14,784.431,1167.69,784.723Z" transform="translate(-1125.273 -747.21)"/><path class="n" d="M1186.74,778.2s0,.639-.366,3.525c-5.54-1.4-7.982-3.234-9.7-5.336Z" transform="translate(-1144.218 -751.82)"/><path class="k" d="M1170.208,669.275s-12.952,2.109-14.141-5.978-3.662-13.26,4.558-14.948,10.284,1.16,11.337,3.763S1173.546,668.518,1170.208,669.275Z" transform="translate(-1125.597 -642.507)"/><path class="j" d="M1150.243,640.747s-5.882,9.285-11.133,11.484-7.831,1.083-7.831,1.083a22.116,22.116,0,0,0,3.011-8.486,3.981,3.981,0,0,1,2.459-3.2C1140.518,640.119,1147.806,637.739,1150.243,640.747Z" transform="translate(-1105.619 -635.244)"/><path class="j" d="M1223.5,640.853a20.5,20.5,0,0,1,4.867,3.424c1.37,1.6,2.953,5.936,2.84,7.884,0,0,1.7-9.335-1.842-12.544C1225.605,636.214,1223.5,640.853,1223.5,640.853Z" transform="translate(-1184.039 -634.453)"/><path class="o" d="M1114.16,851c-.393,26.328-.108,20.826-2.988,23.325-.694.6-2.645.96-5.213,1.13-8.073.536-22.264-.794-22.8-2.286-1.862-5.162-.547-6.766-2.1-14.67-.162-.84-.362-1.75-.6-2.741-1.3-5.428-2.556-7.275,2.039-16,4.167-7.9,9.069-14.317,9.458-14.085,11,6.527,11.372,1.056,11.372,1.056S1114.352,838.156,1114.16,851Z" transform="translate(-1061.38 -793.73)"/><path class="o" d="M1240.13,832.766s11.253,1.908,12.582,6.779,9.147,33.508,9.147,33.508-5.751,1.033-8.409-1.624-9.245-24.651-9.245-24.651Z" transform="translate(-1198.184 -799.765)"/><path class="p" d="M1116.172,999.726c-8.073.536-22.264-.794-22.8-2.286-1.862-5.162-.547-6.766-2.1-14.67l3.894-10.964s-.644,12.21,2.957,15.421,14.743,6.2,16.493,8.883A9.822,9.822,0,0,1,1116.172,999.726Z" transform="translate(-1071.593 -918.003)"/><path class="k" d="M1195.909,1117.09s7.964-1.773,9.25-1.067,4.426,3.281,4.819,4.177-2.861-.68-3.92-.964c-.685-.184-2.49.443-3.383.741a11.242,11.242,0,0,1-6.062.608Z" transform="translate(-1160.58 -1040.503)"/><path class="o" d="M1014.187,825.709s-11.272.659-14.974,5.822c-5.211,7.268-15.549,38.245-9.625,42.377,6.672,4.653,30.367,1.217,30.367,1.217s.789-3.686-.308-5.468-18.926-4.663-19.748-5.486,10.286-16.046,10.286-18.514S1014.187,825.709,1014.187,825.709Z" transform="translate(-983.613 -793.764)"/><path class="k" d="M1260.31,1131.787a15.408,15.408,0,0,0,2.216,2.41,1.632,1.632,0,0,0,.9.193l-1.124-2.024Z" transform="translate(-1215.345 -1054.049)"/><path class="k" d="M1257.733,1116.97l4.852,2.356a.865.865,0,0,1-.8.31,11.567,11.567,0,0,1-2.1-.578Z" transform="translate(-1213.154 -1041.449)"/></g></g><g transform="translate(131.121 88.388)"><path class="q" d="M1249.114,1144.093H1226.58a1.8,1.8,0,0,1,1.8-1.8h20.738Z" transform="translate(-1226.58 -1119.551)"/><path class="q" d="M1327.982,990.267h34.839l-8.357,24.542H1319.4Z" transform="translate(-1305.513 -990.267)"/><path class="q" d="M1366.249,990.264l-8.356,24.542h-35.066l8.583-24.542Z" transform="translate(-1308.427 -990.264)"/><path class="r" d="M1467.956,1061.118a2.266,2.266,0,0,1-2.09,1.7,1.307,1.307,0,0,1-1.306-1.7,2.265,2.265,0,0,1,2.09-1.7A1.307,1.307,0,0,1,1467.956,1061.118Z" transform="translate(-1428.917 -1049.074)"/></g><g transform="translate(116.906 112.931)"><rect class="s" width="155.002" height="5.521" rx="2.761" transform="translate(5.264)"/><g transform="translate(145.558 2.809)"><path class="s" d="M2121.753,1266.743l.066-.008a1.4,1.4,0,0,0,1.237-1.559l-13.605-92.1-4.981.143,16.008,92.594A1.145,1.145,0,0,0,2121.753,1266.743Z" transform="translate(-2104.47 -1173.08)"/></g><g transform="translate(0 2.809)"><path class="s" d="M1132.878,1266.743l-.066-.008a1.4,1.4,0,0,1-1.237-1.559l13.605-92.1,4.981.143-16.008,92.594A1.145,1.145,0,0,1,1132.878,1266.743Z" transform="translate(-1131.564 -1173.08)"/></g><g transform="translate(31.497 2.809)"><path class="s" d="M1343.4,1266.743l-.066-.008a1.4,1.4,0,0,1-1.237-1.559l13.605-92.1,4.981.143-16.008,92.594A1.145,1.145,0,0,1,1343.4,1266.743Z" transform="translate(-1342.09 -1173.08)"/></g></g></svg>