<svg xmlns="http://www.w3.org/2000/svg" width="18" height="18" viewBox="0 0 23.385 23.385"><defs><style>.a{fill:#000000;}</style></defs><g transform="translate(0 0)"><path class="a" d="M121.37,240.043v-.481a1.17,1.17,0,0,0,.78-1.1v-3.508a1.951,1.951,0,0,0-1.949-1.949h-1.169v-1.169a1.169,1.169,0,0,0-1.169-1.169h-1.241a1.17,1.17,0,0,0-1.1-.78h-3.9a1.169,1.169,0,0,0-1.1.78h-.851a1.169,1.169,0,0,0-1.169,1.169v1.169h-1.559A1.951,1.951,0,0,0,105,234.957v3.508a1.17,1.17,0,0,0,.78,1.1v6.307a1.169,1.169,0,0,0,1.169,1.169h8.2a6.621,6.621,0,1,0,6.216-7Zm-6.216,6.216H108.9V245.09a1.169,1.169,0,0,0-1.169-1.169h-1.169v-4.287h4.287a1.169,1.169,0,0,0,1.169,1.169h3.118a1.169,1.169,0,0,0,1.169-1.169h4.287v.5a6.628,6.628,0,0,0-5.437,6.126Zm.37-6.626a.39.39,0,0,1-.39.39h-3.118a.39.39,0,0,1-.39-.39v-.78a.39.39,0,0,1,.39-.39h3.118a.39.39,0,0,1,.39.39Zm5.456-.78H116.3a1.169,1.169,0,0,0-1.169-1.169h-3.118a1.169,1.169,0,0,0-1.169,1.169h-4.677a.39.39,0,0,1-.39-.39v-2.339h1.559a1.169,1.169,0,0,0,1.17-1.169v-1.169h10.133v1.169a1.169,1.169,0,0,0,1.169,1.169h1.559v2.339a.39.39,0,0,1-.39.39Zm.39-3.9v.39H119.81a.39.39,0,0,1-.39-.39v-1.169h.78a1.169,1.169,0,0,1,1.169,1.169Zm-9.744-4.287h3.9a.39.39,0,0,1,0,.78h-3.9a.39.39,0,1,1,0-.78Zm-2.339,1.169a.39.39,0,0,1,.39-.39h.851a1.169,1.169,0,0,0,1.1.779h3.9a1.169,1.169,0,0,0,1.1-.779h1.241a.39.39,0,0,1,.39.39v1.169h-8.964Zm-2.338,1.949h.78v1.169a.39.39,0,0,1-.39.39H105.78v-.39a1.169,1.169,0,0,1,1.169-1.169Zm-.39,12.082V244.7h1.169a.39.39,0,0,1,.39.39v1.169h-1.169a.39.39,0,0,1-.39-.39Zm15.2,6.626a5.846,5.846,0,1,1,5.846-5.846,5.846,5.846,0,0,1-5.846,5.846Zm0,0" transform="translate(-105 -229.89)"/></g><path class="a" d="M340,460.33l-2.834,1.409a.644.644,0,0,0-.288.288l-1.409,2.833a.587.587,0,0,0,.793.794l2.834-1.409a.643.643,0,0,0,.288-.289l1.409-2.833a.587.587,0,0,0-.793-.793Zm-2.628,2.456.967.966-1.925.955Zm1.518.415-.967-.967,1.921-.957Zm0,0" transform="translate(-321.374 -446.232)"/></svg>