<svg xmlns="http://www.w3.org/2000/svg" width="383.763" height="286.402" viewBox="0 0 383.763 286.402"><defs><style>.a{fill:#e7f3fe;}.b{fill:#77a4e5;}.c{fill:#f5fbff;}.d{fill:#bdd1f9;}.e{fill:#fff;}.f{fill:#e3645d;}.g{fill:#ffb27d;}.h{fill:#233862;}.i{fill:#a9453d;}.j{fill:#ed975d;}.k{fill:#2a4e96;}.l{fill:#5f9aa8;}.m{fill:#ee726c;}.n{fill:#1e3d70;}.o{opacity:0.6;}.p{fill:#163560;}.q{fill:#dfebfd;}.r{fill:#f9ddbf;}</style></defs><path class="a" d="M302.54,262.131c114.087,19.426,55.731-13.971,133.423-18.473S524.7,268.91,564.768,318.474c27.346,33.825,27.561,95.7-9.935,133.364-50.966,51.2-205.961,25.219-239.488,16.506-38.627-10.038-66.866-40.493-78.339-77.456C209.359,301.823,275.416,253.728,302.54,262.131Z" transform="translate(-261.983 -159.53) rotate(-8)"/><g transform="translate(-1008.376 -786.846)"><g transform="translate(1157.283 857.444)"><g transform="translate(103.303 56.143)"><path class="b" d="M2032.085,1336.393l-27.335-113.452,1.909-4.466,27.08,117.905a.482.482,0,0,1-.47.59h-.451A.753.753,0,0,1,2032.085,1336.393Z" transform="translate(-2004.75 -1218.475)"/></g><g transform="translate(0 0)"><g transform="translate(6.366 124.782)"><path class="b" d="M1587.859,1564.166h0a.91.91,0,0,1-.9-1.058l8.05-48.8h3.449l-9.6,49.032A1.021,1.021,0,0,1,1587.859,1564.166Z" transform="translate(-1586.948 -1514.31)"/></g><g transform="translate(83.596 124.782)"><path class="b" d="M1920.72,1564.166h0a.91.91,0,0,1-.9-1.058l8.051-48.8h3.45l-9.6,49.032A1.021,1.021,0,0,1,1920.72,1564.166Z" transform="translate(-1919.81 -1514.31)"/></g><path class="c" d="M1686.186,1101.383h-96.15l19.92-124.885h96.15Z" transform="translate(-1582.954 -976.498)"/><rect class="b" width="110.426" height="3.674" transform="translate(0 123.932)"/><g transform="translate(29.047 7.507)"><path class="d" d="M1720.737,1027.477a20.148,20.148,0,0,1-.431,2.906c-2,8.925-9.951,15.764-18.932,15.779-9.937.017-17.376-8.321-16.617-18.624s9.428-18.668,19.365-18.685a16.69,16.69,0,0,1,5.867,1.034,16.083,16.083,0,0,1,6.59,4.567,16.97,16.97,0,0,1,2.636,4.125,17.714,17.714,0,0,1,1.414,4.994,19.025,19.025,0,0,1,.159,2.73Q1720.78,1026.883,1720.737,1027.477Z" transform="translate(-1684.704 -1008.853)"/><path class="e" d="M1778.941,1025.6l-16.467,8.929s6.794-11.965,9.583-16.534a16.234,16.234,0,0,1,4.247,3.48,16.764,16.764,0,0,1,1.8,2.511A16.574,16.574,0,0,1,1778.941,1025.6Z" transform="translate(-1744.43 -1015.874)"/><path class="f" d="M1791.032,1018.046l-15.041,8.156s6.206-10.93,8.754-15.1a14.809,14.809,0,0,1,3.879,3.178,15.25,15.25,0,0,1,1.646,2.294A15.04,15.04,0,0,1,1791.032,1018.046Z" transform="translate(-1754.811 -1010.579)"/></g><g transform="translate(16.437 69.724)"><path class="d" d="M1709.493,1322.677l-79.139-.005,8.012-45.662,79.139.005Zm-78.5-.465,78.022.005,7.851-44.742-78.022-.005Z" transform="translate(-1630.354 -1277.01)"/><g transform="translate(4.232 25.274)"><path class="f" d="M1718.783,1406.754l-70.187-.005s12.45-6.676,15.866-6.327,8.324,3.053,11.48,3.158,6.574-9.371,10.088-8.925,4.835,8.829,6.655,8.01,7.282-1.173,10.428,0,7.731-3.731,10.5-3.577S1718.783,1406.754,1718.783,1406.754Z" transform="translate(-1648.596 -1392.622)"/><g transform="translate(3.205)"><path class="f" d="M1676.963,1386.651h-13.406l.125-.711h13.406Z" transform="translate(-1663.291 -1385.939)"/><path class="f" d="M1675.815,1393.2h-13.406l.125-.711h13.406Z" transform="translate(-1662.409 -1390.966)"/></g></g><g transform="translate(8.248 3.69)"><path class="d" d="M1665.905,1308.1l70.188.005s-10.107-6.678-13.646-6.328-9.4,3.051-12.588,3.156-3.286-9.372-6.956-8.926-7.934,8.828-9.466,8.009-6.87-1.174-10.428,0-6.422-3.732-9.242-3.578S1665.905,1308.1,1665.905,1308.1Z" transform="translate(-1665.905 -1295.278)"/><g transform="translate(2.976)"><path class="d" d="M1693.285,1293.628H1679.88l.125-.711h13.406Z" transform="translate(-1679.614 -1292.916)"/><path class="d" d="M1692.137,1300.173h-13.406l.125-.711h13.406Z" transform="translate(-1678.731 -1297.942)"/></g></g></g><g transform="translate(26.157 48.93)"><path class="d" d="M1675.327,1201.813h-3.078l2.675-14.426H1678Z" transform="translate(-1672.249 -1187.388)"/><path class="d" d="M1693.4,1212.574h-3.078l2.072-11.175h3.078Z" transform="translate(-1686.13 -1198.148)"/><path class="d" d="M1711.477,1210.989H1708.4l2.161-11.654h3.078Z" transform="translate(-1700.011 -1196.563)"/><path class="d" d="M1729.551,1220.221h-3.078l1.644-8.865h3.078Z" transform="translate(-1713.892 -1205.795)"/><path class="d" d="M1747.625,1218.085h-3.078l1.764-9.51h3.078Z" transform="translate(-1727.772 -1203.659)"/><path class="d" d="M1765.7,1225.151h-3.078l1.368-7.375h3.078Z" transform="translate(-1741.654 -1210.726)"/></g><g transform="translate(67.339 48.93)"><path class="f" d="M1852.819,1201.813h-3.078l2.675-14.426h3.078Z" transform="translate(-1849.741 -1187.388)"/><path class="f" d="M1870.894,1212.574h-3.078l2.072-11.175h3.078Z" transform="translate(-1863.622 -1198.148)"/><path class="f" d="M1888.969,1210.989h-3.078l2.161-11.654h3.078Z" transform="translate(-1877.503 -1196.563)"/><path class="f" d="M1907.043,1220.221h-3.078l1.644-8.865h3.078Z" transform="translate(-1891.384 -1205.795)"/><path class="f" d="M1925.118,1218.085h-3.079l1.764-9.51h3.078Z" transform="translate(-1905.265 -1203.659)"/><path class="f" d="M1943.193,1225.151h-3.078l1.368-7.375h3.078Z" transform="translate(-1919.146 -1210.726)"/></g><g transform="translate(71.987 11.689)"><g transform="translate(3.231 3.203)"><path class="d" d="M1893.72,1042.058H1883.7l.258-1.373h10.021Z" transform="translate(-1883.699 -1040.686)"/><path class="d" d="M1943.25,1042.058h-11.065l.258-1.373h11.065Z" transform="translate(-1920.935 -1040.686)"/><path class="d" d="M1990.517,1042.058h-7.054l.258-1.373h7.054Z" transform="translate(-1960.316 -1040.686)"/><path class="d" d="M2024.234,1042.058h-5.444l.258-1.373h5.444Z" transform="translate(-1987.447 -1040.686)"/></g><g transform="translate(2.131 9.06)"><path class="d" d="M1888.98,1067.3h-10.021l.258-1.373h10.021Z" transform="translate(-1878.959 -1065.93)"/><path class="d" d="M1938.509,1067.3h-11.065l.258-1.373h11.065Z" transform="translate(-1916.195 -1065.93)"/><path class="d" d="M1985.777,1067.3h-7.054l.258-1.373h7.054Z" transform="translate(-1955.576 -1065.93)"/><path class="d" d="M2019.494,1067.3h-5.444l.258-1.373h5.444Z" transform="translate(-1982.706 -1065.93)"/></g><g transform="translate(3.832)"><path class="d" d="M1901.667,1028.253h-15.375l.258-1.373h15.375Z" transform="translate(-1886.292 -1026.88)"/><path class="d" d="M1967.733,1028.253h-8.863l.258-1.373h8.863Z" transform="translate(-1942.031 -1026.88)"/><path class="d" d="M2012.3,1028.253h-9.842l.258-1.373h9.842Z" transform="translate(-1975.504 -1026.88)"/></g><g transform="translate(2.663 6.228)"><path class="d" d="M1896.627,1055.094h-15.375l.258-1.373h15.375Z" transform="translate(-1881.252 -1053.722)"/><path class="d" d="M1962.693,1055.094h-8.862l.258-1.373h8.863Z" transform="translate(-1936.991 -1053.722)"/><path class="d" d="M2007.258,1055.094h-9.842l.258-1.373h9.842Z" transform="translate(-1970.464 -1053.722)"/></g><g transform="translate(1.031 14.917)"><path class="d" d="M1884.24,1092.547h-10.021l.258-1.373H1884.5Z" transform="translate(-1874.219 -1091.174)"/><path class="d" d="M1933.768,1092.547H1922.7l.258-1.373h11.065Z" transform="translate(-1911.454 -1091.174)"/><path class="d" d="M1981.036,1092.547h-7.054l.258-1.373h7.054Z" transform="translate(-1950.835 -1091.174)"/><path class="d" d="M2014.753,1092.547h-5.444l.258-1.373h5.444Z" transform="translate(-1977.966 -1091.174)"/></g><g transform="translate(1.563 12.085)"><path class="d" d="M1891.886,1080.339h-15.375l.258-1.373h15.375Z" transform="translate(-1876.511 -1078.967)"/><path class="d" d="M1957.952,1080.339h-8.863l.258-1.373h8.863Z" transform="translate(-1932.249 -1078.967)"/><path class="d" d="M2002.517,1080.339h-9.842l.258-1.373h9.842Z" transform="translate(-1965.723 -1078.967)"/></g><g transform="translate(0 20.409)"><path class="d" d="M1879.8,1116.214h-10.021l.258-1.373h10.021Z" transform="translate(-1869.774 -1114.841)"/><path class="d" d="M1929.325,1116.214H1918.26l.258-1.373h11.065Z" transform="translate(-1907.01 -1114.841)"/><path class="d" d="M1976.592,1116.214h-7.054l.258-1.373h7.054Z" transform="translate(-1946.39 -1114.841)"/><path class="d" d="M2010.309,1116.214h-5.444l.258-1.373h5.444Z" transform="translate(-1973.522 -1114.841)"/></g><g transform="translate(0.532 17.576)"><path class="d" d="M1887.442,1104.006h-15.375l.258-1.373H1887.7Z" transform="translate(-1872.066 -1102.633)"/><path class="d" d="M1953.507,1104.006h-8.863l.258-1.373h8.863Z" transform="translate(-1927.805 -1102.633)"/><path class="d" d="M1998.073,1104.006h-9.842l.258-1.373h9.842Z" transform="translate(-1961.278 -1102.633)"/></g></g><g transform="translate(53.759 48.836)"><path class="d" d="M1798.439,1194.41h-4.905l.126-.672h4.905Z" transform="translate(-1792.996 -1192.171)"/><path class="d" d="M1822.682,1194.41h-5.416l.126-.672h5.416Z" transform="translate(-1811.221 -1192.171)"/><path class="d" d="M1796.119,1206.767h-4.9l.126-.672h4.905Z" transform="translate(-1791.214 -1201.66)"/><path class="d" d="M1820.361,1206.767h-5.416l.126-.672h5.416Z" transform="translate(-1809.439 -1201.66)"/><path class="d" d="M1802.328,1187.653H1794.8l.126-.672h7.526Z" transform="translate(-1793.97 -1186.981)"/><path class="d" d="M1834.665,1187.653h-4.338l.126-.672h4.338Z" transform="translate(-1821.252 -1186.981)"/><path class="d" d="M1799.861,1200.792h-7.526l.126-.672h7.526Z" transform="translate(-1792.076 -1197.072)"/><path class="d" d="M1832.2,1200.792h-4.338l.126-.672h4.338Z" transform="translate(-1819.358 -1197.072)"/></g><g transform="translate(93.051 48.836)"><path class="d" d="M1967.787,1194.41h-4.905l.126-.672h4.905Z" transform="translate(-1962.344 -1192.171)"/><path class="d" d="M1992.03,1194.41h-5.416l.126-.672h5.416Z" transform="translate(-1980.57 -1192.171)"/><path class="d" d="M1965.468,1206.767h-4.905l.126-.672h4.905Z" transform="translate(-1960.562 -1201.66)"/><path class="d" d="M1989.71,1206.767h-5.416l.126-.672h5.416Z" transform="translate(-1978.788 -1201.66)"/><path class="d" d="M1971.677,1187.653h-7.526l.126-.672h7.526Z" transform="translate(-1963.319 -1186.981)"/><path class="d" d="M2004.014,1187.653h-4.338l.126-.672h4.338Z" transform="translate(-1990.601 -1186.981)"/><path class="d" d="M1969.209,1200.792h-7.526l.126-.672h7.526Z" transform="translate(-1961.423 -1197.072)"/><path class="d" d="M2001.547,1200.792h-4.338l.126-.672h4.338Z" transform="translate(-1988.706 -1197.072)"/></g></g></g><g transform="translate(1259.264 821.477)"><g transform="translate(0 192.588)"><path class="g" d="M2021.66,1667.7c-.172,2.347-3.484,2.373-7.242,1.937s-2.759.515-8.021.588-7.076-1.666-7.331-2.418c-.227-.667,2.308-1.229,5.019-1.889.341-.082.683-.168,1.025-.254,3.057-.777,5.082-3.066,7.7-5.064,2.478-1.893,5.673-8.742,5.673-8.742l7.189-.325s-3.027,6.14-4.165,8.787a8.671,8.671,0,0,0-.093,4.938A9.187,9.187,0,0,1,2021.66,1667.7Z" transform="translate(-1999.051 -1651.533)"/><path class="h" d="M2014.417,1715.066c-3.759-.436-2.759.515-8.021.588s-7.076-1.666-7.331-2.418c-.227-.667,2.308-1.229,5.019-1.889l.032.05a14.747,14.747,0,0,0,7.722,1.383c3.532-.354,7.136-1.828,9.573-2.093a9.19,9.19,0,0,1,.249,2.442C2021.488,1715.477,2018.176,1715.5,2014.417,1715.066Z" transform="translate(-1999.051 -1696.963)"/></g><g transform="translate(49.648 188.267)"><path class="g" d="M2235.644,1653.882c-.17,2.348-3.482,2.376-7.241,1.944s-2.759.518-8.021.6-7.078-1.659-7.333-2.411c-.228-.667,2.306-1.231,5.017-1.894.341-.082.683-.169,1.025-.255,3.057-.78,5.078-3.07,7.692-5.071,2.476-1.9,0-13.115,0-13.115l7.907-.77s-.379,9.447-.374,13.742c0,1.694.782,3.324,1.074,4.792A9.229,9.229,0,0,1,2235.644,1653.882Z" transform="translate(-2213.035 -1632.907)"/><path class="h" d="M2228.4,1717.172c-3.759-.432-2.759.518-8.021.6s-7.078-1.659-7.333-2.411c-.228-.667,2.306-1.231,5.017-1.894l.032.05a14.75,14.75,0,0,0,7.724,1.375c3.531-.358,7.134-1.836,9.571-2.1a9.227,9.227,0,0,1,.251,2.442C2235.474,1717.576,2232.162,1717.6,2228.4,1717.172Z" transform="translate(-2213.035 -1694.254)"/></g><path class="i" d="M2209.519,836.807c-1.361-5.6.612-8.206,2.392-9.594.844-2.061,1.808-3.546,2.793-4.106a10.085,10.085,0,0,1,5.457-1.044,2.554,2.554,0,0,0-1.151-.546,8.46,8.46,0,0,1,3.019.788c12.992-5.006,15.034,14.124,14.761,18.568s-.235,9.678,6.525,13.18c12.9,6.681-4.286,31.859-4.286,31.859.328-3.591-16.243-22.544-24.889-28.221-2.1-3.1-2.853-8.572-2.909-9,.363,4.34,1.106,6.774,1.77,8.145C2209.06,853.208,2208.476,844.5,2209.519,836.807Z" transform="translate(-2160.337 -821.477)"/><path class="g" d="M2233.146,936.414c-.043.02,4.174,2.21,7.347,1.342,2.984-.814,4.934-4.683,4.893-4.692-1.264-.251-1.628-1.987-1.6-9.45l-.572.113-9.605,1.9s.218,3.023.225,5.871C2233.839,933.891,2233.694,936.159,2233.146,936.414Z" transform="translate(-2178.832 -899.916)"/><path class="j" d="M2235.135,926s.218,3.023.225,5.871c5.376-.151,8.217-5.055,9.381-7.773Z" transform="translate(-2180.359 -900.289)"/><path class="k" d="M2066.31,1314.872a2.357,2.357,0,0,0,2.136,3.07l3.752.175,3.971.122a3.189,3.189,0,0,0,2.57-1.173,111.646,111.646,0,0,0,18.843-35.676q.249-.792.528-1.6c3.908-11.4,12.01-25.7,16.28-38.647.68-2.062,1.29-4,1.837-5.841.175-.589.346-1.166.509-1.735a137.378,137.378,0,0,0,4.9-25.78l-30.831.247A679.128,679.128,0,0,1,2066.31,1314.872Z" transform="translate(-2050.618 -1118.154)"/><path class="e" d="M2176.057,1000.241c.078,14.671-2.153,20.965-2.153,20.965a41.429,41.429,0,0,0,28.89,1.77c.185-.058,11.225-3.184,11.225-3.184-.263-.594-2.444-10.41-2.7-10.955-3.312-7.113-4.215-10.1-4.608-12.287a46.515,46.515,0,0,1-.382-12.292,98.636,98.636,0,0,1,3.8-19.3c-4.275-.973-8.278-2.681-12.728-4.35-1.023,1.274-4.152,2.608-6.866,2.547-3.125-.069-4.139-1.407-3.976-2.867-3.33,1.853-5.988,3.6-5.988,3.6-2.831,4.917-8.571,9.691-8.987,17.233C2171.487,982.977,2176.054,999.83,2176.057,1000.241Z" transform="translate(-2131.556 -928.08)"/><path class="l" d="M2289.8,1055.149c1.348,1.908,3.932,13.5,10.36,14.958-3.312-8.263-5.827-11.886-6.22-14.426a62.677,62.677,0,0,1-.382-14.277c-2.152-3.772-3.758-6.358-3.758-6.358-.169-.61-3.42-10.661-4.461-1.677S2288.29,1053.015,2289.8,1055.149Z" transform="translate(-2218.781 -981.352)"/><path class="g" d="M2213.376,872.885s12.718.21,12.727-7.713,1.656-13.231-6.464-13.7-9.7,2.552-10.347,5.2S2210.068,872.627,2213.376,872.885Z" transform="translate(-2160.396 -844.476)"/><path class="i" d="M2229.426,845.468s3.482,9.294,8.826,10.668,7.662-.057,7.662-.057a15.134,15.134,0,0,1-4.95-8.941S2232.053,841.045,2229.426,845.468Z" transform="translate(-2175.975 -838.665)"/><path class="i" d="M2211.831,849.033s-2.6,2.075-3.235,4.092-.919,6.17-2.13,6.029c0,0-2.623-6.317.325-9.891C2209.917,845.474,2211.831,849.033,2211.831,849.033Z" transform="translate(-2157.517 -841.476)"/><path class="g" d="M2121.264,1176.382l-6.007,18.314,3.426,1.374,9.932-16.18Z" transform="translate(-2088.295 -1094.037)"/><path class="m" d="M2152.4,971.168s-7.083,2.811-9.133,7.193-5.154,33.775-6.39,36.794-2.166,5.408-2.166,5.408,3.571,3.009,7.163,3.23S2152.4,971.168,2152.4,971.168Z" transform="translate(-2103.237 -936.437)"/><path class="m" d="M2172.383,960.286s-7.358,18.178-7.575,21.857-.865,60.16-.865,60.16.433,2.6-4.544,1.515-6.276-2.164-6.276-2.164,4.761-34.841,3.462-46.959,9.954-31.883,9.954-31.883Z" transform="translate(-2117.375 -928.08)"/><path class="n" d="M2092.063,1392.046l4.311.132a2.492,2.492,0,0,0,2-.9,111.266,111.266,0,0,0,19.073-35.957q.25-.792.528-1.6c3.908-11.4,12.01-25.7,16.28-38.647.679-2.062,1.29-4,1.837-5.841.175-.589.346-1.166.509-1.735l-4.541-3.445s-13.631,22.073-17.851,42.845C2110.544,1364.936,2095.863,1386.647,2092.063,1392.046Z" transform="translate(-2070.482 -1192.082)"/><path class="k" d="M2252.382,1329.437c-.074,9.556.379,30.856,1.542,41.268a1.882,1.882,0,0,0,1.871,1.672h3.217c1.356,0,2.37-.01,3.044-.02a1.238,1.238,0,0,0,1.193-1c3.2-16.279,5.489-29.8,7.165-41.489,1.4-9.781,2.649-18.167,3.607-25.386.965-7.265,1.636-13.348,1.876-18.487q.055-1.214.08-2.361t.013-2.24l-26.639-2.6C2249.688,1296.5,2252.425,1323.566,2252.382,1329.437Z" transform="translate(-2191.278 -1172.692)"/><path class="n" d="M2290.986,1396.2c1.218,0,2.161-.008,2.828-.017a1.5,1.5,0,0,0,1.451-1.212c3.178-16.185,5.455-29.643,7.123-41.279,1.4-9.781,2.649-18.167,3.607-25.386.966-7.265,1.636-13.348,1.876-18.487l-9.775,5.75s6.239,2.2,3.859,18.864S2294.3,1393.842,2290.986,1396.2Z" transform="translate(-2223.252 -1196.516)"/><path class="m" d="M2255.434,1042.446s1.876,6.78,8.368,5.914,15.724-4.761,15.724-4.761-2.774-8.766-6.224-20.283c-4.177-13.943-9.346-31.917-11.783-43.254a70.07,70.07,0,0,1-1.324-7.73l-5.386-10.45s-8.031,18.024-8.463,22.568S2255.434,1042.446,2255.434,1042.446Z" transform="translate(-2188.957 -929.305)"/><path class="g" d="M2230.447,983.773l-7.109-21.891c.019.009,8.978,2.666,13.485,4.943,0,0,2.817,3.631,4.56,12.01,0,0,1.841,20.115-2.27,27.472,0,0-12.984,2.6-33.759-4.544V997s22.722,1.19,27.375,1.731Z" transform="translate(-2157.488 -929.305)"/><path class="f" d="M2286.786,1054.147c.29,7.358,2.021,21.64,17.457,29.286.041.019.082.041.123.058-4.176-13.943-9.346-31.917-11.783-43.254C2289.749,1044.474,2286.628,1050.1,2286.786,1054.147Z" transform="translate(-2220.022 -989.481)"/><path class="m" d="M2280.345,961.882s13.177.928,16.352,8,4.184,30.585.144,37.51c0,0-5.562,1.584-15.4-.256l-.364-.069s-3.138-7.682-.325-9.2c0,0,8.3.433,7.43-2.308S2280.345,961.882,2280.345,961.882Z" transform="translate(-2214.495 -929.305)"/><g transform="translate(31.248 63.911)"><path class="i" d="M2140.469,1103.661l.388,1.248,21.623-6.726a.831.831,0,0,0,.146-.765.612.612,0,0,0-.534-.483Z" transform="translate(-2138.905 -1096.935)"/><path class="i" d="M2133.729,1127.1l1.564-1.179.388,1.248Z" transform="translate(-2133.729 -1119.199)"/></g><path class="g" d="M2097.241,1253.157s-5.485,3.031-6.207,5.341-.226,7.145.645,7.073,2.17-5.2,2.891-5.557,1.732-1.443,1.732-.65-.722,2.237-.361,2.454,1.516-2.02,2.31-2.454,1.127-4,1.9-4.96S2097.241,1253.157,2097.241,1253.157Z" transform="translate(-2069.426 -1152.999)"/><path class="g" d="M2164.26,1104.626s-4.905-3.021-6.963-2.557-7.3,4.263-4.78,5.086,4.565-.04,5.536.557,1.686,1.69,6.207,1.675S2164.26,1104.626,2164.26,1104.626Z" transform="translate(-2116.394 -1036.929)"/></g><g transform="translate(1035.764 867.823)"><g class="o" transform="translate(9.169 53.655)"><g transform="translate(23.692 53.461)"><path class="b" d="M1178.328,1540.039h-.081a.85.85,0,0,1-.849-.869l1.288-55.825,3.794-.443-3.235,56.271A.918.918,0,0,1,1178.328,1540.039Z" transform="translate(-1177.397 -1482.903)"/></g><g transform="translate(1.584 53.461)"><path class="b" d="M1083.038,1540.039h-.081a.849.849,0,0,1-.849-.869l1.288-55.825,3.794-.443-3.235,56.271A.918.918,0,0,1,1083.038,1540.039Z" transform="translate(-1082.108 -1482.903)"/></g><g transform="translate(59.37 53.461)"><path class="b" d="M1335.321,1540.039h.081a.85.85,0,0,0,.849-.869l-1.288-55.825-3.794-.443,3.235,56.271A.918.918,0,0,0,1335.321,1540.039Z" transform="translate(-1331.169 -1482.903)"/></g><path class="b" d="M1075.283,1302.927v-38.253a12.188,12.188,0,0,1,12.188-12.188h27.561a12.188,12.188,0,0,1,12.188,12.188v39.716Z" transform="translate(-1075.283 -1252.486)"/><path class="b" d="M0,0H56.874a0,0,0,0,1,0,0V6.039a0,0,0,0,1,0,0H6.039A6.039,6.039,0,0,1,0,0V0A0,0,0,0,1,0,0Z" transform="translate(0 50.441)"/><path class="b" d="M3.019,0H42.651a3.02,3.02,0,0,1,3.02,3.02v0a3.02,3.02,0,0,1-3.02,3.02H3.02A3.02,3.02,0,0,1,0,3.02v0A3.019,3.019,0,0,1,3.019,0Z" transform="translate(20.286 50.441)"/></g><g transform="translate(0 0)"><path class="g" d="M1461.224,1588.786c.385,1.923,3.125,1.6,6.187.854s2.334.141,6.692-.341,5.678-2.107,5.811-2.755c.119-.575-2.034-.778-4.344-1.044-.29-.033-.582-.068-.874-.1-2.608-.327-4.517-2.01-6.886-3.392-2.244-1.309-5.592-6.642-5.592-6.642l-5.977.474s3.136,4.764,4.349,6.834a7.225,7.225,0,0,1,.587,4.073A7.672,7.672,0,0,0,1461.224,1588.786Z" transform="translate(-1358.683 -1446.793)"/><path class="h" d="M1483.6,1623.2c3.062-.748,2.334.141,6.692-.341s5.678-2.107,5.811-2.755c.119-.575-2.034-.778-4.344-1.044l-.022.044a12.287,12.287,0,0,1-6.241,1.94c-2.956.072-6.088-.775-8.13-.742a7.675,7.675,0,0,0,.046,2.044C1477.8,1624.268,1480.536,1623.947,1483.6,1623.2Z" transform="translate(-1374.87 -1480.353)"/><path class="g" d="M1255.207,1629.567c-1.188,1.561.866,3.4,3.453,5.2s1.438,1.844,4.683,4.793,5.337,2.864,5.91,2.535c.51-.291-.762-2.04-2.091-3.948-.168-.239-.334-.482-.5-.725-1.48-2.172-1.481-4.717-2.012-7.407-.5-2.549,3.659-11.915,3.659-11.915l-6.686-.842A74.753,74.753,0,0,1,1260,1625.2c-.441,1.341-2.3,2.225-3.29,2.981A7.672,7.672,0,0,0,1255.207,1629.567Z" transform="translate(-1204.027 -1478.973)"/><path class="h" d="M1258.66,1670.907c2.587,1.8,1.438,1.844,4.683,4.793s5.337,2.864,5.91,2.535c.51-.291-.762-2.04-2.091-3.948l-.048.013a12.285,12.285,0,0,1-5.583-3.4c-2.01-2.17-3.446-5.079-4.822-6.588a7.675,7.675,0,0,0-1.5,1.387C1254.019,1667.262,1256.073,1669.105,1258.66,1670.907Z" transform="translate(-1204.027 -1515.108)"/><path class="p" d="M1299.856,1429.262l-6.106,16.431-7.972,21.455a12.914,12.914,0,0,1-4.235-.387,18.372,18.372,0,0,1-4.1-1.994s2.214-23.036,6.343-36.26c1.058-3.394,2.244-6.14,3.553-7.685C1293.744,1413.256,1299.856,1429.262,1299.856,1429.262Z" transform="translate(-1221.371 -1326.55)"/><path class="k" d="M1151.773,1340.588c-4-1.29-16.055-.521-27.517,1.723l-1.755-3.071-24.756-1.933s-8.169,18.116-3.7,29.66a4.186,4.186,0,0,0,4.19,2.82s.361,0,.362,0,14.735-.009,19.519-.009c12.312,0,26.056-8.463,27.834-8.819,2.91-.582,4.074,5.238,6.984,11.35s27.356,27.065,27.356,27.065a21.517,21.517,0,0,0,5.309-.545,5.231,5.231,0,0,0,2.28-1.439S1160.795,1343.5,1151.773,1340.588Z" transform="translate(-1079.497 -1263.972)"/><path class="h" d="M1082,1021.565c-3.484-.83-8.216.145-9,.236-9.4,1.1-11.5,15.7-10.8,19.786,1.289,7.528-2.327,9.649-6.641,15.67-8.651,12.073-2.675,22.014,4.367,24.478,4.226,1.478,9.983-2.547,9.983-2.547.106.04,14.948-14.131,22.291-21.013C1104.537,1053.088,1090.882,1023.679,1082,1021.565Z" transform="translate(-1047.668 -1021.232)"/><path class="g" d="M1149.212,1133.463c.044.015-3.828,2.544-6.983,2.012-2.968-.5-6.108-4.372-6.069-4.384,1.2-.366,2.26-1.767,1.511-8.989l.564.053,9.485.91s.081,2.948.352,5.706C1148.3,1131.087,1148.657,1133.269,1149.212,1133.463Z" transform="translate(-1112.866 -1098.698)"/><path class="j" d="M1154.589,1123.242s.081,2.948.351,5.706c-5.219.375-8.446-4.1-9.837-6.616Z" transform="translate(-1119.735 -1098.875)"/><path class="g" d="M1148.521,1069.133s-12.293,1.436-13.07-6.233-2.887-12.65,4.93-13.891,9.64,1.53,10.522,4.027S1151.7,1068.562,1148.521,1069.133Z" transform="translate(-1111.667 -1042.329)"/><path class="h" d="M1137.639,1045.3s-5.937,8.5-10.977,10.347-7.424.688-7.424.688a20.859,20.859,0,0,0,3.2-7.867,3.755,3.755,0,0,1,2.453-2.911C1128.5,1044.29,1135.471,1042.357,1137.639,1045.3Z" transform="translate(-1099.87 -1038.527)"/><path class="h" d="M1177.4,1045.8a19.333,19.333,0,0,1,4.441,3.433,14.848,14.848,0,0,1,2.341,7.549s2-8.724-1.2-11.9C1179.586,1041.519,1177.4,1045.8,1177.4,1045.8Z" transform="translate(-1144.539 -1038.406)"/><path class="e" d="M1124.2,1180.03c-.371,24.832-.1,19.643-2.818,22-.655.567-2.495.905-4.916,1.065-7.614.505-21-.749-21.508-2.156-1.756-4.869-.516-6.382-1.982-13.836-.153-.793-.342-1.651-.564-2.585-1.222-5.12-2.411-6.861,1.924-15.087,3.931-7.451,8.176-13.4,8.543-13.184,10.37,6.156,11.046.886,11.046.886S1124.379,1167.918,1124.2,1180.03Z" transform="translate(-1078.398 -1124.917)"/><path class="k" d="M1292.832,1477.854l-8.154,22.348a13.773,13.773,0,0,1-5.062.644,6.34,6.34,0,0,1-3.365-1.5s2.491-25.453,6.62-38.676Z" transform="translate(-1220.454 -1358.711)"/><path class="e" d="M1188.872,1160.08s10.671,1.809,11.924,6.4,10.417,29.912,10.417,29.912-7.214,2.667-9.72.16-8.72-23.25-8.72-23.25Z" transform="translate(-1153.348 -1127.865)"/><path class="q" d="M1122.073,1278.334c-7.614.505-21-.749-21.508-2.156-1.756-4.869-.516-6.382-1.982-13.836l3.571-8.131s-.506,9.306,2.89,12.335,13.9,5.847,15.556,8.378A9.26,9.26,0,0,1,1122.073,1278.334Z" transform="translate(-1084.008 -1200.156)"/><g transform="translate(28.051 70.531)"><path class="g" d="M1202.5,1335.344a16.948,16.948,0,0,0,2.913,2.114,1.793,1.793,0,0,0,1.012.011l-1.653-1.936Z" transform="translate(-1191.863 -1332.995)"/><path class="g" d="M1198.624,1325.41l5.742,1.482a.95.95,0,0,1-.8.51,12.718,12.718,0,0,1-2.394-.165Z" transform="translate(-1188.889 -1325.366)"/><path class="g" d="M1156.664,1328.43s8.2-3.647,9.736-3.165,5.484,2.571,6.1,3.451-3.232-.109-4.434-.185c-.779-.049-2.586,1.02-3.484,1.536-3.778,2.169-6.4,1.977-6.4,1.977Z" transform="translate(-1156.664 -1325.221)"/></g><path class="e" d="M1060.242,1156.266s-11.6,2.176-13.746,5.391c-4.688,7.013-14.666,36.072-9.078,39.969,6.293,4.388,28.641,1.148,28.641,1.148s.744-3.476-.291-5.158-17.85-4.4-18.626-5.174,7.667-12,6.768-14.146C1051.03,1171.415,1060.242,1156.266,1060.242,1156.266Z" transform="translate(-1035.764 -1124.936)"/><g transform="translate(69.291 72.501)"><path class="g" d="M1335.439,1333.711s8.115,2.192,8.95,3.452,2.469,5.111,2.4,6.116-2.285-1.989-3.115-2.754c-.537-.5-2.484-.787-3.441-.942a10.254,10.254,0,0,1-4.48-2.045,2.458,2.458,0,0,0-1.343-.3Z" transform="translate(-1334.409 -1333.711)"/><path class="g" d="M1374.368,1358.1a15.88,15.88,0,0,0,.869,3.258,1.686,1.686,0,0,0,.729.607l-.058-2.385Z" transform="translate(-1365.097 -1352.442)"/><path class="g" d="M1377.423,1348.588l3.3,4.471a.89.89,0,0,1-.882-.1,11.909,11.909,0,0,1-1.643-1.534Z" transform="translate(-1367.443 -1345.136)"/><path class="g" d="M1340.2,1350.2a5.114,5.114,0,0,0,2.254,2.481c1.5.655,2.6,1.638,2.846,1.284s-1.137-2.215-1.137-2.215Z" transform="translate(-1338.853 -1346.375)"/></g><path class="e" d="M1250.831,1290.8l17.068,10.791s-1.793,2.4-2.391,2.617c-3.161,1.159-17.375.049-22.243-7.261Z" transform="translate(-1195.121 -1228.254)"/><g transform="translate(31.491 73.467)"><path class="r" d="M1245.349,1339.047c1.007,0,11.025-.694,11.025-.694a4.74,4.74,0,0,0,.33,2.725l-9.763,1.868-2.007-.588Z" transform="translate(-1227.895 -1338.242)"/><path class="m" d="M1172.236,1342.955l16.71-1.61s-.588,3.091,1.593,3.9l-18.422,1.347S1170.633,1344.5,1172.236,1342.955Z" transform="translate(-1171.491 -1340.54)"/><path class="m" d="M1256.739,1338.208l-11.293.869s.085-.39.3-.4,11.218-.8,11.218-.8l-.039.308Z" transform="translate(-1228.287 -1337.877)"/><path class="m" d="M1251.116,1351.042l9.945-1.89-.091-.257-10.6,2.03Z" transform="translate(-1232.069 -1346.338)"/></g></g></g></g></svg>