<svg xmlns="http://www.w3.org/2000/svg" width="383.763" height="286.402" viewBox="0 0 383.763 286.402"><defs><style>.a{fill:#e7f3fe;}.b{fill:#fcecdb;}.c{fill:#699dee;}.d{fill:#548ee2;}.e{fill:#f4d2b8;}.f{fill:#2b478b;}.g{fill:#568cdb;}.h{fill:#b5453c;}.i{fill:#d24b44;}.j{fill:#233862;}.k{fill:#ffb27d;}.l{fill:#ed975d;}.m{fill:#fff;}.n{fill:#ebf3ff;}.o{fill:#f37168;}.p{fill:#ed7d2b;}</style></defs><path class="a" d="M302.54,262.131c114.087,19.426,55.731-13.971,133.423-18.473S524.7,268.91,564.768,318.474c27.346,33.825,27.561,95.7-9.935,133.364-50.966,51.2-205.961,25.219-239.488,16.506-38.627-10.038-66.866-40.493-78.339-77.456C209.359,301.823,275.416,253.728,302.54,262.131Z" transform="translate(-261.983 -159.53) rotate(-8)"/><g transform="translate(86.113 163.129)"><g transform="translate(0 33.831)"><path class="b" d="M0,0H81.439A14.663,14.663,0,0,1,96.1,14.663v0a15,15,0,0,1-15,15H0a0,0,0,0,1,0,0V0A0,0,0,0,1,0,0Z" transform="translate(4.459 0)"/><path class="c" d="M2037.412,1550.94v4.462a12.991,12.991,0,0,1-13,12.994H1867.06a1.884,1.884,0,0,1-1.885-1.883v-.668a1.884,1.884,0,0,1,1.885-1.883h95.923a12.112,12.112,0,0,0,2.752-7.693V1550.6a11.81,11.81,0,0,0-2.613-7.422H1867.06a1.885,1.885,0,0,1-1.885-1.885v-.667a1.885,1.885,0,0,1,1.885-1.885h158.149a12.195,12.195,0,0,1,12.2,12.2Z" transform="translate(-1865.175 -1538.737)"/><path class="d" d="M2036.942,1547.577h-71.595a11.837,11.837,0,0,0-2.224-4.4H1867.06a1.885,1.885,0,0,1-1.885-1.885v-.667a1.885,1.885,0,0,1,1.885-1.885h158.149A12.206,12.206,0,0,1,2036.942,1547.577Z" transform="translate(-1865.175 -1538.737)"/><path class="e" d="M1885.8,1607.334l11.651.5-11.651.3Z" transform="translate(-1881.34 -1592.504)"/><path class="e" d="M1885.8,1628.859l27.719.5-27.719.3Z" transform="translate(-1881.34 -1609.376)"/></g><g transform="translate(12.588 63.428)"><path class="f" d="M0,0H89.394a11.9,11.9,0,0,1,11.9,11.9v0A11.172,11.172,0,0,1,90.119,23.069H0a0,0,0,0,1,0,0V0A0,0,0,0,1,0,0Z" transform="translate(101.291 23.069) rotate(-180)"/><path class="b" d="M0,0H101.691a11.664,11.664,0,0,1,11.664,11.664v0A11.405,11.405,0,0,1,101.95,23.069H0a0,0,0,0,1,0,0V0A0,0,0,0,1,0,0Z" transform="translate(197.898 23.069) rotate(180)"/><path class="f" d="M2276.79,1769.841h123.681a1.725,1.725,0,0,0,1.725-1.725h0a1.725,1.725,0,0,0-1.725-1.725H2276.79a1.725,1.725,0,0,0-1.725,1.725h0A1.725,1.725,0,0,0,2276.79,1769.841Z" transform="translate(-2199.04 -1746.772)"/><path class="f" d="M2276.79,1679.091h123.681a1.725,1.725,0,0,0,1.725-1.725h0a1.725,1.725,0,0,0-1.725-1.725H2276.79a1.725,1.725,0,0,0-1.725,1.725h0A1.725,1.725,0,0,0,2276.79,1679.091Z" transform="translate(-2199.04 -1675.641)"/><path class="e" d="M2788.979,1729l-13.743.388,13.743.234Z" transform="translate(-2591.081 -1717.461)"/><path class="e" d="M2720.265,1704.438l-32.7.388,32.7.234Z" transform="translate(-2522.367 -1698.212)"/><g transform="translate(165.539 6.536)"><path class="c" d="M2689.125,1705.874a5.382,5.382,0,0,1,1.865,2.621,3.742,3.742,0,0,1,.146.911c.077,2.165,0,7.064,0,7.064l4.137-2.45,4.126,2.45v-6.64a5.27,5.27,0,0,0-1.011-3.277,1.566,1.566,0,0,0-1.143-.679Z" transform="translate(-2689.125 -1705.874)"/><path class="g" d="M2689.125,1705.874a5.382,5.382,0,0,1,1.865,2.621l8.29.1s-.325-2.333-2.036-2.717Z" transform="translate(-2689.125 -1705.874)"/></g></g><g transform="translate(8.778)"><path class="b" d="M0,0H87.741a17.137,17.137,0,0,1,17.137,17.137v0A16.757,16.757,0,0,1,88.121,33.894H0a0,0,0,0,1,0,0V0A0,0,0,0,1,0,0Z" transform="translate(180.9 33.894) rotate(180)"/><path class="h" d="M1983.951,1395.4v7.294a8.431,8.431,0,0,0,4.281,7.264,8.523,8.523,0,0,0,4.221,1.115h99.187a2.105,2.105,0,0,1,2.1,2.1v.861a2.1,2.1,0,0,1-2.1,2.1H1920.293a14.511,14.511,0,0,1-14.512-14.512v-5.755a13.619,13.619,0,0,1,13.626-13.626h172.234a2.1,2.1,0,0,1,2.1,2.1v.861a2.1,2.1,0,0,1-2.1,2.1H1992.15a8.217,8.217,0,0,0-6.033,2.632A8.066,8.066,0,0,0,1983.951,1395.4Z" transform="translate(-1905.781 -1382.247)"/><path class="e" d="M2696.456,1460.637l-12.715.57,12.715.343Z" transform="translate(-2515.556 -1443.69)"/><path class="e" d="M2632.879,1424.556l-30.25.57,30.25.343Z" transform="translate(-2451.98 -1415.409)"/><g transform="translate(150.961 9.603)"><path class="i" d="M2604.069,1426.668a6.353,6.353,0,0,1,2.657,2.841,3.183,3.183,0,0,1,.207.988c.11,2.347,0,7.659,0,7.659l5.894-2.656,5.879,2.656v-7.2a4.847,4.847,0,0,0-1.441-3.553,2.437,2.437,0,0,0-1.628-.736Z" transform="translate(-2604.069 -1426.668)"/><path class="i" d="M2604.069,1426.668a6.353,6.353,0,0,1,2.657,2.841l11.812.105a3.77,3.77,0,0,0-2.9-2.947Z" transform="translate(-2604.069 -1426.668)"/></g></g></g><g transform="translate(110.604 22.207)"><g transform="translate(0)"><path class="j" d="M2326.479,1318.71c5.228,9.1,11.8,12.611,11.8,12.611h27.355S2322.491,1311.769,2326.479,1318.71Z" transform="translate(-2246.072 -1190.355)"/><path class="k" d="M2341.906,1567.493a2.529,2.529,0,0,1,.451,2.7.022.022,0,0,1-.007.013c-.652,1.8-2.808,3.816-5.312,5.827-.32.258-.6.493-.852.711-.065.057-.13.114-.191.172s-.1.091-.147.133c-2.335,2.152-1.456,2.646-5.651,7.013-4.783,4.976-8.076,5.066-9.012,4.613-.793-.386.818-3.026,2.6-5.992.087-.143.171-.288.26-.432.238-.394.474-.795.71-1.191,2.091-3.57,1.554-5.245,1.058-10.559-.4-4.318-6.717-24.122-6.717-24.122l9.166-1.579s2.76,15.77,5.8,18.2c1.626,1.295,3.447,1.311,5.01,2.27q.166.1.325.206A12.025,12.025,0,0,1,2341.906,1567.493Z" transform="translate(-2240.489 -1368.738)"/><path class="j" d="M2348.722,1641.705a2.529,2.529,0,0,1,.451,2.7.022.022,0,0,1-.007.013c-.8,1.8-2.9,3.8-5.32,5.809-.316.262-.6.5-.844.729-.065.057-.13.114-.191.172s-.1.091-.147.133c-2.335,2.152-1.456,2.646-5.651,7.013-4.783,4.976-8.076,5.066-9.012,4.613-.793-.386.818-3.026,2.6-5.992a20.38,20.38,0,0,0,8.526-6.282c2.88-3.675,4.8-8.4,6.762-11.132q.166.1.325.206A12.029,12.029,0,0,1,2348.722,1641.705Z" transform="translate(-2247.305 -1442.951)"/><path class="k" d="M1983,1551.655c-.566,2.829-4.6,2.357-9.1,1.256s-3.435.208-9.848-.5-8.355-3.1-8.551-4.054c-.175-.846,2.993-1.145,6.392-1.536.428-.048.857-.1,1.286-.154,3.837-.482,6.647-2.958,10.133-4.991,3.3-1.926,8.228-9.774,8.228-9.774l8.794.7s-4.615,7.009-6.4,10.057c-1.05,1.792-.994,4.163-.863,5.993A11.287,11.287,0,0,1,1983,1551.655Z" transform="translate(-1955.488 -1358.625)"/><path class="j" d="M1973.893,1607c-4.506-1.1-3.435.208-9.848-.5s-8.355-3.1-8.551-4.054c-.175-.846,2.993-1.145,6.392-1.536l.032.065a18.076,18.076,0,0,0,9.184,2.855c4.35.106,8.958-1.141,11.963-1.092a11.287,11.287,0,0,1-.068,3.008C1982.432,1608.573,1978.4,1608.1,1973.893,1607Z" transform="translate(-1955.488 -1412.714)"/><path class="j" d="M2238.63,1312.054l8.221,22.122,10.733,28.884a17.387,17.387,0,0,0,5.7-.521,24.717,24.717,0,0,0,5.515-2.684s-2.98-31.014-8.54-48.817c-1.424-4.57-3.021-8.266-4.783-10.347C2246.858,1290.506,2238.63,1312.054,2238.63,1312.054Z" transform="translate(-2177.418 -1175.257)"/><path class="f" d="M2101.036,1184.639c5.386-1.737,20.748.494,36.178,3.514l3.231-5.329,33.33-2.6s11,24.39,4.977,39.931a5.636,5.636,0,0,1-5.641,3.8s-.485,0-.487,0-19.838-.012-26.279-.012c-16.576,0-35.08-11.394-37.474-11.873-3.918-.784-5.485,7.052-9.4,15.28s-36.83,36.438-36.83,36.438-5.059.05-7.148-.733a7.037,7.037,0,0,1-3.069-1.937S2088.89,1188.557,2101.036,1184.639Z" transform="translate(-2031.466 -1082.974)"/><path class="j" d="M2422.577,784.341c11.869,6.535,35.947,20.083,36.072,20,0,0,8.85,3.335,13.871,0,8.368-5.557,12.856-20.514-2.448-33.386-7.632-6.419-13.054-7.982-13.879-18.232-.447-5.561-8.049-23.914-20.679-22.216-1.056.142-7.552.445-11.822,2.687C2412.812,738.9,2404.784,781.812,2422.577,784.341Z" transform="translate(-2313.402 -730.392)"/><path class="k" d="M2501.022,886.547c-.052.034,5.84,2.045,9.779.3,3.707-1.638,6.514-7.736,6.459-7.739-1.686-.078-3.537-1.552-4.963-11.224l-.718.258-12.071,4.343s.875,3.873,1.44,7.561C2501.426,883.142,2501.682,886.109,2501.022,886.547Z" transform="translate(-2381.899 -838.16)"/><path class="l" d="M2499.509,873.419s.875,3.873,1.44,7.561c6.933-1.248,9.655-8.156,10.631-11.9Z" transform="translate(-2381.899 -839.094)"/><path class="k" d="M2460.451,801.622s16.516-2.217,14.977-12.481-.444-17.462-11.053-16.481-12.067,5.2-12.386,8.755S2456.115,801.934,2460.451,801.622Z" transform="translate(-2344.639 -763.452)"/><path class="j" d="M2454.831,772.5s10.573,9.111,17.764,9.846,9.914-1.574,9.914-1.574a28.086,28.086,0,0,1-6.79-9.2,5.056,5.056,0,0,0-4.168-2.981C2466.416,768.148,2456.681,767.946,2454.831,772.5Z" transform="translate(-2346.88 -760.163)"/><path class="j" d="M2454.441,776.521s-3.537,3.42-4.651,5.956c-1.075,2.448-1.4,8.3-.541,10.627,0,0-5.511-10.715-2.391-15.921C2450.167,771.663,2454.441,776.521,2454.441,776.521Z" transform="translate(-2339.881 -765)"/><path class="m" d="M2442.168,950.159c.5,33.432.137,26.446,3.794,29.618.881.764,3.358,1.219,6.619,1.434,10.251.681,28.272-1.008,28.957-2.9,2.365-6.555.7-8.592,2.668-18.628.206-1.067.46-2.223.759-3.481,1.645-6.893,3.246-9.238-2.59-20.312-5.292-10.031-10.79-18.172-11.284-17.878-13.962,8.288-15.088,1.322-15.088,1.322S2441.924,933.852,2442.168,950.159Z" transform="translate(-2336.952 -877.444)"/><path class="f" d="M2276.658,1381.6l10.733,28.885a17.387,17.387,0,0,0,5.7-.521,24.724,24.724,0,0,0,5.515-2.684s-2.98-31.014-8.54-48.817Z" transform="translate(-2207.225 -1222.686)"/><path class="m" d="M2405.856,924.142s-14.366,2.436-16.053,8.621-11.615,42.549-11.615,42.549,7.3,1.312,10.677-2.062,11.74-31.3,11.74-31.3Z" transform="translate(-2286.806 -882.256)"/><path class="n" d="M2490.346,1081.843c10.251.681,28.272-1.008,28.957-2.9,2.365-6.555.7-8.592,2.668-18.628l-4.945-13.923s.818,15.5-3.755,19.582-18.721,7.872-20.943,11.28A12.465,12.465,0,0,0,2490.346,1081.843Z" transform="translate(-2374.717 -978.076)"/><path class="k" d="M2479.753,1174.544s-10.114-2.252-11.745-1.354-5.62,4.166-6.119,5.3,3.633-.863,4.977-1.224c.871-.234,3.162.563,4.3.941,4.773,1.591,7.7.773,7.7.773Z" transform="translate(-2352.378 -1077.297)"/><path class="m" d="M2545.525,918s13.58.837,18.281,7.393c6.618,9.23,19.745,48.565,12.222,53.811-8.473,5.908-38.561,1.546-38.561,1.546s-1-4.68.392-6.944,24.032-5.921,25.077-6.966-13.061-20.375-13.061-23.51S2545.525,918,2545.525,918Z" transform="translate(-2411.377 -877.444)"/><path class="k" d="M2473.732,1186.977a19.557,19.557,0,0,1-2.814,3.06,2.073,2.073,0,0,1-1.144.245l1.428-2.57Z" transform="translate(-2358.593 -1088.27)"/><path class="k" d="M2468.008,1173.956l-6.161,2.992a1.1,1.1,0,0,0,1.021.394,14.687,14.687,0,0,0,2.672-.734Z" transform="translate(-2352.379 -1078.063)"/><g transform="translate(48.929 69.498)"><path class="o" d="M2245.214,1088.32h-48.736l-14.661-36.457h48.661Z" transform="translate(-2181.817 -1051.863)"/><path class="p" d="M2246.989,1213.929h64.356v1.42h-63.784Z" transform="translate(-2232.9 -1178.892)"/><path class="m" d="M2306.2,1127.768a1.689,1.689,0,0,1,1.655-2.321,3.326,3.326,0,0,1,2.986,2.321,1.689,1.689,0,0,1-1.655,2.32A3.324,3.324,0,0,1,2306.2,1127.768Z" transform="translate(-2279.235 -1109.539)"/></g></g></g></svg>