<svg xmlns="http://www.w3.org/2000/svg" xmlns:xlink="http://www.w3.org/1999/xlink" width="383.763" height="286.402" viewBox="0 0 383.763 286.402"><defs><style>.a{fill:#e7f3fe;}.b,.e{fill:#d34e47;}.c{fill:#ee726c;}.d{fill:#f1a34f;}.e{opacity:0.4;}.f{fill:#699dee;}.g{fill:#e9f3fe;}.h{fill:#afcdfb;}.i{fill:#2b478b;}.j{fill:#233862;}.k{fill:#c65447;}.l{fill:#fff;}.m{fill:#ffb27d;}.n{fill:#e2915a;}.o{fill:#adcbf9;}.p{filter:url(#a);}</style><filter id="a" x="124.943" y="118.115" width="53.717" height="56.255" filterUnits="userSpaceOnUse"><feOffset dy="3" input="SourceAlpha"/><feGaussianBlur stdDeviation="3" result="b"/><feFlood flood-opacity="0.161"/><feComposite operator="in" in2="b"/><feComposite in="SourceGraphic"/></filter></defs><path class="a" d="M302.54,262.131c114.087,19.426,55.731-13.971,133.423-18.473S524.7,268.91,564.768,318.474c27.346,33.825,27.561,95.7-9.935,133.364-50.966,51.2-205.961,25.219-239.488,16.506-38.627-10.038-66.866-40.493-78.339-77.456C209.359,301.823,275.416,253.728,302.54,262.131Z" transform="translate(-261.983 -159.53) rotate(-8)"/><g transform="translate(55.295 45.9)"><g transform="translate(0 0)"><path class="b" d="M1075.023,926.16,1064.18,1055.1s-1.136,7.816,4.677,7.83c9.559.023,47.578,0,47.578,0s-7.194-1.627-7.107-5.288c.1-4.315,12.674-132.7,12.674-132.7Z" transform="translate(-957.273 -855.998)"/><path class="c" d="M1135.831,1048.374c-1.88.005-38.192.12-47.5,0-4.057-.05-4.768-3.607-4.8-5.909a11.539,11.539,0,0,1,.123-1.919l.282-3.351.719-8.541.635-7.546.816-9.7.687-8.185,7.705-91.618,46.979-1.219s-5.295,53.728-9.04,92.837c-.418,4.358-.816,8.536-1.184,12.436q-.179,1.868-.345,3.648c-.347,3.7-.665,7.1-.941,10.1-.146,1.581-.28,3.05-.4,4.4-.478,5.274-.758,8.642-.762,9.283a5.405,5.405,0,0,0,.092,1.043C1129.662,1048.24,1135.125,1048.374,1135.831,1048.374Z" transform="translate(-973.584 -843.785)"/><path class="c" d="M422.463,496.123l26.414,106.1,3.617,14.531,12.3,49.418H693.351L648.007,496.123Z" transform="translate(-418.802 -496.123)"/><path class="c" d="M403.352,496.122l-3.661,1.22L440.818,669.86l4.867-3.691Z" transform="translate(-399.691 -496.122)"/><path class="b" d="M655.5,1557.5H882.648l6.273-3.691H660.366Z" transform="translate(-614.372 -1383.762)"/><rect class="c" width="49.181" height="2.337" transform="translate(170.076 206.978) rotate(180)"/><path class="d" d="M680.37,634.835,643.284,498.37h-223.1v-2.248H646.1l36.962,138.41Z" transform="translate(-416.893 -496.122)"/><path class="b" d="M1137.032,1576.76l-.254,1.787-46.252,9.344.635-7.546.3-3.584Z" transform="translate(-979.458 -1403.022)"/><path class="e" d="M1135.838,1692.6c-1.88.005-38.193.12-47.5,0-4.057-.05-4.768-3.607-4.8-5.909l46.034-8.661c-.478,5.274-.758,8.642-.762,9.283a5.406,5.406,0,0,0,.091,1.044C1129.67,1692.468,1135.133,1692.6,1135.838,1692.6Z" transform="translate(-973.591 -1488.013)"/><path class="e" d="M721.953,1261.425l-100.4,34.424-12.3-49.418Z" transform="translate(-575.558 -1125.801)"/><path class="f" d="M422.46,496.122H648L684.6,632.786H455.321Z" transform="translate(-418.8 -496.122)"/></g><path class="b" d="M1370.305,1421.946a7.729,7.729,0,0,0-7.248-6.069,4.857,4.857,0,0,0-4.889,6.069,7.729,7.729,0,0,0,7.248,6.069A4.857,4.857,0,0,0,1370.305,1421.946Z" transform="translate(-1203.974 -1268.005)"/><path class="g" d="M722.734,665.076H511.556L487.639,569.8l-1.832-7.305-1.565-6.232-1.252-4.989-2.416-9.624H688.709l.146.529,2.505,9.094,1.376,4.989,1.72,6.232,2.014,7.305Z" transform="translate(-467.57 -534.334)"/><path class="g" d="M722.734,667.1H511.556l-23.916-95.271-1.832-7.305-1.565-6.232-1.252-4.989-2.416-9.624H688.709l.146.529,2.505,9.094,1.376,4.989,1.72,6.232,2.014,7.305Z" transform="translate(-467.57 -536.035)"/><path class="h" d="M691.36,551.278H482.991l-2.416-9.624H688.629l.226.529Z" transform="translate(-467.57 -534.334)"/><g transform="translate(18.737 9.554)"><path class="g" d="M516.292,562.049a1.38,1.38,0,0,1,1.371-1.827,2.5,2.5,0,0,1,2.282,1.827,1.38,1.38,0,0,1-1.371,1.827A2.5,2.5,0,0,1,516.292,562.049Z" transform="translate(-516.235 -559.47)"/><ellipse class="g" cx="1.613" cy="2.069" rx="1.613" ry="2.069" transform="translate(5.334 2.418) rotate(-48.551)"/><path class="g" d="M594.693,562.049a1.38,1.38,0,0,1,1.371-1.827,2.5,2.5,0,0,1,2.282,1.827,1.38,1.38,0,0,1-1.371,1.827A2.5,2.5,0,0,1,594.693,562.049Z" transform="translate(-582.032 -559.47)"/></g><g transform="translate(50.971 23.087)"><path class="i" d="M965.207,899.479H944.326c-.2-1.632-.377-3.357-.535-5.156-.28-3.228-.495-6.7-.653-10.312q-.057-1.25-.1-2.52c-.04-1.077-.075-2.167-.105-3.262-.051-1.86-.091-3.741-.12-5.633a.011.011,0,0,1,0-.007c-.036-2.413-.055-4.842-.06-7.262v0q0-.906,0-1.81v0c0-.568,0-1.132,0-1.7.018-5.209.1-10.319.208-15.07.24-10.511.63-19.271.837-23.481v0c.084-1.729.138-2.689.138-2.689l.006,0c.047.007.364.066.862.186.366.089.83.211,1.357.373h0c.477.144,1,.322,1.556.531a.006.006,0,0,1,.005,0,18.2,18.2,0,0,1,2.908,1.4l.044.022a8.387,8.387,0,0,1,3.61,3.945c.551,1.439,1.841,9.174,3.4,19.447.044.293.087.588.133.886.824,5.455,1.716,11.576,2.611,17.826.948,6.623,1.9,13.388,2.768,19.656C963.939,890.232,964.629,895.241,965.207,899.479Z" transform="translate(-906.409 -791.498)"/><path class="j" d="M903.418,1200H879.112c-.466-2.005-.9-3.939-1.29-5.753a62.8,62.8,0,0,1-1.732-11.3,3.3,3.3,0,0,1,1.077-2.46,5.3,5.3,0,0,1,1.741-1.028,20.7,20.7,0,0,1,8.081-.71c1.048.066,2.111.167,3.159.295a92.11,92.11,0,0,1,11.139,2.131s.358,1.45.782,3.985c.318,1.9.673,4.416.937,7.385.153,1.725.277,3.6.346,5.608C903.372,1198.759,903.394,1199.376,903.418,1200Z" transform="translate(-850.468 -1092.023)"/><path class="k" d="M829.59,1189.538l-.242,1.756-1.177,8.526-.2,1.456-.73,5.286h-25.33c-.2-3.493-.378-6.9-.413-9.866,0-.329-.005-.651-.005-.968,0-4.469.393-7.782,1.674-8.619,1.452-.948,6.268-.688,11.4-.06.511.062,1.026.129,1.541.2,2.989.4,5.981.9,8.386,1.326,1.248.222,2.338.426,3.186.588C828.875,1189.391,829.59,1189.538,829.59,1189.538Z" transform="translate(-787.865 -1098.581)"/><path class="l" d="M801.494,818.136s13.916-9,23.9-4.4c1.59.733,3.4,2.78,4.7,4.211,3.608,3.975,10.657,67.126,10.657,67.126s-20.012,6.778-39.258-2.3Z" transform="translate(-787.866 -784.663)"/><path class="i" d="M955.055,819.159s14.087,5.773,16,10.209,8.109,31.677,8.109,34.872-10.8.714-12.536-4.438c-1.443-4.278-6.312-17.421-8.88-25.734Z" transform="translate(-916.738 -790.31)"/><g transform="translate(18.343)"><path class="m" d="M879.956,780.823a15.85,15.85,0,0,1-10.9-2.22,31.364,31.364,0,0,0,2.323-8.205c.013-.1.022-.191.032-.282a8.382,8.382,0,0,0,.038-1.88H879.4s2.174.994,2.174,1.681q0,.551.01,1.054c.016.914.052,1.713.1,2.4a21.8,21.8,0,0,0,.407,3.282S883.062,780.214,879.956,780.823Z" transform="translate(-862.908 -747.575)"/><path class="n" d="M892.931,781.021a10.988,10.988,0,0,1-10.3-2.972c-.111-.121-.168-.192-.168-.192.063-.032.13-.06.2-.089,2.242-.908,7.331-.186,10.172.856C892.846,779.538,892.883,780.336,892.931,781.021Z" transform="translate(-874.155 -755.226)"/><path class="m" d="M863.357,683.95c1.076,5.793,8.551,5.6,11.782,5.239.909-.1,1.481-.217,1.481-.217,1.025-.274,1.6-1.888,1.863-4,.527-4.185-.139-10.329-.846-11.9-1.064-2.365-3.069-4.922-10.6-3.077S861.976,676.527,863.357,683.95Z" transform="translate(-856.853 -664.595)"/><path class="j" d="M851.88,644.963a17.212,17.212,0,0,0-5.192-4.237c-4.257-2.3-9.7.072-9.727.082-6.149,2.7-7.754,7.408-4.494,14.735,3.447,7.749,6.729,6.877,6.729,6.877s-.7-.433-.634-2.849c0-.137.009-.252.015-.351a1.624,1.624,0,0,0-.513-1.321c-.764-.682-1.136-2.743-.5-3.317.772-.692,1.856.149,2.2.8a.944.944,0,0,0,1.349.3c1.914-1.21.671-3.629,2.5-5.11s5.539-.237,8.283-1.417C855.493,647.812,852.655,646.036,851.88,644.963Z" transform="translate(-830.817 -639.722)"/></g><path class="i" d="M809.814,898.415h-30.3c.216-6.283.495-13.785.788-21.38.075-1.969.153-3.947.229-5.908.035-.832.065-1.658.1-2.484.67-16.867,1.334-32.1,1.474-32.919.318-1.856.619-3.437.944-4.809.952-4,2.134-6.187,4.714-8.072.251-.191,2.314-1.23,4.132-2.136,1.485-.737,2.806-1.381,2.846-1.4v0h0a2.914,2.914,0,0,1,.981,1.185,19.763,19.763,0,0,1,1.093,2.411,129.94,129.94,0,0,1,3.919,13.068.047.047,0,0,1,0,.013.014.014,0,0,1,0,.007v0c.67,2.626,1.15,4.669,1.286,5.257.233.99.538,2.906.9,5.5v.007c.489,3.539,1.073,8.341,1.692,13.79v0q.1.841.191,1.7.109.98.222,1.981v0c.024.215.047.429.069.644v0c.238,2.158.479,4.383.717,6.649a.01.01,0,0,0,0,.007c.2,1.867,3.035,3.219,3.232,5.12.015.138.029.418.047.808.036.8.08,2.08.133,3.555.022.657.046,1.354.071,2.065.111,3.162.247,6.627.4,8.293.007.078.014.178.02.3.018.333.033.822.046,1.437C809.8,894.418,809.81,896.287,809.814,898.415Z" transform="translate(-769.42 -790.435)"/><path class="j" d="M798.271,963.717c-.009.038-.482,17.056,12.318,19.123s4.3,2.614,4.3,2.614-24.085-1.024-24.482-1.66S798.271,963.717,798.271,963.717Z" transform="translate(-778.546 -911.627)"/><path class="j" d="M788.712,1110.112s-.24.17-.7.467a.178.178,0,0,0-.024.014,60.1,60.1,0,0,1-16.188,6.923q-1.329.36-2.745.677c.075-1.969.153-3.945.229-5.907a24.735,24.735,0,0,1-3.172-.439c.033-.259.068-.518.1-.777,1.073-.441,2.14-.865,3.169-1.267.838-.328,1.649-.639,2.417-.929,3.467-1.317,6.036-2.209,6.036-2.209l10.261,3.25Z" transform="translate(-758.171 -1031.594)"/><path class="i" d="M749.983,868.664s-1.318.329-3.417.752a.055.055,0,0,0-.022,0,84.087,84.087,0,0,1-16.189,1.81c-.857-.01-1.7-.043-2.516-.106a24.714,24.714,0,0,1-3.172-.439,9.868,9.868,0,0,1-5.068-2.393c-8.646-8.806,4.718-40.412,7.528-43.487,3.281-3.591,9.267-4.85,12.573-5.282l.4-.051c1.162-.138,1.908-.167,1.95-.168h0s-.259.833-.693,2.247c-.169.547-.364,1.182-.579,1.889-2.031,6.65-5.949,19.72-7.676,27.09-.633,2.7-.972,4.631-.817,5.208.674,2.517,7.66,3.811,12.085,4.384,1.846.239,3.247.351,3.56.375a.441.441,0,0,1,.065,0l.256,1.049.612,2.517.6,2.473Z" transform="translate(-716.727 -790.431)"/><g class="p" transform="matrix(1, 0, 0, 1, -106.27, -68.99)"><path class="l" d="M918.57,1020.871l-29.693-1.251,6.024-37,29.693,1.251Z" transform="translate(-754.93 -858.5)"/></g><path class="m" d="M902.59,1075.258s5.78-.4,6.07.944c.676,3.141-4.969,5.719-6.8,5.543S901.26,1075.048,902.59,1075.258Z" transform="translate(-871.321 -1005.188)"/><path class="m" d="M1067.7,1032.253s-5.53-1.729-6.124-.486c-1.384,2.9,3.511,6.714,5.331,6.965S1069.045,1032.357,1067.7,1032.253Z" transform="translate(-1005.932 -968.36)"/><path class="j" d="M858.91,807.745a10.787,10.787,0,0,0-3.651,2.908s9.089,15.781,9.049,15.633S861.235,809.766,858.91,807.745Z" transform="translate(-832.987 -780.731)"/><path class="j" d="M948.381,809.129a6.933,6.933,0,0,1,2.682,2.745l1.081,13.777s-2.307-10.111-3.481-14.681A7.74,7.74,0,0,1,948.381,809.129Z" transform="translate(-911.137 -781.893)"/><path class="k" d="M987.57,980.408a1.348,1.348,0,0,1,1.586-.907c1.352.119,8.945.493,8.945.493s1.464-.024,1.328.914Z" transform="translate(-944.026 -924.865)"/><path class="l" d="M933.4,763.975a3.169,3.169,0,0,0,2.576.62c.943-.165,1.471-1.391,1.471-1.391A7.121,7.121,0,0,0,933.4,763.975Z" transform="translate(-898.561 -743.313)"/></g><g transform="translate(116.61 28.035)"><g transform="translate(80.847)"><path class="l" d="M1656.914,697.727l-21.933.081-7.112-27.229,21.933-.081Z" transform="translate(-1627.869 -670.498)"/><g transform="translate(6.034 3.175)"><path class="o" d="M1681.9,690.649l-9.2.034-.105-.4,9.2-.034Z" transform="translate(-1671.44 -690.246)"/><path class="o" d="M1678.768,697.611l-11.546.043-.105-.4,11.546-.043Z" transform="translate(-1666.84 -696.089)"/><g transform="translate(0 6.661)"><path class="o" d="M1680.5,732.079l-15,.055-.105-.4,15-.055Z" transform="translate(-1665.397 -731.676)"/><path class="o" d="M1682.656,740.337l-15,.055-.105-.4,15-.055Z" transform="translate(-1667.207 -738.606)"/><path class="o" d="M1684.814,748.6l-15,.055-.105-.4,15-.055Z" transform="translate(-1669.017 -745.537)"/><path class="o" d="M1686.971,756.853l-15,.055-.105-.4,15-.055Z" transform="translate(-1670.828 -752.467)"/><path class="o" d="M1689.128,765.111l-15,.055-.105-.4,15-.055Z" transform="translate(-1672.638 -759.397)"/></g><g transform="translate(2.231 15.202)"><path class="o" d="M1694.377,785.206l-15,.055-.1-.4,15-.055Z" transform="translate(-1679.274 -784.803)"/><path class="o" d="M1696.533,793.464l-15,.055-.105-.4,15-.055Z" transform="translate(-1681.084 -791.734)"/><path class="o" d="M1698.691,801.722l-15,.056-.105-.4,15-.055Z" transform="translate(-1682.894 -798.664)"/><path class="o" d="M1700.848,809.98l-15,.055-.105-.4,15-.055Z" transform="translate(-1684.705 -805.594)"/><path class="o" d="M1703,818.238l-15,.055-.105-.4,15-.055Z" transform="translate(-1686.515 -812.524)"/></g></g></g><g transform="translate(89.685 33.835)"><path class="l" d="M1711.886,908.182l-21.933.081-7.112-27.229,21.933-.081Z" transform="translate(-1682.841 -880.953)"/><g transform="translate(6.034 3.175)"><path class="o" d="M1736.872,901.1l-9.2.034-.105-.4,9.2-.034Z" transform="translate(-1726.413 -900.701)"/><path class="o" d="M1733.739,908.066l-11.546.043-.105-.4,11.546-.043Z" transform="translate(-1721.812 -906.544)"/><g transform="translate(0 6.661)"><path class="o" d="M1735.472,942.534l-15,.055-.105-.4,15-.055Z" transform="translate(-1720.369 -942.131)"/><path class="o" d="M1737.628,950.792l-15,.055-.105-.4,15-.055Z" transform="translate(-1722.179 -949.062)"/><path class="o" d="M1739.785,959.05l-15,.055-.105-.4,15-.055Z" transform="translate(-1723.989 -955.992)"/><path class="o" d="M1741.942,967.308l-15,.055-.105-.4,15-.055Z" transform="translate(-1725.799 -962.922)"/><path class="o" d="M1744.1,975.566l-15,.055-.105-.4,15-.055Z" transform="translate(-1727.61 -969.852)"/></g><g transform="translate(2.231 15.202)"><path class="o" d="M1749.349,995.661l-15,.055-.105-.4,15-.055Z" transform="translate(-1734.246 -995.258)"/><path class="o" d="M1751.505,1003.919l-15,.055-.105-.4,15-.055Z" transform="translate(-1736.056 -1002.189)"/><path class="o" d="M1753.662,1012.177l-15,.055-.105-.4,15-.055Z" transform="translate(-1737.866 -1009.119)"/><path class="o" d="M1755.819,1020.435l-15,.055-.105-.4,15-.055Z" transform="translate(-1739.676 -1016.049)"/><path class="o" d="M1757.977,1028.693l-15,.055-.105-.4,15-.055Z" transform="translate(-1741.487 -1022.979)"/></g></g></g><g transform="translate(98.583 67.898)"><path class="l" d="M1767.227,1120.052l-21.933.081-7.112-27.229,21.933-.081Z" transform="translate(-1738.182 -1092.823)"/><g transform="translate(6.034 3.175)"><path class="o" d="M1792.213,1112.974l-9.2.034-.105-.4,9.2-.034Z" transform="translate(-1781.753 -1112.571)"/><path class="o" d="M1789.081,1119.936l-11.546.043-.105-.4,11.546-.043Z" transform="translate(-1777.153 -1118.414)"/><g transform="translate(0 6.661)"><path class="o" d="M1790.813,1154.4l-15,.055-.105-.4,15-.055Z" transform="translate(-1775.71 -1154.002)"/><path class="o" d="M1792.97,1162.663l-15,.055-.105-.4,15-.055Z" transform="translate(-1777.52 -1160.932)"/><path class="o" d="M1795.127,1170.92l-15,.055-.105-.4,15-.055Z" transform="translate(-1779.331 -1167.862)"/><path class="o" d="M1797.284,1179.178l-15,.055-.105-.4,15-.055Z" transform="translate(-1781.141 -1174.792)"/><path class="o" d="M1799.441,1187.436l-15,.055-.105-.4,15-.055Z" transform="translate(-1782.951 -1181.723)"/></g><g transform="translate(2.231 15.202)"><path class="o" d="M1804.69,1207.532l-15,.055-.105-.4,15-.055Z" transform="translate(-1789.587 -1207.129)"/><path class="o" d="M1806.847,1215.79l-15,.055-.105-.4,15-.055Z" transform="translate(-1791.397 -1214.059)"/><path class="o" d="M1809,1224.047l-15,.055-.105-.4,15-.055Z" transform="translate(-1793.208 -1220.989)"/><path class="o" d="M1811.161,1232.305l-15,.055-.105-.4,15-.055Z" transform="translate(-1795.018 -1227.919)"/><path class="o" d="M1813.318,1240.563l-15,.055-.105-.4,15-.055Z" transform="translate(-1796.828 -1234.85)"/></g></g></g><g transform="translate(0 0.121)"><path class="l" d="M1223.791,766.488l-76.711.283L1125,682.249,1135,671.488l63.919-.236Z" transform="translate(-1125.002 -671.252)"/><path class="o" d="M1310.565,753.915l-27.036.1-.309-1.185,27.036-.1Z" transform="translate(-1257.783 -739.631)"/><path class="o" d="M1301.358,774.382l-33.943.125-.309-1.184,33.943-.125Z" transform="translate(-1244.259 -756.807)"/><g transform="translate(22.034 32.681)"><path class="o" d="M1306.448,875.708l-44.088.163-.309-1.185,44.089-.163Z" transform="translate(-1262.05 -874.524)"/><path class="o" d="M1312.789,899.984l-44.089.163-.309-1.184,44.088-.163Z" transform="translate(-1267.372 -894.897)"/><path class="o" d="M1319.13,924.261l-44.089.163-.309-1.184,44.088-.163Z" transform="translate(-1272.693 -915.27)"/><path class="o" d="M1325.471,948.537l-44.089.163-.309-1.185,44.088-.163Z" transform="translate(-1278.015 -935.643)"/><path class="o" d="M1331.812,972.812l-44.089.163-.309-1.185,44.088-.163Z" transform="translate(-1283.336 -956.016)"/></g><g transform="translate(28.592 57.79)"><path class="o" d="M1347.243,1031.887l-44.089.163-.309-1.184,44.088-.163Z" transform="translate(-1302.845 -1030.703)"/><path class="o" d="M1353.583,1056.164l-44.088.163-.309-1.185,44.088-.163Z" transform="translate(-1308.166 -1051.077)"/><path class="o" d="M1359.925,1080.439l-44.089.163-.309-1.184,44.089-.163Z" transform="translate(-1313.488 -1071.449)"/><path class="o" d="M1366.265,1104.716l-44.088.163-.309-1.184,44.088-.163Z" transform="translate(-1318.809 -1091.822)"/><path class="o" d="M1372.607,1128.992l-44.089.163-.309-1.185,44.088-.163Z" transform="translate(-1324.131 -1112.196)"/></g><path class="o" d="M1125,683.481l12.792-.047L1135,672.72Z" transform="translate(-1125.002 -672.484)"/></g></g></g></svg>