<svg xmlns="http://www.w3.org/2000/svg" width="602.427" height="254.537" viewBox="0 0 602.427 254.537"><defs><style>.a{fill:#ebf3fa;}.b{fill:#dfebfd;}.c{fill:#cde0fb;}.d{fill:#ffb27d;}.e{fill:#233862;}.f{fill:#e8945b;}.g{fill:#163560;}.h{fill:#1c468a;}.i{fill:#f99746;}.j{fill:#f1a34f;}.k{fill:#d86713;}.l{fill:#d9935c;}.m{fill:#466aa5;}.n{fill:#fff;}.o{fill:#9ec3f6;}.p{fill:#699ff0;}.q{fill:#f4a269;}.r{fill:#c65447;}.s{fill:#d34a42;}.t{fill:#f37168;}.u{fill:#b5453c;}.v{fill:#2b478b;}.w{fill:#9e332e;}.x{fill:#ea9963;}.y{fill:#4a75cb;}.z{fill:#ed975d;}.aa{fill:#ebf3ff;}.ab{fill:#d24b43;}</style></defs><path class="a" d="M743.755,629.58,631.524,629.3l-51.332-.127-11.023-.027-39.973-.1-48.717-.12-42.231-.1-2.392-.007-11.138-.027L327,628.553l-49.057-.123-4.628-.011-26.879-.066-70.042-.172S89.508,463.718,206.965,402.827c151.312-78.441,259.217,34.568,317.179,30.286C609.39,426.815,776.218,379.139,743.755,629.58Z" transform="translate(-145.461 -375.043)"/><g transform="translate(411.674 82.94)"><path class="b" d="M2163.668,812.865s28.844-44.045,41.193-38.281S2163.668,812.865,2163.668,812.865Z" transform="translate(-2155.842 -774.064)"/><path class="b" d="M2158.436,856.37s61.833-47.161,82.024-34.645-15.6,18.791-29.1,20.032S2158.436,856.37,2158.436,856.37Z" transform="translate(-2151.697 -810.144)"/><path class="b" d="M2128.075,844.472s-.084-1.815-.238-4.465c-.3-5.17-.876-13.515-1.629-17.755-1.138-6.413,2.9-12.1,10-6.972s-6.394,26.951-6.394,26.951Z" transform="translate(-2126.017 -805.137)"/></g><path class="c" d="M927.368,1441.615l-28.18-.076a8.911,8.911,0,0,0-2.658-.007l-15.44-.041c-5.5-4.084-6.353-16.492-6.353-16.492,4.628,3.286,14.8,3.469,15.732,1.811s-12.8-5.963-14.754-7.195-4.29-6.716.812-14.485,18.616-.391,18.616-.391,4.88,18.121,7.606,19.408-1.148-16.307-1.148-16.307c5.681,1.271,17.5,12.617,17.5,12.617s-6.591,17.116-3.632,17.691,5.062-15.453,5.062-15.453c4.805,3.346,7.741,11.191,7.741,11.191A10.287,10.287,0,0,1,927.368,1441.615Z" transform="translate(-722.127 -1188.2)"/><path class="b" d="M473.528,637.507c7.076-12.155,28.1-2.11,28.1-2.11s8.853,26.982,13.076,28.7-3.064-24.547-3.064-24.547c8.687,1.457,27.473,17.638,27.473,17.638s-8.563,26.4-4.046,27.028,6.389-23.762,6.389-23.762c7.533,4.661,12.61,16.277,12.61,16.277,5.373,18.139-18.2,24.1-18.2,24.1a45.122,45.122,0,0,0,.1,21.407h0a32.725,32.725,0,0,1,1.183,6.011l-2.234-.6c-.021-.648-.067-1.281-.14-1.9a.013.013,0,0,0,0-.011l0-.027c-.06-.386-.148-.937-.261-1.609v0s0,0,0,0c-.323-1.52-.519-2.63-.619-3.422a.022.022,0,0,1,0-.007c-.917-4.744-2.394-11-4.051-12.675a4.47,4.47,0,0,0,.754-.9l-.754.9c-6.027,7.166-25.513,3.39-35.578-1.659s-4.613-6.805,2.434-10.139,18.719,1.183,22.783.226-.61-4.264-7.859-5.628-12.708,4.783-24.473,2.791-14.7-25.919-14.7-25.919c7.26,4.588,22.638,4.037,23.918,1.453s-19.824-7.966-22.881-9.667S466.452,649.662,473.528,637.507Z" transform="translate(-402.203 -578.191)"/><path class="b" d="M1251.024,938.536c8.215-11.32,28.012.72,28.012.72s6.064,27.582,10.071,29.707-.58-24.594-.58-24.594c8.45,2.31,25.422,20.2,25.422,20.2s-11.11,25.265-6.7,26.339,8.7-22.873,8.7-22.873c6.988,5.365,10.85,17.365,10.85,17.365,3.5,18.484-20.411,22.03-20.411,22.03a44.865,44.865,0,0,0-2.039,21.191h0a32.557,32.557,0,0,1,.57,6.066l-2.15-.817c.043-.643.062-1.274.051-1.891a.014.014,0,0,0,0-.011c0-.009,0-.018,0-.027-.021-.388-.053-.942-.1-1.618v0s0,0,0,0c-.168-1.536-.25-2.654-.27-3.447a.017.017,0,0,1,0-.007c-.434-4.785-1.27-11.123-2.741-12.946a4.463,4.463,0,0,0,.835-.811l-.835.811c-6.679,6.488-25.583.806-35.037-5.2s-3.885-7.195,3.421-9.789,18.4,3.041,22.521,2.5-.178-4.281-7.214-6.354-13.052,3.463-24.494.317-11.959-27.115-11.959-27.115c6.725,5.265,22,6.256,23.521,3.827s-18.818-9.863-21.674-11.851S1242.808,949.857,1251.024,938.536Z" transform="translate(-1017.044 -817.567)"/><g transform="translate(275.007 232.766)"><path class="b" d="M1482.254,1525.828s-2.98,10.449-2.406,14.508l-11.283-.03a10.211,10.211,0,0,1,2.225-7.332S1476.558,1526.98,1482.254,1525.828Z" transform="translate(-1468.514 -1519.394)"/><path class="b" d="M1577.48,1515.937l-42.78-.112c1.693-4.31,2.168-15.993,2.168-15.993s15.24-5.681,20.917-4.6c0,0-10.461,14.506-7.471,14.406s14.578-14.684,14.578-14.684,15.221-1.4,16.808,7.692C1583.124,1510.8,1579.814,1514.926,1577.48,1515.937Z" transform="translate(-1520.943 -1494.876)"/></g><path class="b" d="M2018.427,1579.632l-40.493-.107c2.624-1.122,6.051-2.18,9.728-3.437C1996.877,1572.941,2009.434,1577.281,2018.427,1579.632Z" transform="translate(-1597.041 -1325.567)"/><path class="b" d="M1917.378,1282.144l-36.653-.1c.765-1.623-3.912-4.945-10.682-7.029-8.618-2.653-16.1,4.064-30.116.026s-14.3-33.51-14.3-33.51c8.188,6.572,26.945,8.018,28.856,5.053s-22.988-12.4-26.468-14.889-7.193-12.87,3.074-26.663,34.425,1.3,34.425,1.3,7.045,34,11.938,36.67-.348-30.243-.348-30.243c10.355,2.965,30.951,25.205,30.951,25.205s-14.032,30.893-8.63,32.278,11.029-27.988,11.029-27.988c8.511,6.7,13.081,21.507,13.081,21.507C1925.038,1272.234,1921.9,1278.108,1917.378,1282.144Z" transform="translate(-1475.418 -1027.91)"/><g transform="translate(47.799 124.596)"><g transform="translate(5.1)"><path class="d" d="M605.136,1132.743c0-.076-1.118-2.388-.762-2.566s.993-.151,1.067.254A14.131,14.131,0,0,1,605.136,1132.743Z" transform="translate(-561.828 -1097.729)"/><path class="e" d="M475.636,987.421s-6.557-7.88-10.029-2.838c0,0-2.59,1.074-3.527,5.483-.956,4.5,2.035,7.916,3.582,7.072.992-.542,1.743,1.194,1.743,1.194Z" transform="translate(-449.021 -981.147)"/><path class="d" d="M542.45,1116.071c5.213-1.921,10.234-10.842,10.234-10.842l-1.644-1.151c-1.369,2-7.53,5.849-7.53,5.849-.141-1.688-.345-3.219-.6-4.607-1.71-9.428-5.623-12.221-6.673-12.814a2.389,2.389,0,0,0-.265-.134s0,.07.012.2c.015.284.048.855.1,1.639C536.5,1100.05,538.094,1117.677,542.45,1116.071Z" transform="translate(-507.702 -1067.866)"/><path class="e" d="M454.973,977.108s-.882-3.527-6.061-2.424c0,0,2.48-.312,3.159.643,0,0-1.965-.9-3.2-.147s-1.433,3.288-1.249,4.059,1.543,3.068,2.443,3.068a4.142,4.142,0,0,0,1.965-.79Z" transform="translate(-437.67 -974.471)"/><path class="d" d="M445.691,1093.914c2.576-5.776,3.808-7.409,3.851-9.226.034-1.437-.675-2.988-2.051-6.79a14.167,14.167,0,0,1-.685-2.748c-1.089-7.33,3.15-15.254,5.784-15.794.733-.193,1.975-2.841,1.96-7.107l.33.065,5.547,1.1s-.126,1.746-.13,3.39c0,1.371.079,2.67.39,2.833.4.036.635.06.635.06s4.625,6.423,5.014,12.4-3.7,8.569.031,20.508C470.18,1104.795,444.269,1097.106,445.691,1093.914Z" transform="translate(-436.14 -1036.082)"/><path class="f" d="M495.662,1053.659s-.126,1.746-.13,3.391c-3.1-.088-4.745-2.919-5.417-4.489Z" transform="translate(-471.374 -1036.329)"/><path class="e" d="M479.489,1006.219a16.313,16.313,0,0,1-2.017-4.768c-.279-1.569.521-7.386,6.365-6.548a7.94,7.94,0,0,1,3.293,1.245c1.269.857,3.1,2.707,1.053,7.783l-.532,1.715Z" transform="translate(-461.322 -990.59)"/><path class="d" d="M493.467,1018.11s-7.344.121-7.349-4.454-.956-7.64,3.733-7.911,5.6,1.474,5.975,3S495.377,1017.961,493.467,1018.11Z" transform="translate(-468.142 -999.222)"/><path class="e" d="M484.2,1001.768s-2.011,5.367-5.1,6.161-4.425-.033-4.425-.033a8.739,8.739,0,0,0,2.858-5.163S482.679,999.214,484.2,1001.768Z" transform="translate(-459.143 -995.357)"/><path class="e" d="M518.084,1004.073a6.487,6.487,0,0,1,1.868,2.363c.366,1.165.531,3.563,1.23,3.482,0,0,1.515-3.648-.188-5.712C519.189,1002.018,518.084,1004.073,518.084,1004.073Z" transform="translate(-493.53 -997.227)"/><path class="g" d="M470.877,1313.955a72.571,72.571,0,0,0,4.629,12.985l2.422-.168a68.472,68.472,0,0,1-1.12-13.285,55.626,55.626,0,0,1,2.817-17.668c7.247-20.7,6.075-35.76,6.075-35.76l-13.628,1.594-.635.075c-.057,6.259-.218,14.756-.36,21.4-.125,5.976-.235,10.453-.235,10.453C468.225,1299.224,469.176,1307.19,470.877,1313.955Z" transform="translate(-454.823 -1200.698)"/><path class="d" d="M399.954,1126.61l2.2.661s7.273-12.068,7.935-15.208c.216-1.022.745-3.068,1.362-5.36,1.277-4.746,2.925-10.554,2.925-10.554l.543-2.352,1.851-8.018a25.122,25.122,0,0,0-5.619,1.229,2.578,2.578,0,0,0-1.393,1.03c-1.523,3.35-3.044,11.8-4.113,17.833-.6,3.361-1.05,5.97-1.287,6.522C403.7,1113.936,401.68,1122.422,399.954,1126.61Z" transform="translate(-399.954 -1062.643)"/><path class="h" d="M438.84,1301.843a33.529,33.529,0,0,0,4.234,13.77l1.157.841s1.1-5.892,1.87-12.9c.738-6.663,1.751-13.712,2.9-15.864,4.545-8.534,5.913-40.751,5.913-40.751l-13.817-.685c-1.39,2.336-2,6.168-2.139,10.524-.364,11,2.221,25.333,2.608,27.406a.012.012,0,0,0,0,.005.72.72,0,0,1-.091.463C438.721,1290.093,438.324,1296.318,438.84,1301.843Z" transform="translate(-430.603 -1189.76)"/><path class="e" d="M499.127,1002.711s-1.433,5.62-5.327,7.421c0,0,3.894-3.453,4.224-7.163S499.127,1002.711,499.127,1002.711Z" transform="translate(-474.293 -995.684)"/><path class="i" d="M426.839,1125.434a3.269,3.269,0,0,0,.086,1.1c.294.925,1.3,1.347,3.745,1.095,1.492-.155,2.157-2.656,2.454-4.788q1.344,4.577,3.772,5.124c2.366.526,14.3,1.978,15.084-3.7.859-6.241-1.714-17.292-1.855-23.25a29.487,29.487,0,0,0,.433-5.522c-.1-4.245-1.345-6.624-2.3-7.582a3.265,3.265,0,0,0-1.632-.525c-.557-.095-1.328-.2-2.421-.348a4.136,4.136,0,0,0-.436-.034c.2.361,2.906,4.455,2.695,5.508-.221,1.1-9.809.11-10.47-.5s-1.708-5.248-1.708-5.248-3.4.371-5.056,1.579l.018.021a1.4,1.4,0,0,0-.437.459c-1.772,3.374-3.541,11.888-4.786,17.96a8.844,8.844,0,0,0,6.469.948C429.423,1114.738,427,1122.247,426.839,1125.434Z" transform="translate(-419.019 -1063.432)"/><path class="d" d="M608.338,1126.446c0-.227-.19-3.507.394-4.2s1.776-1.669,2.151-1.639a3.689,3.689,0,0,1,1.4,3.472,12.26,12.26,0,0,1-2.3,3.514Z" transform="translate(-565 -1090.234)"/><g transform="translate(40.456 25.247)"><path class="j" d="M1.026,0H2.949A1.026,1.026,0,0,1,3.976,1.026V6.168A1.026,1.026,0,0,1,2.95,7.194H1.025A1.025,1.025,0,0,1,0,6.169V1.026A1.026,1.026,0,0,1,1.026,0Z" transform="translate(3.808 8.032) rotate(-163.318)"/><path class="k" d="M598.79,1104.333l3.084.924a.378.378,0,0,0,.471-.254l1.848-6.166a.378.378,0,0,0-.254-.471l-3.084-.924a.378.378,0,0,0-.471.254l-1.848,6.167A.378.378,0,0,0,598.79,1104.333Z" transform="translate(-597.703 -1097.116)"/></g><path class="d" d="M439.579,1513.7a33.529,33.529,0,0,0,4.234,13.77l1.178,1.073s1.074-6.123,1.849-13.133A12.4,12.4,0,0,1,439.579,1513.7Z" transform="translate(-431.343 -1401.615)"/><path class="l" d="M477.194,1517.565a72.578,72.578,0,0,0,4.629,12.985l2.422-.168a68.468,68.468,0,0,1-1.119-13.285C482.3,1517.512,480.608,1517.932,477.194,1517.565Z" transform="translate(-461.139 -1404.309)"/><g transform="translate(18.032 122.667)"><path class="e" d="M487.964,1570.227h1.546c.518-.082.9-.231,1.432-.3a1.435,1.435,0,0,1,1.252.3l.014.016h6.568c.165-.236.007-.783-.149-1.185a.934.934,0,0,0-.615-.562,7.086,7.086,0,0,1-3.327-1.52c-.708-.64-3.416-2.351-3.416-2.351l-.014,0c-.06,0-.343.088-1.575,1.128-.637.537-1.723-.758-1.723-.758a1.543,1.543,0,0,0-.356.483,1.631,1.631,0,0,0-.141,1.008,6.54,6.54,0,0,1-.471,2.435c-.153.451-.282.771-.282.771S486.634,1570.061,487.964,1570.227Z" transform="translate(-486.707 -1564.622)"/><path class="m" d="M491.011,1565.475a4.907,4.907,0,0,0,1.665.84c.7.092,2-1.689,2-1.689l-.014,0c-.06,0-.343.088-1.575,1.128-.637.537-1.723-.758-1.723-.758A1.542,1.542,0,0,0,491.011,1565.475Z" transform="translate(-490.117 -1564.622)"/><path class="m" d="M487.964,1586.6h1.546c.518-.082.9-.231,1.432-.3a1.434,1.434,0,0,1,1.252.3l.014.015h6.568c.165-.236.007-.783-.149-1.184-.2-.178-.256.77-.366.921a29.328,29.328,0,0,1-5.661-.165,3.169,3.169,0,0,0-2.48-.3,5.973,5.973,0,0,1-3.131-.592c-.153.451-.282.77-.282.77S486.634,1586.437,487.964,1586.6Z" transform="translate(-486.707 -1580.998)"/></g><g transform="translate(9.781 122.667)"><path class="e" d="M448.268,1570.227h1.546c.518-.082.9-.231,1.432-.3a1.434,1.434,0,0,1,1.252.3l.014.016h6.568c.165-.236.006-.783-.149-1.185a.934.934,0,0,0-.615-.562,7.085,7.085,0,0,1-3.327-1.52c-.708-.64-3.417-2.351-3.417-2.351l-.014,0c-.06,0-.343.088-1.575,1.128-.637.537-1.723-.758-1.723-.758a1.544,1.544,0,0,0-.356.483,1.631,1.631,0,0,0-.141,1.008,6.539,6.539,0,0,1-.471,2.435c-.153.451-.282.771-.282.771S446.938,1570.061,448.268,1570.227Z" transform="translate(-447.012 -1564.622)"/><path class="m" d="M451.314,1565.475a4.91,4.91,0,0,0,1.665.84c.7.092,2-1.689,2-1.689l-.014,0c-.06,0-.343.088-1.575,1.128-.637.537-1.722-.758-1.722-.758A1.543,1.543,0,0,0,451.314,1565.475Z" transform="translate(-450.42 -1564.622)"/><path class="m" d="M448.268,1586.6h1.546c.518-.082.9-.231,1.432-.3a1.433,1.433,0,0,1,1.252.3l.014.015h6.568c.165-.236.006-.783-.149-1.184-.2-.178-.256.77-.366.921a29.328,29.328,0,0,1-5.661-.165,3.169,3.169,0,0,0-2.48-.3,5.972,5.972,0,0,1-3.131-.592c-.153.451-.282.77-.282.77S446.938,1586.437,448.268,1586.6Z" transform="translate(-447.012 -1580.998)"/></g><path class="i" d="M537.839,1091.343s4.581,2.3,6.106,11.607a7.915,7.915,0,0,1-3.613,2.663,4.23,4.23,0,0,1-.941.161C536.8,1105.912,537.839,1091.343,537.839,1091.343Z" transform="translate(-509.015 -1067.05)"/><path class="d" d="M613.387,1113.967s-1.416-2.178-1.762-2.057c-.494.173,1.284,2.937,1.284,2.937s-1.317-2.065-1.523-1.91c-.469.354.277,1.652,1.017,2.647,0,0-1.324-1.213-1.367-.995-.151.765,1.454,2.619,1.454,2.619l.9-2.049Z" transform="translate(-567.153 -1083.339)"/><path class="d" d="M623.446,1112.471c-.068-.267-.414-5.468-.562-4.975s-.5,3.221-.5,3.221Z" transform="translate(-576.15 -1079.82)"/><path class="n" d="M514.887,1050.959s.127.539,1.468.456c0,0,1.126-.069,1.092-.662A3.623,3.623,0,0,0,514.887,1050.959Z" transform="translate(-490.997 -1034.788)"/></g><path class="d" d="M383.1,1282.216a16.133,16.133,0,0,0-3.067,2.514c-.407.745-1.355,3.49-1.355,3.49s.678.1,1.355-1.084,2.914-1.084,3.659-1.728a10.085,10.085,0,0,0,1.612-2.53Z" transform="translate(-378.002 -1218.249)"/><path class="d" d="M399.037,1288.2a8.838,8.838,0,0,1-.984,2.692c-.542.61-1.287,1.626-1.592,1.355s.339-2.541.339-2.541Z" transform="translate(-392.022 -1222.992)"/><path class="d" d="M377.826,1295.45c-.068.1-2.405,2.586-2.405,2.586s.847.384,1.084,0S377.826,1295.45,377.826,1295.45Z" transform="translate(-375.42 -1228.732)"/></g><g transform="translate(228.703 56.656)"><path class="o" d="M1313,680.654l21.677,3.365-14.289-10-.772,3.14-5.292.891Z" transform="translate(-1299.02 -668.531)"/><path class="n" d="M1281.4,681.547l-17.956-9.539-17.7-1.109Z" transform="translate(-1245.746 -666.059)"/><path class="n" d="M1348.54,653.1l14.29,10-10.967-15.488Z" transform="translate(-1327.174 -647.614)"/></g><g transform="translate(542.301 120.995)"><path class="o" d="M2772.214,984.385l-17.75,2.532,11.778-8.028.6,2.574,4.316.782Z" transform="translate(-2754.464 -974.369)"/><path class="n" d="M2754.464,985.715l14.77-7.616,14.477-.728Z" transform="translate(-2754.464 -973.168)"/><path class="n" d="M2766.243,961.666l-11.778,8.028,9.119-12.548Z" transform="translate(-2754.464 -957.147)"/></g><path class="p" d="M701.058,910.706H808.927V939.04h-76.7v30.155h67.6v28.333h-67.6v54.846H701.058Z" transform="translate(-585.573 -799.364)"/><path class="p" d="M1220.6,924.21h27.975l59.1,138.888h-31.718l-12.608-30.93h-58.313l-12.608,30.93H1161.5Zm31.915,81.166-18.322-44.72-18.321,44.72Z" transform="translate(-950.308 -810.061)"/><path class="p" d="M1971.571,1035.7a75.157,75.157,0,0,1-40.977,11.82c-42.553,0-73.089-31.718-73.089-71.316,0-39.2,30.93-71.316,73.483-71.316s73.088,31.718,73.088,71.316a69.7,69.7,0,0,1-12.214,39.6l14.185,12.017L1986.74,1049.3Zm-22.458-19.9s13.764-7.082,19.5-20.291a47.431,47.431,0,0,0,3.743-19.307c0-23.641-17.337-43.341-41.765-43.341s-41.37,19.307-41.37,43.341c0,23.641,17.336,43.341,41.765,43.341A44.445,44.445,0,0,0,1949.112,1015.8Z" transform="translate(-1501.644 -794.758)"/><g transform="translate(379.7 155.457)"><path class="q" d="M2146.527,1238.053s-2.325,3.441-3.651,10.675c-1.162,6.335-2.18,8.674-3.857,9.973s-11.023,5.135-11.023,5.135l.7,1.637s13.7-1.866,15.237-4.155,7.4-15.815,6.949-18.931S2146.527,1238.053,2146.527,1238.053Z" transform="translate(-2095.611 -1214.126)"/><g transform="translate(0 87.104)"><path class="d" d="M1985.075,1551.138c-.14,1.334-2.027,1.29-4.161.975s-1.581.245-4.581.194-4-1.075-4.134-1.507c-.118-.384,1.336-.659,2.893-.988.2-.041.392-.084.589-.127,1.756-.389,2.949-1.657,4.475-2.749,1.445-1.035,3.387-4.881,3.387-4.881l4.1-.058s-1.833,3.445-2.528,4.933a4.945,4.945,0,0,0-.141,2.812A5.249,5.249,0,0,1,1985.075,1551.138Z" transform="translate(-1972.193 -1541.997)"/><path class="r" d="M1980.914,1581.628c-2.134-.315-1.581.245-4.581.194s-4-1.074-4.134-1.507c-.118-.384,1.336-.659,2.893-.988l.018.029a8.4,8.4,0,0,0,4.375.924c2.018-.139,4.1-.916,5.491-1.023a5.247,5.247,0,0,1,.1,1.4C1984.936,1581.987,1983.048,1581.943,1980.914,1581.628Z" transform="translate(-1972.193 -1571.512)"/></g><path class="s" d="M2063.712,1361.28s-26.886.131-31.9,3.3-16.443,35.79-16.443,35.79a3.663,3.663,0,0,0,2,1.323,4.145,4.145,0,0,0,2.778-.448s15.309-15.227,16.124-19.386.616-7.869,2.471-7.968,24.982,2.812,28.481-3.351a14.2,14.2,0,0,0,.606-12.264Z" transform="translate(-2006.391 -1309.359)"/><g transform="translate(14.294 86.304)"><path class="d" d="M2053.83,1547.476c-.028,1.341-1.913,1.455-4.065,1.32s-1.555.376-4.548.576-4.078-.735-4.246-1.156c-.15-.373,1.276-.769,2.8-1.226.192-.057.384-.117.576-.176,1.717-.534,2.8-1.9,4.23-3.114,1.354-1.152,2.966-5.147,2.966-5.147l4.082-.4s-1.538,3.586-2.106,5.127a4.946,4.946,0,0,0,.1,2.814A5.244,5.244,0,0,1,2053.83,1547.476Z" transform="translate(-2040.96 -1538.152)"/><path class="r" d="M2049.765,1579.059c-2.152-.135-1.555.376-4.548.576s-4.078-.735-4.246-1.156c-.15-.373,1.276-.769,2.8-1.226l.02.027a8.4,8.4,0,0,0,4.437.555c2-.308,4.007-1.255,5.386-1.479a5.243,5.243,0,0,1,.216,1.383C2053.8,1579.08,2051.917,1579.194,2049.765,1579.059Z" transform="translate(-2040.96 -1568.415)"/></g><path class="t" d="M2119.375,1380.682s-23.68,1.121-28.572,4.481-11.76,31.658-11.76,31.658a4.172,4.172,0,0,0,5.215,1.676s9.507-11.456,10.159-15.643,1.673-6.34,3.524-6.512,20.023,3.377,28.329-4.457C2131.424,1387.022,2119.375,1380.682,2119.375,1380.682Z" transform="translate(-2056.833 -1327.109)"/><path class="u" d="M2222.64,1144.974a14.409,14.409,0,0,1-1.405-4.879,15.221,15.221,0,0,0,2.133,5.354c5.485,3.1,14.149,14.742,14.1,16.938,0,0,5.323-7.048,5.381-7.088,0,0,5.99-8.758-2.084-13.008-4.1-2.16-4.291-5.271-4.306-7.982s-2.031-14.257-9.725-10.688a5.148,5.148,0,0,0-1.867-.356,1.554,1.554,0,0,1,.722.285,6.142,6.142,0,0,0-3.275.855C2219.523,1126.244,2217.917,1141.176,2222.64,1144.974Z" transform="translate(-2168.206 -1122.943)"/><path class="d" d="M2241.6,1218.63a26.7,26.7,0,0,0-4.41,0,14.19,14.19,0,0,0-3.827.96c-2.087.872-1.868,4.568,2.511,3.883S2241.905,1219.726,2241.6,1218.63Z" transform="translate(-2178.062 -1198.667)"/><path class="d" d="M2238.53,1200.656c-.026.014-.625,3.179,2.242,3.052,1.882-.083,5.942-2.361,5.583-3.973a19.944,19.944,0,0,1-1.879-7.291l-.342.092-5.761,1.545s.256,1.829.375,3.559C2238.848,1199.094,2238.852,1200.479,2238.53,1200.656Z" transform="translate(-2183.045 -1177.999)"/><path class="q" d="M2238.372,1194.431s.256,1.829.375,3.559c3.261-.31,4.79-3.405,5.387-5.1Z" transform="translate(-2183.045 -1178.348)"/><path class="u" d="M2228.492,1144.724a17.211,17.211,0,0,0,1.788-5.16c.183-1.671-1.066-7.737-7.159-6.445a8.378,8.378,0,0,0-3.379,1.542c-1.275.991-3.073,3.067-.562,8.266l.681,1.767Z" transform="translate(-2166.842 -1130.862)"/><path class="d" d="M2221.544,1157.99s7.739-.388,7.423-5.2.471-8.109-4.484-8.065-5.793,1.944-6.078,3.577S2219.523,1157.966,2221.544,1157.99Z" transform="translate(-2167.199 -1140.194)"/><path class="u" d="M2230.813,1141.037s2.493,5.508,5.8,6.127,4.655-.345,4.655-.345a9.216,9.216,0,0,1-3.37-5.234S2232.23,1138.241,2230.813,1141.037Z" transform="translate(-2177.057 -1136.393)"/><path class="u" d="M2219.243,1144.149a6.845,6.845,0,0,0-1.8,2.619c-.3,1.252-.308,3.788-1.049,3.751,0,0-1.851-3.734-.2-6.025C2217.936,1142.063,2219.243,1144.149,2219.243,1144.149Z" transform="translate(-2164.933 -1139.081)"/><path class="v" d="M2195.829,1251.348c.626.749,2.581.979,4.671,1.323a14.043,14.043,0,0,1,4.6,1.333c2.79,1.638,11.9,7.173,14.575,6.922,1.036-.1.842-2.075.215-4.7-.987-4.143-3.055-9.9-3.055-12.4a72.59,72.59,0,0,0-1.061-8.29q-.073-.446-.149-.9c-1.2-7.182-2.862-15.65-2.862-15.65s-1.854,4.044-5.465,4.044-2.772-3.084-2.772-3.084-3.3.388-4.073,1.227a32.2,32.2,0,0,0-3.145,5.452s-.08,1.258,3.035,1.857a40.83,40.83,0,0,0-.849,5.691c-.067,1.682,1.148,6.944,1.5,10.218a6.046,6.046,0,0,1-.048,2.482,4.819,4.819,0,0,1-1.907,1.573C2197.274,1249.471,2195.085,1250.458,2195.829,1251.348Z" transform="translate(-2149.226 -1199.025)"/><path class="e" d="M2210.523,1299.758c-2,3.408,5.422,4.433,6.65,5.155,2.789,1.638,11.32,7.576,13.992,7.324,1.035-.1.842-2.075.215-4.7-.988-4.143-3.055-9.9-3.055-12.4a72.628,72.628,0,0,0-1.061-8.29l-3.215-3.087s-3.445,8.905-6.73,10.365a27.613,27.613,0,0,1-4.84,1.575,6.044,6.044,0,0,1-.049,2.482A4.817,4.817,0,0,1,2210.523,1299.758Z" transform="translate(-2160.715 -1250.336)"/><path class="d" d="M2216.182,1230.135s2.749-1.67,5.408,1.5-1.89,25.808-5.828,26.971c-4.375,1.292-17.014-.207-17.014-.207l.243-1.975s13.455-2.58,14.014-3.3S2214.784,1230.5,2216.182,1230.135Z" transform="translate(-2151.656 -1207.506)"/><path class="v" d="M2271.931,1218.984s5.646.509,7.286,2.366,2.119,6.89,2.119,6.89-4.972,4.014-10.963,2.456Z" transform="translate(-2208.394 -1199.021)"/><path class="d" d="M2175.233,1355.158s-4.381-.848-4.875-.636-3.25,2.685-2.968,3.179a2.416,2.416,0,0,0,2.685.424c1.272-.424,4.027-.636,4.522-1.272A4.153,4.153,0,0,0,2175.233,1355.158Z" transform="translate(-2126.801 -1306.36)"/><g transform="translate(24.543 43.456)"><rect class="w" width="7.458" height="0.881" transform="translate(27.821 11.063) rotate(180)"/><path class="w" d="M2112.217,1342.951c-.073-.291-6.855-10.942-6.855-10.942H2090.27l7.57,10.656Z" transform="translate(-2090.27 -1332.009)"/><path class="u" d="M2111.583,1343.072c-.073-.292-6.878-11.063-6.878-11.063H2090.27l7.2,11.063Z" transform="translate(-2090.27 -1332.009)"/><path class="w" d="M2131.411,1355.815a1.2,1.2,0,0,0,1.051.781.538.538,0,0,0,.512-.781,1.207,1.207,0,0,0-1.051-.781A.538.538,0,0,0,2131.411,1355.815Z" transform="translate(-2122.824 -1350.247)"/></g></g><g transform="translate(499.671 119.592)"><path class="x" d="M2695.681,1207.019s3.6,2.047,4.608,2.047,4.965-.765,6.068-.2a12.9,12.9,0,0,1,3.474,3.572c.673,1.332-2.712.744-4.312-.391a1.007,1.007,0,0,0-.8-.165,7.931,7.931,0,0,1-3.382.186,60.066,60.066,0,0,0-7.007-.873Z" transform="translate(-2664.201 -1153.679)"/><path class="s" d="M2569.023,1058.746s3.733,26.529,9.914,28.906c3.05,1.172,16.528,3.83,20.515,4.1,0,0,.976-.792.738-4.018,0,0-14.121-5.184-16.127-8-2.986-4.2,1.854-17.142-1.893-21.083S2572.113,1053.01,2569.023,1058.746Z" transform="translate(-2564.938 -1033.292)"/><path class="e" d="M2556.913,1282.392a46.43,46.43,0,0,0,3.647,5.217c4.011,5.064,8.379,9.241,9.139,13.188a17.824,17.824,0,0,0,.705,2.526c.317.9.71,1.855,1.164,2.838a87.532,87.532,0,0,0,6.79,11.608c4.395,6.511,8.527,11.944,8.527,11.944l7.577-.323c-.3-.759-3.609-9.75-8.03-20.736-1.795-4.46-3.7-9.2-5.546-13.779q-.368-.917-.734-1.823c-.563-1.4-1.117-2.778-1.658-4.12-4.151-10.316-7.458-18.531-7.458-18.531s-16.592-6.285-18.316-2.212C2551.3,1271.547,2552.457,1274.836,2556.913,1282.392Z" transform="translate(-2551.571 -1201.046)"/><path class="g" d="M2720.4,1555.121s.388,6.253,1.6,6.343c.161.012,6.136.012,6.136.012l7.627-.044a2.475,2.475,0,0,0-2.28-2.226c-2.229-.389-5.961-1.956-7.311-4.9C2724.753,1551.2,2720.4,1555.121,2720.4,1555.121Z" transform="translate(-2684.854 -1427.832)"/><path class="g" d="M2570.615,1468.177s-5.663,2.68-5.3,3.837c.049.154,2.266,5.7,2.266,5.7l2.872,7.066a2.475,2.475,0,0,0,1.221-2.943c-.467-2.214-.4-6.261,1.838-8.608C2575.867,1470.761,2570.615,1468.177,2570.615,1468.177Z" transform="translate(-2561.99 -1360.553)"/><path class="v" d="M2562.1,1317.915s-3.181-3.216-3.762-5.347c0,0,10.94-10.632,14.851-13.214,4.489-2.963,7.4-2.979,6.683-3.706-2.359-2.377-22.188-9.315-25.416-14.337a15.57,15.57,0,0,1-2.086-4.808,11.363,11.363,0,0,1-.153-5.181l24.663-.714s18.339,19.021,18.233,26.181C2595,1304.529,2562.1,1317.915,2562.1,1317.915Z" transform="translate(-2551.45 -1204.051)"/><path class="d" d="M2588.692,1020.947c-4.989,1.29-13.261-3.333-13.261-3.333a12.243,12.243,0,0,0,4.4-6.9c.061-.239.114-.484.164-.735l2.563-.543,3.811,3.414a32.766,32.766,0,0,1-.564,3.854q-.123.638-.287,1.367A11.746,11.746,0,0,1,2588.692,1020.947Z" transform="translate(-2570.015 -997.164)"/><path class="t" d="M2549.506,1065.27c.715,9.612-.225,24.231.585,26.763.7,2.184,8.672.886,11.854.156,1.178-.27,2.6-.655,4.078-1.111,4.11-1.273,8.588-3.09,9.068-4.439a1.111,1.111,0,0,0,.045-.155,1.227,1.227,0,0,0-.009-.565,9.613,9.613,0,0,1-.85-3.134c-.081-1.9-.07-4.14-.141-6.547,0-.271-.007-.567-.037-.836l0-.1c0-.052,0-.1,0-.154-.069-2.685-.209-5.507-.372-8.306-.1-1.758-.223-3.5-.361-5.167a69.107,69.107,0,0,0-1.48-10.556,16.951,16.951,0,0,0-5.445-8.406l-1.517-1.3a8.769,8.769,0,0,1-5.5-.733c-1.959-.93-2.635-1.6-2.977-1.346C2551.916,1042.824,2548.662,1053.519,2549.506,1065.27Z" transform="translate(-2549.372 -1020.805)"/><path class="s" d="M2584.91,1147.1c4.111-1.273,8.588-3.09,9.069-4.439a1.056,1.056,0,0,0,.044-.155q0-.283-.009-.565a9.637,9.637,0,0,1-.85-3.134c-.081-1.9-.069-4.14-.141-6.547,0-.271-.007-.567-.037-.836v-.1c0-.052,0-.1,0-.154L2576.367,1110S2565.2,1133.256,2584.91,1147.1Z" transform="translate(-2568.259 -1076.824)"/><path class="x" d="M2603.145,1012.849a32.832,32.832,0,0,1-.564,3.854,10.109,10.109,0,0,1-5.973-5.99c.061-.239.114-.484.164-.735l2.563-.543Z" transform="translate(-2586.79 -997.164)"/><path class="d" d="M2602.769,981.2s-8.116-1.354-7.194-6.4.494-8.611,5.715-7.96,5.873,2.759,5.975,4.516S2604.9,981.421,2602.769,981.2Z" transform="translate(-2585.913 -963.365)"/><g transform="translate(28.844 42.227)"><rect class="y" width="0.752" height="19.705" transform="translate(20.672 18.972) rotate(-161.996)"/><rect class="y" width="20.678" height="1.237" transform="translate(20.673 18.973) rotate(-178.777)"/></g><path class="d" d="M2690.132,1233.124s6.642,1.752,9.133,1.568,4.563-1.369,4.876-1.987.972-1.716-.724-1.513-4.011.563-4.083.237,1.382-.295,1.382-.295.44-.639-.114-.663-2.168-.461-2.768-.161-1.153,1.407-1.592,1.361-5.558-2.307-5.558-2.307Z" transform="translate(-2660.874 -1171.38)"/><path class="t" d="M2576.948,1066.325s.785,26.779,6.667,29.822c2.9,1.5,16,5.629,19.938,6.334,0,0,1.058-.68,1.177-3.911,0,0-13.463-6.71-15.147-9.733-2.5-4.5,3.732-16.833.444-21.163S2580.653,1060.965,2576.948,1066.325Z" transform="translate(-2571.216 -1039.782)"/><path class="v" d="M2590.089,963.948a3.84,3.84,0,0,1,.974-2.721s-.371-1.734.315-2.02.829,1.172,1.143.943a7.007,7.007,0,0,0,2.315-2.915c.6-1.6,6.094.338,6.735.626s2.7-.769,3.1-1.627a12.006,12.006,0,0,1-1.658-1.6c-.515-.686-4.116-5.317-9.147-4s-5.717,3.716-5.431,5.774S2588.029,963.257,2590.089,963.948Z" transform="translate(-2580.27 -950.399)"/></g><g transform="translate(284.254 122.101)"><path class="d" d="M1826.075,1090.8c-.552,1.484-1.509,3.207-2.513,3.635a3.886,3.886,0,0,0-1.613,1.172l-.92-.533-1.1-.638s.026-.122.08-.321.135-.473.246-.778a1.062,1.062,0,0,0,.131-.977,2.269,2.269,0,0,1,.187-1.9c.352-.511.692-1.772.9-1.735.514.088-.252,1.821-.033,2.143a.379.379,0,0,0,.493.169l.009-.005c1.44-.633,3.187-4.047,3.961-3.587C1826.2,1087.619,1826.31,1090.164,1826.075,1090.8Z" transform="translate(-1756.135 -1061.435)"/><g transform="translate(64.837 24.338)"><path class="v" d="M1825.056,1086.647l1.8,1.268a.284.284,0,0,0,.395-.069l4.622-6.577a.284.284,0,0,0-.069-.395l-1.8-1.268a.284.284,0,0,0-.395.069l-4.622,6.577A.284.284,0,0,0,1825.056,1086.647Z" transform="translate(-1824.936 -1079.556)"/><path class="e" d="M1833.113,1092.279l1.058.743a.216.216,0,0,0,.3-.053l4.7-6.688a.216.216,0,0,0-.052-.3l-1.058-.743a.217.217,0,0,0-.3.052l-4.7,6.688A.216.216,0,0,0,1833.113,1092.279Z" transform="translate(-1831.341 -1084.026)"/></g><path class="e" d="M1681.94,1068.27s9.182,16.013,12.512,18.96l12.213-9.105a4.458,4.458,0,0,1,2.548,2.322s-7.416,15.11-14.719,15.751-17.551-18.111-17.551-18.111Z" transform="translate(-1642.868 -1046.278)"/><g transform="translate(8.898 58.998)"><path class="e" d="M1565.208,1551.232h-5.3a3.215,3.215,0,0,1-1.451-2.431c-.259-1.709-2.174-2.641-2.589-4.039s1.709-3.365,1.709-3.365l.355-.458.369-.475,3.521.829s.088.839.141,1.907a24.372,24.372,0,0,1,.015,2.442c-.1,1.864.521,3.871,2.178,4.234C1565.375,1550.145,1565.321,1550.871,1565.208,1551.232Z" transform="translate(-1555.81 -1479.321)"/><path class="e" d="M1701.41,1568.623h-12.132c-.583-.712-.368-3.339-.28-4.2.018-.173.031-.273.031-.273s4.143-3.313,4.712-.776c.017.08.038.157.061.234.717,2.373,3.932,3.452,5.79,3.752A2.1,2.1,0,0,1,1701.41,1568.623Z" transform="translate(-1661.225 -1496.712)"/><path class="t" d="M1671.037,1262.335s-.629,7.849-1.369,17.283c-1,12.815-2.213,28.557-2.333,31.539-.206,5.178-1.036,13.461-1.036,13.461s-1.966,1.968-5.9,1.139a135.532,135.532,0,0,1-4.509-24.335c-.016-.205-.031-.412-.047-.618-.932-12.736-2.381-39.555-2.381-39.555Z" transform="translate(-1633.164 -1258.142)"/><path class="s" d="M1671.037,1262.335s-.629,7.849-1.369,17.283l-13.78,21.8c-.016-.205-.031-.412-.047-.618-.932-12.736-2.381-39.555-2.381-39.555Z" transform="translate(-1633.164 -1258.142)"/><path class="t" d="M1597.527,1251.43s-11.338,28.423-18.794,41.781-9.785,17.085-9.785,17.085-4.271-1.708-4.659-2.873c0,0,2.851-25.787,7.844-32.074,2.821-3.552,6.135-14.212,6.29-17.939s1.01-11.105,1.01-11.105Z" transform="translate(-1562.527 -1246.304)"/></g><path class="d" d="M1664.517,1026.588c-4.431,1.4-12.1-2.375-12.1-2.375a11.538,11.538,0,0,0,3.871-9.441l3.426,2.761,2.327,1.875a27.863,27.863,0,0,1-.264,3.043c-.067.509-.151,1.078-.256,1.7A10.6,10.6,0,0,1,1664.517,1026.588Z" transform="translate(-1623.442 -1003.9)"/><path class="z" d="M1676.742,1029.677a27.876,27.876,0,0,1-.264,3.043c-2.578-.442-5.5-4.61-5.5-4.61a8.216,8.216,0,0,1,3.44-.308Z" transform="translate(-1638.14 -1014.169)"/><path class="d" d="M1671.88,990.429s-7.319,1.216-8.005-3.353-2.095-7.49,2.549-8.459,5.816.637,6.416,2.107S1673.766,989.995,1671.88,990.429Z" transform="translate(-1631.922 -975.026)"/><path class="v" d="M1655.307,1097a.716.716,0,0,1-.466.177c-1.664-.023-6.516.9-10.621.48a30.581,30.581,0,0,1-9.814-2.832c-.437-.2-1.442-.733-1.42-1.221.015-.535.068-1.31.134-2.287a122.341,122.341,0,0,0,.243-15.973c-.071-1.255-.109-2.5-.113-3.724-.034-9.132,1.777-17.164,5.415-19.882.311-.223,2.219.71,3.972,1.574a7.254,7.254,0,0,0,4.77.578l1.531,1.353a15.3,15.3,0,0,1,4.793,7.655c.755,3.039,1.2,8.52,1.442,14.2.111,2.574.2,5.17.223,7.633v.088c.021.244.021.511.021.755C1655.507,1091.9,1655.418,1096.914,1655.307,1097Z" transform="translate(-1608.047 -1033.159)"/><path class="e" d="M1633.635,1143.045a122.354,122.354,0,0,0,.243-15.973c-.071-1.255-.108-2.5-.113-3.724,1.516-3.677,2.755-6.343,2.755-6.343h3.821S1643.141,1136.136,1633.635,1143.045Z" transform="translate(-1608.561 -1084.883)"/><g transform="translate(0 62.917)"><path class="e" d="M1526.736,1290.157l16.294,2.322a3.906,3.906,0,0,0,4.4-3.306l1.006-7.061a3.906,3.906,0,0,0-3.306-4.405l-16.294-2.322a3.905,3.905,0,0,0-4.4,3.306l-1.006,7.061A3.906,3.906,0,0,0,1526.736,1290.157Z" transform="translate(-1521.231 -1273.228)"/><path class="v" d="M1537.827,1271.742h0a3.924,3.924,0,0,0-2.7-2.358h0c-.123-.03-.248-.055-.376-.073l-3.244-.462.217-1.524a1.291,1.291,0,0,0-1.095-1.458l-.846-.121-3.407-.486-.614-.087a1.291,1.291,0,0,0-1.459,1.095l-.216,1.524-5.6-.8a3.921,3.921,0,0,0-4.422,3.318l-1.018,7.144a3.92,3.92,0,0,0,3.319,4.421l16.264,2.318a3.8,3.8,0,0,0,.848.027h0a3.843,3.843,0,0,0,1.269-.32,3.917,3.917,0,0,0,2.3-3.026l1.018-7.143A3.876,3.876,0,0,0,1537.827,1271.742Zm-12.728-5.362a.485.485,0,0,1,.545-.409l.724.1,2.681.383,1.461.208a.482.482,0,0,1,.409.544l-.217,1.524-5.82-.83Z" transform="translate(-1513.004 -1265.159)"/></g><path class="d" d="M1580.241,1241.207a5.657,5.657,0,0,0-.89,1.6c-.23,3.087,1.18,3.514-2.472,5.229,0,0-1.559.595-1.585-.616s1.082-1.23.879-2.924c-.234-1.954-.21-1.973,1.073-2.993l.849-1.4Z" transform="translate(-1562.347 -1182.386)"/><path class="v" d="M1581.417,1095.294a12.529,12.529,0,0,0,2.867.16s4.085-12.617,4.61-13.77,12.132-14.794,12.132-14.794l-4.835-12.1s-12.553,20.969-13.828,23.915c-2.106,4.869-2.837,15.785-2.837,15.785A5.259,5.259,0,0,0,1581.417,1095.294Z" transform="translate(-1565.699 -1035.6)"/><path class="v" d="M1659.911,974.078s.751-.126.63-1.16-.12-2.387.721-2.134.883.925,1.228.532.352-2.05,2.855-2.165,3.519.756,4.683.244,1.225-2.273,1.225-2.273a2,2,0,0,1-.83.829s1.941-2.655-.307-4.476-4.54-.629-5.841-.55c-2.866.173-4.717.346-5.654,2.229S1658.072,972.265,1659.911,974.078Z" transform="translate(-1627.965 -962.468)"/><path class="d" d="M1592.32,1251.981s.824.859.876,1.216c.167,1.147.55,1.642.358,1.767-.4.259-.927-.59-1.18-1.352A3.482,3.482,0,0,1,1592.32,1251.981Z" transform="translate(-1575.775 -1191.804)"/></g><g transform="translate(122.65 42.299)"><path class="e" d="M928.367,875.323a21.087,21.087,0,0,0,5.661,6.792h13.419S926.507,871.872,928.367,875.323Z" transform="translate(-888.192 -813.072)"/><path class="d" d="M932.294,1002.14a1.239,1.239,0,0,1,.185,1.33.011.011,0,0,1,0,.006,8.234,8.234,0,0,1-2.678,2.781c-.16.122-.3.234-.427.336-.033.027-.065.054-.1.081l-.074.063c-1.172,1.022-.748,1.275-2.86,3.357-2.407,2.372-4.02,2.372-4.473,2.138-.383-.2.44-1.47,1.353-2.9.044-.069.088-.139.133-.208.122-.19.243-.382.363-.573,1.071-1.72.83-2.547.659-5.154-.14-2.119-2.966-11.9-2.966-11.9l4.507-.651s1.141,7.756,2.6,8.985c.779.655,1.67.688,2.422,1.178q.08.051.157.1A5.9,5.9,0,0,1,932.294,1002.14Z" transform="translate(-882.774 -905.151)"/><path class="e" d="M933.672,1040.872a1.239,1.239,0,0,1,.185,1.33.011.011,0,0,1,0,.006,9.54,9.54,0,0,1-2.682,2.772c-.158.124-.3.238-.423.346-.032.027-.065.054-.1.081l-.074.063c-1.172,1.022-.748,1.275-2.86,3.358-2.407,2.372-4.02,2.372-4.473,2.138-.383-.2.441-1.47,1.353-2.9a9.975,9.975,0,0,0,4.257-2.961c1.459-1.76,2.462-4.046,3.458-5.359.053.034.105.069.157.1A5.9,5.9,0,0,1,933.672,1040.872Z" transform="translate(-884.152 -943.882)"/><path class="d" d="M748.951,990.012c-.315,1.378-2.282,1.093-4.473.494s-1.684.056-4.813-.377-4.048-1.629-4.131-2.1c-.074-.417,1.481-.52,3.149-.666q.315-.027.631-.058c1.885-.185,3.293-1.359,5.026-2.308,1.641-.9,4.158-4.674,4.158-4.674l4.3.458s-2.352,3.369-3.267,4.837a5.2,5.2,0,0,0-.5,2.921A5.527,5.527,0,0,1,748.951,990.012Z" transform="translate(-735.531 -896.81)"/><path class="e" d="M744.478,1017.336c-2.191-.6-1.684.056-4.813-.377s-4.048-1.629-4.131-2.1c-.074-.416,1.481-.52,3.149-.666l.015.032a8.853,8.853,0,0,0,4.457,1.52c2.128.11,4.4-.439,5.87-.375a5.527,5.527,0,0,1-.073,1.472C748.636,1018.22,746.669,1017.935,744.478,1017.336Z" transform="translate(-735.531 -923.641)"/><path class="e" d="M883.067,870.989l3.729,10.938,4.868,14.281a8.517,8.517,0,0,0,2.8-.179,12.1,12.1,0,0,0,2.735-1.24s-1.045-15.22-3.529-24.009a15.531,15.531,0,0,0-2.2-5.128C887.382,860.551,883.067,870.989,883.067,870.989Z" transform="translate(-852.401 -804.862)"/><path class="v" d="M810.434,809.939c2.659-.778,10.149.518,17.661,2.2l1.653-2.565,16.349-.83s5.058,12.085,1.9,19.611a2.543,2.543,0,0,1-2.75,1.581h-.291s-9.713.086-12.866,0c-8.113-.221-17.024-6.205-18.189-6.472-1.907-.436-2.779,3.379-4.806,7.354s-18.513,17.344-18.513,17.344a14.179,14.179,0,0,1-3.489-.454,3.444,3.444,0,0,1-1.476-.989S804.437,811.7,810.434,809.939Z" transform="translate(-775.208 -760.897)"/><path class="e" d="M985.919,604.758c5.722,3.357,17.327,10.309,17.389,10.268,0,0,4.287,1.75,6.789.185,4.17-2.609,6.566-9.87-.753-16.374-3.65-3.244-6.284-4.081-6.55-9.109-.145-2.728-3.621-11.812-9.825-11.15a9.448,9.448,0,0,1-1.561.06,5.788,5.788,0,0,0-3.159.725C984.694,581.35,977.244,603.283,985.919,604.758Z" transform="translate(-930.671 -578.543)"/><path class="d" d="M1023,657.961c-.026.016,2.831,1.079,4.783.277,1.836-.752,3.292-3.7,3.265-3.7-.824-.06-1.71-.807-2.279-5.56l-.355.117-5.966,1.965s.376,1.908.6,3.72C1023.247,656.3,1023.333,657.755,1023,657.961Z" transform="translate(-962.813 -634.336)"/><path class="z" d="M1022.451,651.5s.376,1.907.6,3.72c3.41-.518,4.834-3.863,5.362-5.685Z" transform="translate(-962.813 -634.781)"/><path class="d" d="M1003.155,614.017s8.114-.865,7.5-5.909.016-8.553-5.191-8.214-5.975,2.387-6.18,4.12S1001.029,614.112,1003.155,614.017Z" transform="translate(-944.448 -595.438)"/><path class="e" d="M1001.116,599.47s5.054,4.6,8.564,5.056,4.874-.638,4.874-.638a13.749,13.749,0,0,1-3.2-4.593,2.475,2.475,0,0,0-2-1.515C1006.844,597.494,1002.083,597.266,1001.116,599.47Z" transform="translate(-945.912 -593.64)"/><path class="e" d="M1000.553,601.211a12.755,12.755,0,0,0-2.356,2.853,9.79,9.79,0,0,0-.407,5.195s-2.554-5.318-.958-7.825C998.526,598.776,1000.553,601.211,1000.553,601.211Z" transform="translate(-942.103 -595.692)"/><path class="n" d="M990.406,690.086c-.2,16.37-.286,12.946,1.462,14.548a6.879,6.879,0,0,0,3.221.791c5.008.47,13.852-.117,14.212-1.035,1.245-3.177.455-4.2,1.554-9.082.115-.52.255-1.082.418-1.694.9-3.352,1.712-4.478-1-9.977-2.456-4.98-5.039-9.039-5.285-8.9-6.944,3.871-7.4.446-7.4.446S990.5,682.1,990.406,690.086Z" transform="translate(-937.346 -654.738)"/><path class="v" d="M901.007,906.821l4.868,14.281a8.517,8.517,0,0,0,2.8-.179,12.106,12.106,0,0,0,2.735-1.24s-1.045-15.22-3.529-24.009Z" transform="translate(-866.612 -829.756)"/><path class="n" d="M971.145,676.888s-7.065,1-7.973,4.006-6.252,20.672-6.252,20.672,3.558.74,5.254-.867,6.164-15.166,6.164-15.166Z" transform="translate(-910.903 -656.446)"/><path class="aa" d="M1013.331,757.613c5.009.47,13.852-.117,14.212-1.035,1.245-3.177.455-4.2,1.554-9.082l-2.235-6.881s.194,7.6-2.1,9.535-9.268,3.6-10.4,5.242A6.1,6.1,0,0,0,1013.331,757.613Z" transform="translate(-955.588 -706.927)"/><path class="d" d="M1007.8,804.337s-4.92-1.237-5.731-.819A11.636,11.636,0,0,0,999,806.032c-.26.55,1.79-.374,2.453-.533a5.86,5.86,0,0,1,2.09.518,6.993,6.993,0,0,0,3.758.481Z" transform="translate(-944.217 -756.687)"/><path class="n" d="M1042.288,674.731s6.636.591,8.849,3.863c3.116,4.606,9.017,24.034,5.265,26.5-4.226,2.779-18.9.242-18.9.242s-.427-2.3.284-3.394,11.842-2.578,12.367-3.075-6.121-10.147-6.079-11.681S1042.288,674.731,1042.288,674.731Z" transform="translate(-974.638 -654.738)"/><path class="d" d="M1004.953,810.443a9.585,9.585,0,0,1-1.418,1.46,1.016,1.016,0,0,1-.563.1l.733-1.239Z" transform="translate(-947.382 -762.241)"/><path class="d" d="M1002.191,803.846l-3.055,1.382a.537.537,0,0,0,.494.207,7.2,7.2,0,0,0,1.318-.324Z" transform="translate(-944.344 -757.015)"/><g transform="translate(25.552 33.022)"><path class="t" d="M889.007,756.1l-23.855-.65-6.69-18.04,23.818.649Z" transform="translate(-858.462 -737.411)"/><path class="ab" d="M889.393,820.82l31.5.858-.019.7-31.221-.851Z" transform="translate(-882.964 -803.483)"/><path class="n" d="M920.642,777.82a.827.827,0,0,1,.841-1.113,1.628,1.628,0,0,1,1.43,1.175.827.827,0,0,1-.841,1.114A1.628,1.628,0,0,1,920.642,777.82Z" transform="translate(-907.688 -768.538)"/></g></g></svg>