<svg xmlns="http://www.w3.org/2000/svg" width="17.105" height="17.105" viewBox="0 0 17.105 17.105"><defs><style>.a{fill:#0077b5;}</style></defs><path class="a" d="M397.149,105.286h0V99.012c0-3.069-.661-5.433-4.248-5.433a3.724,3.724,0,0,0-3.355,1.844h-.05V93.866h-3.4v11.419h3.542V99.63c0-1.489.282-2.928,2.126-2.928,1.817,0,1.844,1.7,1.844,3.024v5.56Z" transform="translate(-380.049 -88.181)"/><path class="a" d="M213.448,102.176h3.546V113.6h-3.546Z" transform="translate(-213.166 -96.491)"/><path class="a" d="M207.054-68A2.055,2.055,0,0,0,205-65.946a2.071,2.071,0,0,0,2.054,2.073,2.071,2.071,0,0,0,2.054-2.073A2.055,2.055,0,0,0,207.054-68Z" transform="translate(-205 68)"/></svg>