<svg xmlns="http://www.w3.org/2000/svg" width="86.8" height="14.54" viewBox="0 0 86.8 14.54"><defs><style>.a{fill:#007feb;}</style></defs><path class="a" d="M1.38-14.28V0h10.1V-2.64H4.52V-14.28Zm14.48,2.34v-2.34H13.02v2.34Zm-2.84,1.6V0h2.84V-10.34Zm5.08,0V0h2.84V-5.42a3.836,3.836,0,0,1,.52-2.27,1.968,1.968,0,0,1,1.68-.69,1.549,1.549,0,0,1,1.42.63,3.624,3.624,0,0,1,.4,1.91V0H27.8V-6.36a8.334,8.334,0,0,0-.17-1.75,3.328,3.328,0,0,0-.59-1.34,2.772,2.772,0,0,0-1.15-.86,4.823,4.823,0,0,0-1.87-.31,4.048,4.048,0,0,0-1.76.41,3.259,3.259,0,0,0-1.4,1.31H20.8v-1.44Zm12.12-3.94V0h2.84V-3.56l1.1-1.06L37,0h3.44L36.1-6.54l3.9-3.8H36.64L33.06-6.62v-7.66Zm18.18,8H43.78a3.26,3.26,0,0,1,.13-.68,2.088,2.088,0,0,1,.38-.72,2.151,2.151,0,0,1,.72-.57,2.471,2.471,0,0,1,1.13-.23,2,2,0,0,1,1.55.56A3.282,3.282,0,0,1,48.4-6.28Zm-4.62,1.8h7.46a7.3,7.3,0,0,0-.2-2.3,5.63,5.63,0,0,0-.91-1.96,4.59,4.59,0,0,0-1.61-1.37,4.917,4.917,0,0,0-2.3-.51,5.355,5.355,0,0,0-2.15.42A5.083,5.083,0,0,0,42.4-9.05a5.069,5.069,0,0,0-1.08,1.73,6.031,6.031,0,0,0-.38,2.16,6.3,6.3,0,0,0,.37,2.2,5,5,0,0,0,1.05,1.72A4.574,4.574,0,0,0,44.02-.13a5.906,5.906,0,0,0,2.2.39,5.416,5.416,0,0,0,3-.8A4.746,4.746,0,0,0,51.06-3.2h-2.5a1.784,1.784,0,0,1-.76.91,2.532,2.532,0,0,1-1.48.43,2.539,2.539,0,0,1-1.84-.62A2.871,2.871,0,0,1,43.78-4.48ZM60.26-5.2a6.308,6.308,0,0,1-.12,1.24,3.361,3.361,0,0,1-.4,1.07,2.127,2.127,0,0,1-.75.75,2.252,2.252,0,0,1-1.17.28,2.11,2.11,0,0,1-1.13-.29,2.5,2.5,0,0,1-.78-.76,3.277,3.277,0,0,1-.45-1.07,5.265,5.265,0,0,1-.14-1.2,5.7,5.7,0,0,1,.13-1.23,3.271,3.271,0,0,1,.42-1.05,2.214,2.214,0,0,1,.77-.74,2.307,2.307,0,0,1,1.18-.28,2.2,2.2,0,0,1,1.16.28,2.308,2.308,0,0,1,.75.73,3.006,3.006,0,0,1,.41,1.04A6.158,6.158,0,0,1,60.26-5.2Zm.04,3.88V0H63V-14.28H60.16v5.2h-.04a3.049,3.049,0,0,0-1.31-1.15,4.066,4.066,0,0,0-1.75-.39,4.254,4.254,0,0,0-2,.45,4.288,4.288,0,0,0-1.43,1.19,5.224,5.224,0,0,0-.86,1.71,6.979,6.979,0,0,0-.29,2.01,7.43,7.43,0,0,0,.29,2.08,5.537,5.537,0,0,0,.86,1.77A4.1,4.1,0,0,0,55.08-.19a4.421,4.421,0,0,0,2.04.45,4.356,4.356,0,0,0,1.83-.37,2.93,2.93,0,0,0,1.31-1.21Zm5.14-12.96V0H76.28V-2.64h-7.7v-3.5H75.5V-8.58H68.58v-3.06h7.54v-2.64Zm20,9.08a6.309,6.309,0,0,1-.12,1.24,3.361,3.361,0,0,1-.4,1.07,2.127,2.127,0,0,1-.75.75A2.252,2.252,0,0,1,83-1.86a2.11,2.11,0,0,1-1.13-.29,2.5,2.5,0,0,1-.78-.76,3.277,3.277,0,0,1-.45-1.07,5.266,5.266,0,0,1-.14-1.2,5.7,5.7,0,0,1,.13-1.23,3.271,3.271,0,0,1,.42-1.05,2.214,2.214,0,0,1,.77-.74A2.307,2.307,0,0,1,83-8.48a2.2,2.2,0,0,1,1.16.28,2.308,2.308,0,0,1,.75.73,3.006,3.006,0,0,1,.41,1.04A6.159,6.159,0,0,1,85.44-5.2Zm.04,3.88V0h2.7V-14.28H85.34v5.2H85.3a3.049,3.049,0,0,0-1.31-1.15,4.066,4.066,0,0,0-1.75-.39,4.254,4.254,0,0,0-2,.45,4.288,4.288,0,0,0-1.43,1.19,5.224,5.224,0,0,0-.86,1.71,6.979,6.979,0,0,0-.29,2.01,7.43,7.43,0,0,0,.29,2.08,5.537,5.537,0,0,0,.86,1.77A4.1,4.1,0,0,0,80.26-.19,4.421,4.421,0,0,0,82.3.26a4.356,4.356,0,0,0,1.83-.37,2.93,2.93,0,0,0,1.31-1.21Z" transform="translate(-1.38 14.28)"/></svg>