<svg xmlns="http://www.w3.org/2000/svg" width="635.732" height="337.06" viewBox="0 0 635.732 337.06"><defs><style>.a{fill:#e7f3fe;}.b{fill:#cce2ff;}.c{fill:#2e5b9a;}.d{fill:#f09959;}.e{fill:#6791c9;}.f{fill:#75a1de;}.g{fill:#f37168;}.h{fill:#d54a41;}.i{fill:#e38540;}.j{fill:#f2e5de;}.k{fill:#303c60;}.l{fill:#74b570;}.m{fill:#9cd499;}.n{fill:#fff;}</style></defs><path class="a" d="M321.311,234.11c86.834-32.237,175.09-3.736,234.946,58.338s185.475-42.845,252.1,19.129c45.466,42.294,24.641,151.032-37.7,198.129-84.737,64.016-342.432,31.533-398.176,20.639-64.221-12.551-111.172-50.632-130.248-96.85C196.266,322.13,282.938,248.356,321.311,234.11Z" transform="translate(-229.12 -220.718)"/><path class="b" d="M974.394,1704.387c-43.467-2.125-191.333,1.475-236.3,2.879s-97.171-1.852-124.287-6.639-183.853.407-176.74,13.277,69.833,5.757,140.96,10.93,231.092-.647,267.175,0,69.171-1.293,115.671-3.88S999.589,1705.619,974.394,1704.387Z" transform="translate(-393.418 -1389.936)"/><rect class="c" width="162.717" height="6.063" rx="3.032" transform="translate(292.713 208.897)"/><g transform="translate(356.995 105.293)"><path class="d" d="M2513.871,789.343c2.158,7.607-3.112,15.446-8.917,17.093s-9.948-3.522-12.106-11.13.8-15.109,6.6-16.756S2511.713,781.736,2513.871,789.343Z" transform="translate(-2376.162 -767.002)"/><path class="d" d="M2414.926,1536.709s14.879,23.109,16.888,24.114,7.033,1.256,5.149,5.024-2.637,18.588-4.4,19.341-16.83,2.512-14.569,0,3.651-1.256,4.792-5.777,2.743-13.062.608-14.82-15.2-17.583-15.2-17.583Z" transform="translate(-2309.767 -1366.959)"/><path class="d" d="M1967.494,1584.192s-18.086,29.809-21.435,32.488-14.4,6.7-5.359,7.369,13.4-3.014,19.091-4.689,12.727-2.679,10.048-7.033-1.567-13.859,4.21-19.888S1967.494,1584.192,1967.494,1584.192Z" transform="translate(-1937.219 -1404.518)"/><path class="e" d="M2145.3,1253.378s-44.772-1.171-62.524,13.4c-10.383,15.742-35.5,62.188-37.453,67.307,1.34,1.34,8.876,3.757,12.225,3.422,9.881-11.781,22.94-21.966,28.134-31.207,6.4-11.387,8.373-17.081,18.756-18.086s33.828-4.354,40.862-4.354S2145.3,1253.378,2145.3,1253.378Z" transform="translate(-2022.73 -1142.827)"/><path class="c" d="M2637.912,1509.537h-2.347l-16.829-70.215h5.163Z" transform="translate(-2476.298 -1289.926)"/><path class="c" d="M2374.111,1500.143h2.347l19.311-72.7h-5.163Z" transform="translate(-2282.8 -1280.531)"/><path class="f" d="M2312.556,1238.789l-26.03,4.493s-34.591.318-50.4,3.263c-14.385,2.679-16.505,19.025,0,41.531,9.376,12.786,17.3,22.984,33.514,34.484,4.124-3.028,5.7-4.173,6.841-11.458-1.173-1.609-4.21-11.677-5.153-13.648-8.967-18.744-20.935-25.56-21.1-27.4,2.01-3.265,53.229,17.021,63.413,5.088C2323.36,1263.744,2312.556,1238.789,2312.556,1238.789Z" transform="translate(-2164.478 -1131.304)"/><path class="g" d="M2525.192,955.707a27.238,27.238,0,0,0-20.368,5.068c-5.706,5.817-12.163,15.409-11.767,31.231.5,20.095-3.11,21.385.658,26.911,15.715,6.489,42.591,34.371,36.262,4.48-4.583-21.643,10.052-37.776-1.754-61.784C2527.262,959.659,2526.061,957.764,2525.192,955.707Z" transform="translate(-2376.033 -907.152)"/><path class="h" d="M2493.055,1018.568c-.305,10.476-1.785,13.562-.654,16.847,6.406.654,18.125,3.218,21.054,7.318,3.349,4.689,6.7,5.359,5.135,1.9s-5.693-8.373.67-25.231,9.378-28.246,3.126-39.968Z" transform="translate(-2376.035 -926.152)"/><path class="d" d="M2573.809,876.511a81.767,81.767,0,0,1-5.258-21.222l-11.052,3.265s6.28,14.066.251,19.09a57.616,57.616,0,0,0-4.309,3.935A27.237,27.237,0,0,1,2573.809,876.511Z" transform="translate(-2424.65 -827.956)"/><path class="i" d="M2584.3,860.188c-.654-.582-1.474-1.31-2.334-2.07l-9.015,2.663-.019.049a36.811,36.811,0,0,1,2.816,11.01c2.687-1.63,5.628-4.287,8.991-8.929C2584.56,861.881,2584.416,860.962,2584.3,860.188Z" transform="translate(-2440.07 -830.194)"/><path class="d" d="M2359.6,970.669c-11.384,3.981-10.121,15.973-20.6,33.659-5.422,9.153-10.457,9.017-10.457,9.017a242.555,242.555,0,0,1-28.1-1.779c-9.631-1.177-10.242,1.69-3.544,4.084,13.509,4.83,27.528,10.028,38.831,8.773s30.636-30.1,31.633-37.6C2368.745,976.436,2365.329,968.664,2359.6,970.669Z" transform="translate(-2218.207 -918.971)"/><g transform="translate(95.509 76.472)"><path class="c" d="M2434.217,1166.256q-1.062,0-2.176-.028a108.275,108.275,0,0,1-20.667-2.544c-5.925-1.2-9.188-1.868-12.986-.052a2.926,2.926,0,1,1-2.523-5.28c5.566-2.66,10.226-1.713,16.675-.4a103.109,103.109,0,0,0,19.646,2.428c9.806.244,15.785-1.21,18.815-4.571,2.7-2.994,3.49-8.025,2.486-15.833-.343-2.672-.687-4.894-.99-6.855-.855-5.531-1.42-9.186-.72-14.835.65-5.246,2.387-12.234,6.411-25.784a2.926,2.926,0,1,1,5.61,1.666c-7.5,25.25-7.117,27.709-5.517,38.06.309,2,.658,4.257,1.011,7,1.238,9.628-.016,16.141-3.945,20.5C2451.3,1164.213,2444.734,1166.256,2434.217,1166.256Z" transform="translate(-2394.199 -1090.406)"/></g><path class="h" d="M1968.723,1704.4c-12,5.869-18.46,9.233-22.307,8.912-.908-.075-1.661-.168-2.292-.267-4.28,2.529-11.111,5.518-3.425,6.088,9.043.67,13.4-3.015,19.091-4.689s12.727-2.679,10.048-7.034A9.157,9.157,0,0,1,1968.723,1704.4Z" transform="translate(-1937.219 -1499.602)"/><path class="h" d="M2469.325,1654.431c-.293,9.5-1.6,18.917-7.41,20.7a9.765,9.765,0,0,1-4.187.374c-.914,1.13-2.029,1.143-3.526,2.806-2.26,2.512,12.811.754,14.569,0s2.512-15.573,4.4-19.341C2474.714,1655.869,2471.6,1655.147,2469.325,1654.431Z" transform="translate(-2345.969 -1460.077)"/><g transform="translate(20.672 65.424)"><path class="f" d="M2092.588,1076.552h-38.125a2.926,2.926,0,0,1-2.653-1.693L2036.4,1041.7a2.926,2.926,0,1,1,5.307-2.466l14.62,31.465h36.258a2.926,2.926,0,0,1,0,5.852Z" transform="translate(-2036.13 -1037.542)"/></g><path class="d" d="M2216.127,1153.613c-7.7-.112-15.344-4.7-19.139-4.033s-16.188,9.266-14.625,9.6,11.388-4.757,11.723-4.835,2.456,3.527,7.7,4.851.037-3.933,16.3.98C2228.667,1163.371,2216.127,1153.613,2216.127,1153.613Z" transform="translate(-2131.02 -1060.687)"/><path class="j" d="M2546.781,913.192l1.133,9.12s-9.969.593-14.929,3.384-12.281,10.855-12.281,10.855l5.981-10.3.861-6.587Z" transform="translate(-2398.755 -873.758)"/><path class="j" d="M2405.409,965.919c-7.4-1.387-10.83,5.247-15.63,16.077s-13,23.982-14.625,25.678-27.464,0-27.464,0-.781,7.48,0,8.373,5.247.781,5.247.781,1.786,1.427,3.461,2.555,15.853,3.25,22.44,2.915,12.616-.893,13.509-1.9,18.868-28.692,19.984-38.629S2409.188,966.627,2405.409,965.919Z" transform="translate(-2261.625 -915.32)"/><path class="k" d="M2475.544,729.56c-14,.67-11.807,21.736-11.807,21.736s3.637,1.123,11.256-.133c-.586-2.261-.334-8.038-.334-8.038a52.627,52.627,0,0,0,2.009,7.536c1.611.738,3.433.084,6.531-.665,1.591,6.694,6.086,9.522,9.164,10.49,3.4,1.069,7,2.345,11.02.335s1.809-22.552-.325-26.683c-3.2-6.2-8.528-11.75-17.739-8.82A68.419,68.419,0,0,0,2475.544,729.56Z" transform="translate(-2353.595 -724.512)"/><path class="k" d="M2637.22,862.671l5.725,8.362s-6.345,15.853,12.109,23.036c14.452,5.625,12.75,15.536,6.219,25.5s3.907,18.672,3.907,18.672,1.592-11.042,15.634-13.126c19.146-2.842,24.568-28.548,10.267-41.4-11.834-10.636-15.434-1.828-23.445-11.373s-23.133-3.1-23.133-3.1l-5.542-8.083Z" transform="translate(-2490.919 -832.603)"/><g transform="translate(153.076 33.001)"><path class="k" d="M2723.31,926.417a.51.51,0,0,1-.447-.754c4.815-8.8.886-19.458-1.089-22.345-.209-.306-.408-.616-.619-.945-1.941-3.031-4.357-6.8-17.25-9.123-3.1-.559-5.619-2.4-8.281-4.358-5.5-4.036-11.728-8.61-25.267-2.379a.509.509,0,0,1-.426-.925c14.083-6.482,20.571-1.719,26.3,2.483,2.564,1.882,4.985,3.66,7.858,4.177,13.329,2.4,15.878,6.378,17.926,9.575.206.322.4.625.6.919,2.07,3.025,6.186,14.193,1.143,23.41A.508.508,0,0,1,2723.31,926.417Z" transform="translate(-2669.636 -882.409)"/></g><g transform="translate(128.282 18.718)"><path class="k" d="M2565.967,833.989a20.151,20.151,0,0,1-2.974-.239c-4.9-.734-11.472-3.518-11.987-19.153a.509.509,0,0,1,1.018-.033c.212,6.445,1.491,11.213,3.8,14.172a10.68,10.68,0,0,0,7.321,4.007c4.533.679,7.539-.158,8.931-2.488a.509.509,0,1,1,.874.523C2571.673,832.914,2569.33,833.989,2565.967,833.989Z" transform="translate(-2551.005 -814.072)"/></g></g><path class="c" d="M1711.333,1351.855h3.762l14.636-111.879h-8.277Z" transform="translate(-1401.549 -1026.95)"/><path class="c" d="M2252.553,1351.855h-3.762l-14.636-111.879h8.277Z" transform="translate(-1815.1 -1026.95)"/><g transform="translate(539.526 204.406)"><path class="l" d="M3002.429,1323.431c6.51,5.943,3.679,11.886-1.132,22.924s-5.66,51.792-5.66,51.792l3.963-.566s-.566-41.886,4.811-53.207,7.642-16.981,12.453-13.3S3002.429,1323.431,3002.429,1323.431Z" transform="translate(-2956.958 -1297.369)"/><path class="m" d="M3009.7,1217.1c.791-3.522,5.485-7.333,11.763-10.566-.933,5.195-3.926,13.689-.829,15.431,4.177,2.35.407-9.509,2.019-16.028a77.56,77.56,0,0,1,19.516-6.4c-.009.024-.016.047-.026.072-3.679,9.34-8.49,13.019-6.51,14.434,1.491,1.064,6.346-9.724,12.756-15.254,4.812-.256,8.883.4,11.291,2.3,3.722,2.947,6.22,5.561,2.477,14.534a16.826,16.826,0,0,1-8.127,2.946c-8.491.849-12.453,1.132-6.51,3.962,2.911,1.386,7.789-.078,11.744-.97-1.283,2.364-2.86,5.04-4.777,8.088a30.049,30.049,0,0,1-3.978,5.063c-2.736.524-5.122.53-6.385-.011-3.962-1.7-14.151-7.075-16.7-4.811-2.493,2.216,18.869,3.62,17.389,9.251-10.354,5.966-22.2,3.127-24.3-2.351C3017.7,1229.433,3007.317,1227.7,3009.7,1217.1Z" transform="translate(-2967.801 -1198.733)"/><path class="l" d="M2992.207,1465.447c-11.321-8.491-22.924-.566-28.868,8.49s-1.7,29.434-1.7,29.434,2.264,0,2.264-.849-6.227-24.057,8.49-34.528c9.207-6.551,15.849-3.4,16.7-.283s-3.679,8.773-3.679,8.773Z" transform="translate(-2928.905 -1406.839)"/><path class="m" d="M2986.962,1395.649c11.321,0,15,17.547,11.887,27.736s-7.358,29.151-7.358,29.151l-2.83-2.83s10.755-26.6,8.208-38.49-8.774-13.868-9.906-13.868S2986.962,1395.649,2986.962,1395.649Z" transform="translate(-2949.698 -1354.493)"/><path class="l" d="M3023.544,1519.255a8.2,8.2,0,0,1,2.98-2.5,22.4,22.4,0,0,1-.588,2.425c-1.419,4.642-3.072,11.1-4.452,16.766-.125-.725-.318-1.842-.617-3.566-.071-.407-.126-.849-.164-1.317A109.8,109.8,0,0,0,3023.544,1519.255Z" transform="translate(-2976.786 -1450.285)"/><path class="m" d="M3026.952,1468.747c21.509-9.056,10.177-21.484,29.139-13.277a14.075,14.075,0,0,1,4.593,4.046,14.119,14.119,0,0,1-6.008.482c-5.66-.849-3.679,3.68,5.66,4.812a20.948,20.948,0,0,1,4.376.923c4.449,8.546,6.455,19.79-2.961,23.7a21.321,21.321,0,0,1-6.7,1.375c-2.906-2.309.709-15.672-3.771-13.828-4.3,1.771,1.348,11.456.574,13.9a62.053,62.053,0,0,1-13.437-1.883,6.687,6.687,0,0,1-3.552-4.088c-1.415-5.943,7.924-9.622,8.208-14.717.26-4.683-3.423,10.3-13.182,12.509C3021.067,1478.574,3016.9,1472.98,3026.952,1468.747Z" transform="translate(-2977.098 -1399.691)"/><path class="m" d="M2845.1,1374.873c2.264-4.811-3.679-5.943-3.4-2.264.251,3.26.278,11.185-3.065,13.343a52.465,52.465,0,0,1-19.543-6.49,2.4,2.4,0,0,1,.25-1.475c2.547-5.094,18.962-9.34,13.868-11.038-4.057-1.352-11.166,6.63-16.9,10.651-3.441-2.61-5.746-5.722-5.746-9.2,0-4.7,5.713-10.024,13.1-12.568,3.325.335,6.414,2.153,11.238,4.887,7.126,4.039,5.479-2.491-1.26-6.366a20.3,20.3,0,0,1,15.895,8.724s-.4,2.538,2.281,6.464c7.328,10.71-1.128,16.963-11.238,16.557C2841.16,1383.278,2843.535,1378.2,2845.1,1374.873Z" transform="translate(-2810.571 -1321.831)"/><path class="l" d="M3100.607,1476.587c5.534,4.277,11.683,9.277,19.23,12.674s6.038,14.466,6.038,14.466,1.132-9.56-5.157-12.831-10.441-7.17-15.22-7.925a69.265,69.265,0,0,1-7.422-1.509s1.51-3.019.629-4.151S3100.607,1476.587,3100.607,1476.587Z" transform="translate(-3037.986 -1418.458)"/><path class="l" d="M3086.945,1236.565c-20.252,5.409-35.1,18.365-37.863,21.51s-2.767,4.025-2.767,4.025l2.139,4.026,1.006-.5s-1.635-3.4,2.642-7.8c7.375-7.592,16.353-13.585,22.517-16.227S3086.945,1236.565,3086.945,1236.565Z" transform="translate(-2997.044 -1228.658)"/><path class="f" d="M13.831,0h0A13.831,13.831,0,0,1,27.662,13.831V27.74a0,0,0,0,1,0,0H0a0,0,0,0,1,0,0V13.831A13.831,13.831,0,0,1,13.831,0Z" transform="translate(51.698 120.008) rotate(180)"/><rect class="n" width="27.662" height="1.947" transform="translate(24.036 95.446)"/><rect class="n" width="27.662" height="1.145" transform="translate(24.036 98.997)"/></g></svg>