<svg xmlns="http://www.w3.org/2000/svg" width="18" height="18" viewBox="0 0 14.587 19.283"><defs><style>.a{fill:#000000;stroke:#fff;stroke-width:0.5px;}</style></defs><g transform="translate(0.25 0.25)"><path class="a" d="M233.611,296.673h-3.13a1.641,1.641,0,0,1-1.565-1.847V292.76a2.77,2.77,0,0,0-1.058-2.245A7,7,0,0,1,225,284.752a7.077,7.077,0,0,1,6.939-6.862,7.226,7.226,0,0,1,5.065,2.032,6.932,6.932,0,0,1,2.082,4.969,7.016,7.016,0,0,1-2.827,5.605,2.819,2.819,0,0,0-1.086,2.274v2.337a1.567,1.567,0,0,1-1.565,1.565Zm-1.567-17.217h-.08a5.57,5.57,0,0,0-5.4,5.328,5.432,5.432,0,0,0,2.216,4.472,4.338,4.338,0,0,1,1.7,3.5v2.066a.573.573,0,0,0,.056.31l3.074-.028v-2.337a4.4,4.4,0,0,1,1.717-3.531,5.4,5.4,0,0,0,.579-8.2,5.456,5.456,0,0,0-3.863-1.581Zm0,0" transform="translate(-225.003 -277.89)"/><path class="a" d="M270.478,423.455h-4.7a.783.783,0,0,1,0-1.565h4.7a.783.783,0,1,1,0,1.565Zm0,0" transform="translate(-261.087 -407.803)"/></g></svg>