<svg xmlns="http://www.w3.org/2000/svg" xmlns:xlink="http://www.w3.org/1999/xlink" width="74.853" height="74.956" viewBox="0 0 74.853 74.956"><defs><style>.a{fill:#ff9102;}.b{fill:url(#a);}.c{fill:url(#b);}.d{fill:#c2cece;}.e{fill:url(#c);}.f{fill:url(#d);}.g{fill:url(#e);}.h{fill:#f37168;}.i{fill:#fff;}.j{fill:url(#f);}</style><linearGradient id="a" x1="0.085" y1="1.113" x2="1.067" y2="0.07" gradientUnits="objectBoundingBox"><stop offset="0" stop-color="#fff"/><stop offset="1" stop-color="#e8efee"/></linearGradient><linearGradient id="b" x1="0.936" y1="-8.083" x2="-0.054" y2="-9.223" gradientUnits="objectBoundingBox"><stop offset="0" stop-color="#c2cece" stop-opacity="0"/><stop offset="0.179" stop-color="#afbcbc" stop-opacity="0.18"/><stop offset="1" stop-color="#5b6a6a"/></linearGradient><linearGradient id="c" x1="0.771" y1="0.781" x2="-0.083" y2="1.568" xlink:href="#b"/><linearGradient id="d" x1="0.463" y1="0.122" x2="0.463" y2="-0.454" gradientUnits="objectBoundingBox"><stop offset="0" stop-color="#ffc200"/><stop offset="0.268" stop-color="#fb0"/><stop offset="0.659" stop-color="#ffa801"/><stop offset="1" stop-color="#ff9102"/></linearGradient><linearGradient id="e" x1="0.462" y1="-0.977" x2="0.462" y2="-1.276" xlink:href="#d"/><linearGradient id="f" x1="0.223" y1="0.976" x2="-0.501" y2="1.746" xlink:href="#b"/></defs><path class="a" d="M35.839,2.456.351,31.131v5.344H75.2V31.131L39.716,2.456A3.085,3.085,0,0,0,35.839,2.456Z" transform="translate(-0.351 -1.511)"/><path class="b" d="M87.02,64.6H24.506a3.085,3.085,0,0,1-3.085-3.084V3.085A3.085,3.085,0,0,1,24.506,0H87.02A3.085,3.085,0,0,1,90.1,3.085V61.517A3.084,3.084,0,0,1,87.02,64.6Z" transform="translate(-18.336)"/><path class="c" d="M90.106,408.463v1.2a3.6,3.6,0,0,1-3.6,3.6H25.024a3.6,3.6,0,0,1-3.6-3.6v-1.2Z" transform="translate(-18.337 -348.665)"/><g transform="translate(17.582 9.768)"><rect class="d" width="39.689" height="2.262"/><rect class="d" width="39.689" height="2.262" transform="translate(0 9.048)"/><rect class="d" width="39.689" height="2.262" transform="translate(0 18.302)"/><rect class="d" width="39.689" height="2.262" transform="translate(0 27.556)"/></g><path class="e" d="M373.1,183.082a12.594,12.594,0,0,1-8.089-2.926l-.856.15,18.508,18.508V178.707A12.614,12.614,0,0,1,373.1,183.082Z" transform="translate(-310.898 -152.545)"/><path class="f" d="M75.2,202.791v42.183a3.086,3.086,0,0,1-3.085,3.085H3.436a3.086,3.086,0,0,1-3.085-3.085V202.791l37.838,29.845Z" transform="translate(-0.351 -173.103)"/><path class="g" d="M78.928,334.523,44.265,306.575a3.085,3.085,0,0,0-3.872,0L5.2,334.949a3.078,3.078,0,0,0,2.375,1.116H76.259A3.081,3.081,0,0,0,78.928,334.523Z" transform="translate(-4.491 -261.11)"/><circle class="h" cx="12.647" cy="12.647" r="12.647" transform="translate(49.559 6.272)"/><path class="i" d="M405.781,73.649a1.13,1.13,0,0,1,.5-.97l2.462-2.367a.869.869,0,0,1,.639-.26,1.374,1.374,0,0,1,.769.225.691.691,0,0,1,.343.6V86.55a.68.68,0,0,1-.379.6,1.682,1.682,0,0,1-.876.225,1.665,1.665,0,0,1-.888-.225.681.681,0,0,1-.367-.6V73.388l-.828,1.042a.724.724,0,0,1-.521.237.743.743,0,0,1-.6-.32A1.112,1.112,0,0,1,405.781,73.649Z" transform="translate(-346.427 -59.796)"/><path class="j" d="M22.383,62.479V4.046A3.085,3.085,0,0,1,25.467.962H87.982a3.065,3.065,0,0,1,1.645.478A3.079,3.079,0,0,0,87.02,0H24.506a3.085,3.085,0,0,0-3.085,3.085V61.517a3.079,3.079,0,0,0,1.44,2.606A3.066,3.066,0,0,1,22.383,62.479Z" transform="translate(-18.336)"/></svg>