<svg xmlns="http://www.w3.org/2000/svg" width="195.476" height="318.046" viewBox="0 0 195.476 318.046"><defs><style>.a{fill:#ffb27d;}.b{fill:#ee726c;}.c{fill:#ed7d2b;}.d{fill:#233862;}.e{fill:#2a4e96;}.f{fill:#ed985f;}.g{fill:#2c3a64;}.h{fill:#d34e47;}.i{fill:#bc3f3f;}.j{fill:#a02e2e;}.k{fill:#e3645d;}</style></defs><path class="a" d="M1866.266,600.373s-4.826-8.577,0-10.322,7.01-.136,7.24,1.818-1.839,9.653-1.839,9.653Z" transform="translate(-1720.776 -569.192)"/><path class="b" d="M1694.254,680.027a156.079,156.079,0,0,1-24.193,2.485,134.915,134.915,0,0,1-18.6-.837q-2.193-.251-4.215-.561c-14.248-2.16-22.115-5.992-22.115-5.992s13.018-27.25,23.533-26.2c12.338,1.23,33.244,12.3,35.322,9.2,2.339-3.5,4.3-33.5,4.3-33.5,5.47-3.746,8.736.2,8.736.2S1707.709,677.6,1694.254,680.027Z" transform="translate(-1544.895 -593.99)"/><path class="c" d="M1758.594,797.228a156.086,156.086,0,0,1-24.193,2.485,134.924,134.924,0,0,1-18.6-.837c-3.282-10.439-5.643-21.1.959-14.673C1728.408,795.541,1758.594,797.228,1758.594,797.228Z" transform="translate(-1609.234 -711.191)"/><path class="d" d="M1620.865,1660.5s-.936,10.833,1.354,11.96l29.306-.06s0-3.382-4.707-4.134-12.976-3.508-14.376-9.646S1620.865,1660.5,1620.865,1660.5Z" transform="translate(-1541.614 -1354.44)"/><path class="e" d="M1599.027,1081.082c-.145,7.084-.485,14.39-1.151,20.957-3.165,31.159-4.278,68.807-4.733,76.066-.788,12.6-3.278,32.729-3.278,32.729s-4.937,4.687-14.56,2.45c0,0-7.973-28.992-9.754-59.52-.028-.5-.055-1-.081-1.508-.207-4.036-.423-8.651-.644-13.627-1.467-33.332-3.059-82.847-3.059-82.847l36.774-8.635S1599.388,1063.423,1599.027,1081.082Z" transform="translate(-1498.261 -906.137)"/><path class="d" d="M1599.027,1081.082c-9.32,16.079-27.084,45.7-34.2,57.548-1.467-33.332-3.059-82.847-3.059-82.847l36.774-8.635S1599.388,1063.423,1599.027,1081.082Z" transform="translate(-1498.261 -906.137)"/><path class="a" d="M1328.917,1057.7s-5.984,7.037-6.522,8.988-1.5,8.982-.984,11.094,4.492-5.89,5.939-6.745-1.086,3.183-.591,3.857,3.352-2.357,4.466-3.382,1-6.545,2.342-9.809S1328.917,1057.7,1328.917,1057.7Z" transform="translate(-1321.264 -913.901)"/><path class="d" d="M1332.859,1619.273s-5.216,4.76-4.2,8.142,5.725,5.637,6.361,9.771,3.18,6.388,5.47,6.388h10.917s1.686-2.909-2.385-3.786-5.606-5.734-5.352-10.244a79.472,79.472,0,0,0-.381-10.522l-8.651-2Z" transform="translate(-1326.611 -1325.528)"/><path class="e" d="M1433.165,1051.514s-34.425,73.656-52.745,105.975-24.044,41.338-24.044,41.338-10.5-4.134-11.45-6.952c0,0,7.005-62.392,19.274-77.6,6.932-8.594,15.075-34.385,15.457-43.4s8.424-30.546,8.424-30.546Z" transform="translate(-1338.679 -901.114)"/><path class="b" d="M1545.937,798.089a59.659,59.659,0,0,1-33.065,8.3c-8.5-.371-25.37-2.782-28.093-9.545-.639-1.587-.17-3.6.788-6.7,2.489-8.038,8.289-23.345,6.537-57.284a55.687,55.687,0,0,1,.228-8.906c1.825-16.717,11.405-26.617,20.665-29.852,22.583-7.893,30.111,3.042,30.111,3.042s9.982,7.909,11.487,24.413C1557.6,754.577,1545.937,798.089,1545.937,798.089Z" transform="translate(-1441.386 -644.215)"/><path class="a" d="M1617.52,636.6s10.362,6.3,21.6,4.52c0,0,2.222-.565,1.13-3.173a33.316,33.316,0,0,0,1-3.48,52.5,52.5,0,0,0,1.287-5.678l-6.378-6.7-6.041-6.406C1628.447,630.99,1617.52,636.6,1617.52,636.6Z" transform="translate(-1539.291 -588.601)"/><path class="f" d="M1661.557,637.668s3.471,9.278,12.1,12.981c.985-3.6,1.627-7.367,1.627-7.367l-6.718-5.015Z" transform="translate(-1571.7 -604.784)"/><path class="a" d="M1676.132,573.973s-19.779,2.472-21.168-9.682-4.876-20.021,7.693-22.114,15.557,2.276,17.023,6.223S1681.241,573.016,1676.132,573.973Z" transform="translate(-1565.733 -534.11)"/><path class="g" d="M1631.388,519.229c-.171-.211-.576-.392-1.49-.477a3.72,3.72,0,0,1,1.73-.417c.239-1.266,1-3.5,3.215-3.96a2.75,2.75,0,0,0-1.407,1.932c2.637-2.512,8.15-4.2,23.17-2.445,19.8,2.318,12.771,14.782,10.143,16.2s-8.94-2.981-13.744-2.782-5.976,7.085-7.636,7.973-.958-.767-3.119-1.843-2.507,2.558-1.962,4.95-2.593,5.4-2.593,5.4l-2.928-3.4c-2.928-3.4-5.278-17.434-3.778-20.349C1631.122,519.751,1631.253,519.491,1631.388,519.229Z" transform="translate(-1548.401 -513.137)"/><g transform="translate(107.921 9.776)"><path class="e" d="M1770.076,589.2l-33.578.3-.229-5.051,33.474-2.594Z" transform="translate(-1734.604 -573.483)"/><path class="e" d="M1857.235,580.871l-36.558.529-.417-9.184,36.454-2.825Z" transform="translate(-1796.416 -564.312)"/><path class="d" d="M1966.151,573.363l-30.829.038-.563-12.4,30.7-2.794Z" transform="translate(-1880.682 -556.083)"/><path class="d" d="M2048.27,569.531h0a1.723,1.723,0,0,0,1.644-1.8l-.724-15.927a1.723,1.723,0,0,0-1.8-1.644h0a1.723,1.723,0,0,0-1.644,1.8l.723,15.927A1.724,1.724,0,0,0,2048.27,569.531Z" transform="translate(-1962.36 -550.158)"/><path class="e" d="M1731.754,594.834h0a1.532,1.532,0,0,1-1.6-1.461l-.188-4.133a1.532,1.532,0,0,1,1.461-1.6h0a1.532,1.532,0,0,1,1.6,1.461l.188,4.133A1.532,1.532,0,0,1,1731.754,594.834Z" transform="translate(-1729.965 -577.742)"/></g><path class="h" d="M1488.582,881.226c2.489-8.039,8.288-23.345,6.537-57.284a55.715,55.715,0,0,1,.228-8.906h0c7.432-.639,18.792,7.4,18.792,7.4S1507.145,865.087,1488.582,881.226Z" transform="translate(-1444.401 -735.29)"/><path class="b" d="M1414.131,694.905s-19.056,3.276-29,15.409-25.928,29.243-29.707,35.234-14.274,46.764-14.274,46.764.693,1.311,3.587,2.074a6.825,6.825,0,0,0,4.78-.4s13.9-23.794,19.136-35.681c2.174-4.939,39.773-24.5,53.907-22.471C1428.115,736.628,1414.131,694.905,1414.131,694.905Z" transform="translate(-1335.903 -646.908)"/><path class="a" d="M1863.541,572.619s4.1,2.507,6.551,1.447,2.235-2.032,2.235-2.032S1864.92,569.978,1863.541,572.619Z" transform="translate(-1720.348 -555.921)"/><path class="i" d="M1480.853,742.643s-8.363,52.8-67.7,68.172l-6.463,12.752,11.355,1.922s67.553-19.57,66.643-83.78Z" transform="translate(-1384.133 -681.352)"/><path class="j" d="M1675.005,713.329l-2.739.268v3.965l4.035,4.195,3.837-.934v-5.5l-2.758-1.992Z" transform="translate(-1579.581 -660.466)"/><path class="k" d="M1617.656,673.566s-2.651.6-8.712,5.635c0,0,6.028,12.8,18.746,14.327,0,0-.205-5.938.714-9.462C1628.4,684.066,1618.324,680.458,1617.656,673.566Z" transform="translate(-1532.98 -631.203)"/><path class="c" d="M1682.639,703.523s6.206,3.294,6.665,8.428c0,0,2.372-3.758,1.685-6.361a21.209,21.209,0,0,0-2.815-5.585S1688.385,703.14,1682.639,703.523Z" transform="translate(-1587.215 -650.661)"/></svg>