<svg id="Layer_5" enable-background="new 0 0 64 64" height="512" viewBox="0 0 64 64" width="512" xmlns="http://www.w3.org/2000/svg"><g><path d="m51.435 30.015c-.273-.117-.53-.258-.767-.43l-2.415 3.381 2.155 2.694z"/><path d="m42.547 29.921 1.044 5.739 2.156-2.695-2.465-3.45c-.229.161-.474.297-.735.406z"/><path d="m53 15.715c-1.495-.55-2.889-1.378-4.087-2.428-2.345 1.569-5.098 2.501-7.913 2.681v3.032c0 3.309 2.691 6 6 6s6-2.691 6-6z"/><path d="m38.747 17.81.253.183v-3.993h1c3.009 0 5.992-.995 8.4-2.8l.694-.521.613.613c1.199 1.199 2.684 2.116 4.292 2.653l1 .333v3.714l.268-.194c1.08-.808 1.733-2.114 1.733-3.481 0-1.742-.865-3.358-2.314-4.325l-.499-.332-.116-.288c-1.062-2.656-3.596-4.372-6.456-4.372h-1.229c-2.86 0-5.395 1.716-6.457 4.372l-.116.288-.499.333c-1.449.965-2.314 2.582-2.314 4.324 0 1.367.653 2.673 1.747 3.493z"/><path d="m22.586 26-2.442-2.442c-.355-.354-.846-.558-1.348-.558-.727 0-1.38.404-1.705 1.054l-.473.946h-1.618c-.551 0-1 .449-1 1v2c0 .551.449 1 1 1h4.586z"/><path d="m49.36 27.975c-.174-.389-.283-.808-.325-1.247-.651.171-1.331.272-2.035.272-.708 0-1.39-.101-2.044-.275-.052.426-.17.83-.347 1.207l2.391 3.347z"/><path d="m59.105 32.519c-1.012-1.012-2.352-1.667-3.772-1.845l-1.941-.242-1.801 9.908-4.591-5.739-4.591 5.738-1.811-9.958c-.804.153-1.58.333-2.282.567-2.039.68-4.139 2.419-5.088 3.271l.666 1.333-1.789.895-.927-1.855-7.178-7.178-2.586 2.586 7.542 7.542c.94.94 2.19 1.458 3.52 1.458.83 0 1.654-.21 2.383-.608l2.123-1.158c-.044-.571-.283-1.121-.689-1.528l1.414-1.414c.834.834 1.293 1.943 1.293 3.122v11.586h14.125c.135-.475.377-.915.736-1.274l1.14-1.14v-9.172c0-1.179.459-2.288 1.293-3.121l1.414 1.414c-.45.449-.708 1.072-.708 1.707v8.586h4v-8.906c0-1.728-.673-3.353-1.895-4.575z"/><path d="m55.274 49.14c-.176.177-.274.412-.274.663 0 .357.199.679.518.838l1.482.741v.618 1c0 .551.449 1 1 1h2c.551 0 1-.449 1-1v-5h-4.586z"/><path d="m53.253 51h-14.253v10h7v-2.838c0-1.46-.931-2.751-2.316-3.213l.633-1.897c1.112.371 2.037 1.078 2.684 1.986.646-.907 1.572-1.615 2.684-1.986l.633 1.897c-1.387.462-2.318 1.753-2.318 3.213v2.838h7v-8-.382l-.376-.188c-.624-.312-1.1-.82-1.371-1.43z"/><path d="m12.8 61h.4l1.129-5h-2.658z"/><path d="m18 43v2c.551 0 1-.449 1-1s-.449-1-1-1z"/><path d="m5.406 52.332c-1.394.282-2.406 1.519-2.406 2.941v5.727h7.749l-2.105-9.325z"/><path d="m20.594 52.332-3.239-.654-2.104 9.322h7.749v-5.727c0-1.422-1.012-2.659-2.406-2.941z"/><path d="m14.541 49.732c-.489.16-1 .268-1.541.268-.54 0-1.051-.108-1.539-.268-.248.429-.568.81-.952 1.12l.71 3.148h3.561l.713-3.158c-.387-.309-.707-.687-.952-1.11z"/><path d="m10 41.946v3.054c0 1.654 1.346 3 3 3s3-1.346 3-3v-3.054c-1.037-.111-2.055-.393-3-.833-.945.44-1.963.722-3 .833z"/><path d="m19 41c0-3.309-2.691-6-6-6s-6 2.691-6 6v.184c.314-.112.648-.184 1-.184v-1h1c1.154 0 2.31-.273 3.342-.789l.658-.329.658.329c1.032.516 2.188.789 3.342.789h1v1c.352 0 .686.072 1 .184z"/><path d="m17.576 47c-.297.676-.748 1.262-1.296 1.743.256.438.668.774 1.17.917l.827.166c.466-.867.723-1.829.723-2.826v-.184c-.314.112-.648.184-1 .184z"/><path d="m7 47c0 .996.256 1.957.722 2.824l.904-.183c.447-.13.843-.461 1.095-.897-.549-.481-1-1.067-1.297-1.744h-.424c-.352 0-.686-.072-1-.184z"/><path d="m8 43c-.551 0-1 .449-1 1s.449 1 1 1z"/><path d="m6.834 13h7.58l3.879 3.879c.238.238.707.045.707-.293v-3.586h2.166c1.011 0 1.834-.823 1.834-1.834v-6.166c0-1.103-.897-2-2-2h-14c-1.103 0-2 .897-2 2v6.166c0 1.011.823 1.834 1.834 1.834zm14.166-2h-2v-2h2zm-14-6h14v2h-14zm0 4h10v2h-10z"/></g></svg>